<svg width="60" height="56" viewBox="0 0 60 56" fill="none" xmlns="http://www.w3.org/2000/svg">
<path d="M24.6166 37.1289C24.7884 37.2661 24.9946 37.3333 25.2 37.3333C25.4576 37.3333 25.7142 37.2269 25.8981 37.0197L40.8314 20.2197C41.174 19.8352 41.1394 19.2444 40.754 18.9028C40.3676 18.5593 39.7786 18.5948 39.4361 18.9802L25.0917 35.1176L16.45 28.2044C16.0486 27.8824 15.4597 27.9496 15.1386 28.35C14.8166 28.7532 14.882 29.3402 15.2842 29.6622L24.6166 37.1289Z" fill="black"/>
<path fill-rule="evenodd" clip-rule="evenodd" d="M0 56V0H56V56H0ZM1.86667 54.1333H54.1333V1.86667H1.86667V54.1333Z" fill="black"/>
<path fill-rule="evenodd" clip-rule="evenodd" d="M55 40C57.7614 40 60 37.7614 60 35C60 32.2386 57.7614 30 55 30C52.2386 30 50 32.2386 50 35C50 37.7614 52.2386 40 55 40Z" fill="#FDCF26"/>
</svg>
