<svg width="81" height="121" viewBox="0 0 81 121" fill="none" xmlns="http://www.w3.org/2000/svg">
<circle cx="17.6367" cy="2.5" r="2.5" fill="white" fill-opacity="0.3"/>
<rect opacity="0.3" y="16.5581" width="5" height="5" rx="2.5" fill="white"/>
<circle opacity="0.3" cx="17.6367" cy="19.0581" r="2.5" fill="white"/>
<circle cx="2.5" cy="2.5" r="2.5" fill="white" fill-opacity="0.3"/>
<circle cx="17.6367" cy="35.6152" r="2.5" fill="white" fill-opacity="0.3"/>
<rect y="49.6724" width="5" height="5" rx="2.5" fill="white" fill-opacity="0.3"/>
<circle cx="17.6367" cy="52.1724" r="2.5" fill="white" fill-opacity="0.3"/>
<circle cx="2.5" cy="35.6152" r="2.5" fill="white" fill-opacity="0.3"/>
<circle cx="47.9102" cy="2.5" r="2.5" fill="white" fill-opacity="0.3"/>
<rect x="30.2729" y="16.5581" width="5" height="5" rx="2.5" fill="white" fill-opacity="0.3"/>
<circle cx="47.9102" cy="19.0581" r="2.5" fill="white" fill-opacity="0.3"/>
<circle cx="32.7729" cy="2.5" r="2.5" fill="white" fill-opacity="0.3"/>
<circle cx="47.9102" cy="35.6152" r="2.5" fill="white" fill-opacity="0.3"/>
<rect x="30.2729" y="49.6724" width="5" height="5" rx="2.5" fill="white" fill-opacity="0.3"/>
<circle cx="47.9102" cy="52.1724" r="2.5" fill="white" fill-opacity="0.3"/>
<circle cx="32.7729" cy="35.6152" r="2.5" fill="white" fill-opacity="0.3"/>
<circle opacity="0.3" cx="78.1831" cy="2.5" r="2.5" fill="white"/>
<rect x="60.5469" y="16.5581" width="5" height="5" rx="2.5" fill="white" fill-opacity="0.2"/>
<circle opacity="0.3" cx="78.1831" cy="19.0581" r="2.5" fill="white"/>
<circle cx="63.0469" cy="2.5" r="2.5" fill="white" fill-opacity="0.3"/>
<circle cx="78.1831" cy="35.6152" r="2.5" fill="white" fill-opacity="0.3"/>
<rect x="60.5469" y="49.6724" width="5" height="5" rx="2.5" fill="white" fill-opacity="0.3"/>
<circle cx="78.1831" cy="52.1724" r="2.5" fill="white" fill-opacity="0.3"/>
<circle cx="63.0469" cy="35.6152" r="2.5" fill="white" fill-opacity="0.3"/>
<circle cx="17.6367" cy="68.5" r="2.5" fill="white" fill-opacity="0.3"/>
<rect opacity="0.3" y="82.5581" width="5" height="5" rx="2.5" fill="white"/>
<circle opacity="0.3" cx="17.6367" cy="85.0581" r="2.5" fill="white"/>
<circle cx="2.5" cy="68.5" r="2.5" fill="white" fill-opacity="0.3"/>
<circle cx="17.6367" cy="101.615" r="2.5" fill="white" fill-opacity="0.3"/>
<rect y="115.672" width="5" height="5" rx="2.5" fill="white" fill-opacity="0.3"/>
<circle cx="17.6367" cy="118.172" r="2.5" fill="white" fill-opacity="0.3"/>
<circle cx="2.5" cy="101.615" r="2.5" fill="white" fill-opacity="0.3"/>
<circle cx="47.9102" cy="68.5" r="2.5" fill="white" fill-opacity="0.3"/>
<rect x="30.2729" y="82.5581" width="5" height="5" rx="2.5" fill="white" fill-opacity="0.3"/>
<circle cx="47.9102" cy="85.0581" r="2.5" fill="white" fill-opacity="0.3"/>
<circle cx="32.7729" cy="68.5" r="2.5" fill="white" fill-opacity="0.3"/>
<circle cx="47.9102" cy="101.615" r="2.5" fill="white" fill-opacity="0.3"/>
<rect x="30.2729" y="115.672" width="5" height="5" rx="2.5" fill="white" fill-opacity="0.3"/>
<circle cx="47.9102" cy="118.172" r="2.5" fill="white" fill-opacity="0.3"/>
<circle cx="32.7729" cy="101.615" r="2.5" fill="white" fill-opacity="0.3"/>
<circle opacity="0.3" cx="78.1831" cy="68.5" r="2.5" fill="white"/>
<rect x="60.5469" y="82.5581" width="5" height="5" rx="2.5" fill="white" fill-opacity="0.2"/>
<circle opacity="0.3" cx="78.1831" cy="85.0581" r="2.5" fill="white"/>
<circle cx="63.0469" cy="68.5" r="2.5" fill="white" fill-opacity="0.3"/>
<circle cx="78.1831" cy="101.615" r="2.5" fill="white" fill-opacity="0.3"/>
<rect x="60.5469" y="115.672" width="5" height="5" rx="2.5" fill="white" fill-opacity="0.3"/>
<circle cx="78.1831" cy="118.172" r="2.5" fill="white" fill-opacity="0.3"/>
<circle cx="63.0469" cy="101.615" r="2.5" fill="white" fill-opacity="0.3"/>
</svg>
