<svg width="54" height="52" viewBox="0 0 54 52" fill="none" xmlns="http://www.w3.org/2000/svg">
<path fill-rule="evenodd" clip-rule="evenodd" d="M45.4444 43.2335C49.5183 38.6423 52 32.6067 52 26C52 19.1261 49.3139 12.8718 44.9423 8.21779V8.2169C44.9405 8.21416 44.9382 8.21235 44.9361 8.21064C44.9348 8.20967 44.9337 8.20874 44.9326 8.2077C44.9319 8.20695 44.9312 8.20615 44.9307 8.20524C40.3771 3.36476 33.9972 0.266276 26.901 0.0233103L26.9001 0.0224138L26.3936 0.00896552C26.2627 0.00448276 26.1318 0 26 0C25.8682 0 25.7373 0.00448276 25.6064 0.00896552L25.1017 0.0224138L25.1008 0.0233103C18.0046 0.266276 11.6247 3.36476 7.0711 8.20524C7.0696 8.20712 7.06779 8.20852 7.06599 8.20992C7.06349 8.21185 7.06101 8.21377 7.05945 8.2169C7.05945 8.2169 7.05945 8.21779 7.05855 8.21869C2.68607 12.8718 0 19.1261 0 26C0 32.6067 2.48166 38.6423 6.55559 43.2335C6.55653 43.2349 6.5573 43.2364 6.55798 43.2378C6.55909 43.2402 6.55992 43.2427 6.56076 43.2451C6.56231 43.2497 6.56387 43.2543 6.56724 43.2586C6.57594 43.2707 6.58672 43.2794 6.59747 43.2881C6.60668 43.2955 6.61587 43.3029 6.62372 43.3124C11.2015 48.4299 17.7697 51.7266 25.0999 51.9776L25.1008 51.9785L25.6055 51.9919L25.6726 51.9938C25.7818 51.9969 25.8906 52 26 52C26.1318 52 26.2627 51.9955 26.3936 51.991L26.8983 51.9776L26.8992 51.9767C34.2375 51.7248 40.8128 48.4219 45.3906 43.2936L45.3935 43.2901C45.3954 43.2882 45.3973 43.2864 45.3993 43.2847C45.4029 43.2818 45.4067 43.2793 45.4105 43.2768L45.4105 43.2767L45.4105 43.2767L45.4105 43.2767C45.4184 43.2714 45.4262 43.2662 45.4319 43.2577C45.436 43.2536 45.4378 43.2488 45.4395 43.244C45.4408 43.2405 45.4421 43.2369 45.4444 43.2335ZM1.81552 26.8966H12.5768C12.6781 30.697 13.4205 34.3899 14.742 37.8497C12.1922 38.7723 9.75448 40.0095 7.47007 41.5534C4.11069 37.5574 2.01993 32.4641 1.81552 26.8966ZM15.0423 13.3631C12.5652 12.4952 10.1902 11.3333 7.95959 9.88269C4.31421 13.9575 2.02979 19.2696 1.81552 25.1034H12.5768C12.6862 21.0152 13.5254 17.0452 15.0423 13.3631ZM50.1845 25.1034H39.4232C39.3138 21.0152 38.4746 17.0452 36.9577 13.3631C39.4348 12.4952 41.8098 11.3333 44.0404 9.88269C47.6858 13.9575 49.9702 19.2696 50.1845 25.1034ZM17.5088 12.2648C19.9671 12.9552 22.5115 13.3416 25.1034 13.4151V2.37048C21.892 5.17221 19.3261 8.53697 17.5088 12.2648ZM25.1034 15.2082V25.1034H14.3699C14.4802 21.2052 15.2979 17.4245 16.7601 13.919C19.4552 14.6999 22.2533 15.132 25.1034 15.2082ZM35.2408 13.919C32.5448 14.7008 29.7467 15.132 26.8966 15.2082V25.1034H37.631C37.5207 21.2052 36.703 17.4245 35.2408 13.919ZM26.8966 13.4151V2.37048C30.108 5.17221 32.6739 8.53697 34.4912 12.2648C32.0329 12.9552 29.4885 13.3416 26.8966 13.4151ZM29.1568 2.00559C32.1163 4.82345 34.5065 8.1111 36.2288 11.7197C38.5123 10.9317 40.7034 9.87731 42.7691 8.56655C39.1309 5.06641 34.407 2.69234 29.1568 2.00559ZM15.7712 11.7197C13.4877 10.9317 11.2966 9.87731 9.23179 8.56655C12.8691 5.06641 17.5939 2.69234 22.8441 2.00559C19.8837 4.82345 17.4935 8.1111 15.7712 11.7197ZM25.1034 26.8966H14.3699C14.4712 30.4998 15.1804 34.0008 16.4419 37.2777C19.2337 36.4377 22.1386 35.975 25.1034 35.8961V26.8966ZM25.1034 37.6892V49.6295C21.6661 46.6306 18.971 42.987 17.1385 38.9453C19.7089 38.1877 22.3788 37.7663 25.1034 37.6892ZM26.8966 37.6892V49.6295C30.3339 46.6306 33.029 42.987 34.8615 38.9444C32.2911 38.1877 29.6212 37.7654 26.8966 37.6892ZM26.8966 35.8961V26.8966H37.6301C37.5288 30.4998 36.8196 34.0008 35.5572 37.2786C32.7663 36.4377 29.8614 35.975 26.8966 35.8961ZM50.1845 26.8966H39.4232C39.3219 30.697 38.5804 34.3899 37.258 37.8497C39.8078 38.7723 42.2455 40.0095 44.5299 41.5534C47.8902 37.5574 49.9801 32.4641 50.1845 26.8966ZM8.68848 42.8964C10.8097 41.487 13.0681 40.3538 15.4279 39.5065C17.1717 43.4155 19.6748 46.9775 22.8432 49.9944C17.3286 49.2727 12.393 46.6906 8.68848 42.8964ZM36.5721 39.5065C34.8283 43.4164 32.3252 46.9784 29.1568 49.9944C34.6714 49.2727 39.607 46.6906 43.3115 42.8964C41.1894 41.487 38.9319 40.3538 36.5721 39.5065Z" fill="black"/>
<path fill-rule="evenodd" clip-rule="evenodd" d="M49 40C51.7614 40 54 37.7614 54 35C54 32.2386 51.7614 30 49 30C46.2386 30 44 32.2386 44 35C44 37.7614 46.2386 40 49 40Z" fill="#FDCF26"/>
</svg>
