<svg width="827" height="831" viewBox="0 0 827 831" fill="none" xmlns="http://www.w3.org/2000/svg">
<path d="M0 415.667V831H413.5H827V415.667V0.33329H413.5H0V415.667ZM428.973 127.267C443.379 126.867 446.58 128.067 445.113 133.667C444.312 137 447.514 139 454.05 139C457.785 139 458.852 138.467 458.852 136.6C458.852 130.067 464.854 129.4 475.658 135C480.06 137.267 487.396 139.667 492.198 140.467C496.867 141.133 502.202 142.6 503.803 143.667C507.004 145.8 507.805 149.533 505.537 151.8C503.67 153.667 507.805 157.4 513.14 158.867C516.742 159.933 517.409 159.667 518.742 156.867C521.01 151.667 525.679 152.733 534.215 160.6C538.35 164.333 544.886 168.867 548.621 170.6C555.824 173.933 561.56 178.467 561.56 180.733C561.56 181.533 560.626 183.133 559.426 184.467C556.891 187.267 558.358 190.867 563.561 194.2C566.762 196.333 567.295 196.333 569.43 194.467C574.765 189.667 579.834 193.267 586.636 206.333C588.237 209.267 591.839 213.4 594.773 215.533C597.574 217.667 601.042 221.4 602.51 223.933C604.911 228.467 604.911 228.6 601.709 231.133C598.108 234.067 598.508 237.667 602.91 242.867C605.044 245.267 606.111 245.667 607.178 244.6C608.112 243.667 610.113 243 611.847 243C615.448 243 618.249 247.8 620.383 257.933C621.184 261.667 623.985 267.933 626.386 271.667C628.787 275.267 631.188 280.333 631.721 282.733C632.522 286.733 632.255 287.267 628.387 288.733C623.718 290.467 623.318 292.733 626.252 299.8C627.986 304.067 628.387 304.333 631.188 302.867C633.589 301.533 634.389 301.8 636.523 304.333C638.391 306.6 638.924 309.667 638.924 317.533C638.924 323.133 639.858 330.6 640.925 334.2C643.726 343.4 643.459 349.267 640.391 351C638.924 351.667 636.923 351.933 635.723 351.533C634.256 351 633.455 352.067 632.922 355.4C631.588 362.067 633.055 365.667 637.057 365.667C642.792 365.667 643.593 370.467 639.858 381.8C637.457 388.733 636.657 393.533 637.19 397.133C638.657 408.2 632.922 418.067 627.586 413.667C626.119 412.467 625.319 413 623.718 416.2C620.784 421.8 620.917 426.467 624.252 427.4C629.987 428.867 629.32 435.667 622.518 444.6C619.983 447.8 616.649 454.733 615.048 460.067C611.713 471.267 607.311 475.667 603.176 471.933C600.109 469.133 596.641 471.133 594.106 477.133C591.705 482.733 591.705 482.6 594.906 483.4C600.242 484.733 598.108 490.067 588.637 499.133C583.569 503.933 577.433 510.733 574.898 514.333C569.696 521.667 565.561 523.267 561.56 519.667C558.759 517.133 556.091 518.067 551.156 523.4C548.488 526.2 548.354 526.733 550.222 528.333C555.157 532.467 550.622 538.2 539.151 542.467C535.683 543.8 529.947 547.4 526.346 550.6C517.275 558.733 510.206 559.933 508.605 553.667C508.071 551.533 507.138 551.267 504.337 551.933C500.468 552.867 494.866 556.2 494.866 557.533C494.866 557.933 495.4 559.267 496.067 560.2C499.135 565 491.531 569.667 480.727 569.667C477.259 569.667 471.924 571.133 466.588 573.667C454.85 579.267 448.181 578.733 448.181 572.2C448.181 569.4 442.445 568.2 437.643 569.8C434.975 570.733 434.042 571.933 434.175 574.6C434.175 580.333 429.373 581.933 418.836 579.8C412.3 578.467 408.165 578.333 401.228 579.4C389.757 581.133 385.489 579.667 385.489 573.667C385.489 570.467 384.688 569.267 382.021 568.333C376.552 566.2 372.15 566.733 372.15 569.267C372.017 576.467 365.347 577.133 353.876 571.267C349.608 569 342.938 566.867 338.937 566.333C329.199 565.267 324.131 562.467 324.131 558.333C324.131 556.6 324.798 554.733 325.465 554.333C327.465 553.133 321.196 548.467 316.261 547.533C313.06 546.867 312.126 547.133 312.126 548.733C312.126 549.8 311.192 551.4 310.125 552.333C307.324 554.6 303.055 552.6 295.052 545.133C291.584 541.933 285.849 538.067 282.114 536.467C270.776 531.4 267.174 526.467 271.443 521.667C273.31 519.667 273.177 519 270.776 515.933C267.174 511.4 263.306 510.2 260.638 512.867C259.571 514.067 257.704 515 256.637 515C253.969 515 248.5 509 245.165 502.467C243.698 499.533 239.296 494.2 235.295 490.6C226.625 482.733 225.024 478.333 229.426 475C232.227 472.867 232.36 472.333 230.893 468.6C229.959 466.333 228.092 463.533 226.891 462.333C224.757 460.467 224.357 460.467 222.756 462.333C218.755 467.267 213.153 461.667 210.618 449.933C209.685 445.667 206.617 438.733 203.815 434.333C197.813 425.133 197.28 418.6 202.482 417.933C204.883 417.533 205.416 416.6 205.416 412.867C205.416 405.667 203.415 402.867 199.014 403.8C193.011 405 191.544 401.8 191.277 387.8C191.144 381.133 190.077 372.733 189.01 369C186.475 360.067 187.676 355.8 193.011 355.267C197.546 354.867 198.747 351.933 197.68 344.467C197.28 341.133 196.613 340.467 194.745 341C191.677 341.933 188.076 338.333 188.076 334.2C188.076 332.467 189.276 327.933 190.744 324.067C192.478 319.533 193.411 313.8 193.411 308.067C193.411 303.133 194.078 297.533 195.012 295.533C196.479 292.6 197.28 292.2 201.148 292.867C205.283 293.533 205.816 293.133 207.55 289C210.218 282.467 209.951 279 206.75 279C200.214 279 201.681 269.133 209.685 259.667C211.552 257.4 213.82 252.6 214.62 248.867C216.621 240.6 220.622 233.667 223.557 233.667C224.624 233.667 226.758 234.333 228.225 235.133C231.56 236.867 234.228 235 236.629 229.133C238.096 225.4 237.963 224.733 235.295 222.733C233.427 221.133 232.627 219.4 233.027 217.667C233.694 215.267 242.364 206.333 246.9 203.533C247.967 202.867 251.035 198.867 253.836 194.6C256.637 190.333 260.372 186.2 262.372 185.267C265.307 183.933 266.107 184.2 268.108 186.733C270.242 189.267 271.043 189.533 273.71 188.2C275.444 187.533 277.845 185.267 279.179 183.533C281.447 180.467 281.58 179.933 279.579 177.8C278.379 176.467 277.445 174.867 277.445 174.067C277.445 171.667 283.448 167.267 290.65 164.467C294.519 162.867 300.521 159.267 303.989 156.467C314.527 147.667 320.262 146.333 321.863 152.333C322.797 155.667 326.265 155.667 331.734 152.333C335.735 149.933 336.002 149.4 334.535 146.467C333.468 143.933 333.468 142.6 334.668 141.133C336.402 139 347.073 136.333 353.609 136.333C355.743 136.333 360.545 134.867 364.147 133C372.417 128.867 380.954 128.467 382.154 132.333C382.554 133.8 382.554 135.533 382.154 136.333C381.22 137.8 388.29 138.067 393.225 136.867C395.359 136.2 396.16 135 396.16 132.467C396.16 126.467 398.427 125.267 407.498 126.467C411.899 127.133 421.503 127.4 428.973 127.267ZM391.758 617.4L410.165 617L409.632 623.667L409.098 630.333L407.231 625.933C405.23 621.133 400.028 618.467 395.226 619.667C392.158 620.333 392.158 620.6 392.158 640.867V661.4L395.893 662.733C398.827 663.933 397.494 664.067 388.823 664.067C382.954 664.067 379.353 663.667 380.82 663.4C386.556 661.933 386.823 660.733 386.823 640.867C386.823 623 386.689 621.667 384.155 620.333C379.62 617.933 372.684 620.867 370.95 625.933C368.815 631.933 367.882 629.8 368.949 621.8C369.616 616.333 370.149 615.267 371.616 616.467C372.684 617.4 379.753 617.667 391.758 617.4ZM224.624 619.133C231.026 622.067 231.427 630.733 225.424 637C222.89 639.667 223.023 639.8 230.226 649.267C234.361 654.867 239.563 660.067 242.498 661.533L247.433 664.2L241.164 664.333C235.428 664.333 234.628 663.933 230.36 658.6C227.825 655.533 223.957 650.067 221.556 646.6C218.221 641.8 216.487 640.333 214.353 640.6C211.685 641 211.419 641.8 211.419 651C211.419 660.2 211.685 661 214.753 662.6C217.688 664.067 217.021 664.333 208.084 664.2C199.814 664.2 198.747 663.933 201.815 662.733L205.416 661.4V641.133V620.867L201.815 619.4C198.613 618.2 199.947 617.933 209.685 617.8C216.087 617.667 222.756 618.333 224.624 619.133ZM315.994 635L315.861 641L314.127 636.867C312.126 632.2 309.058 630.467 305.19 631.8C302.922 632.467 302.789 633.8 303.055 647.4C303.456 661.933 303.456 662.2 306.79 663.133C308.925 663.667 306.39 664.067 300.121 664.2C291.184 664.333 290.517 664.067 293.452 662.6C296.653 661 296.786 660.333 297.186 647.533C297.453 637.133 297.053 633.667 295.586 632.467C292.385 629.8 287.182 632.067 285.448 636.733C283.581 641.8 282.114 639.4 283.314 633.267L284.115 629H300.121H316.127L315.994 635ZM269.842 631.267C266.908 632.6 266.774 633.533 266.774 647.267C266.774 661 266.908 661.8 269.842 663C271.976 663.8 270.376 664.2 263.44 664.2C256.503 664.2 254.903 663.8 257.17 663C259.971 661.8 260.105 661 260.105 647.533C260.105 635.533 259.705 633 257.837 631.533C255.703 629.933 256.637 629.8 264.106 629.8C271.309 629.8 272.243 630.067 269.842 631.267ZM354.143 631.133C354.676 631.8 354.676 634.067 354.143 636.067C353.209 639.667 353.209 639.667 352.009 636.6C350.541 632.6 344.539 630.333 340.537 632.2C338.003 633.4 337.469 634.6 337.469 639.667V645.667H344.139C348.007 645.667 350.808 646.333 350.808 647.133C350.808 648.067 348.407 648.333 344.539 648.067L338.136 647.667L337.736 653.4C337.203 660.067 339.07 663 343.739 663C348.274 663 351.742 660.867 354.009 656.6L356.01 653L356.144 658.6V664.333L341.204 664.2C330.8 664.2 327.065 663.8 329.199 663C332.001 661.8 332.134 661 332.134 647.267C332.134 633.533 332.001 632.6 329.199 631.267C326.798 630.2 328.933 629.8 339.737 629.8C347.874 629.667 353.609 630.2 354.143 631.133ZM445.513 634.6L445.38 639.667L443.512 636.2C441.378 632.333 437.11 630.6 432.441 631.933C429.907 632.6 429.506 633.533 429.506 639.133V645.667H436.176C440.177 645.667 442.845 646.2 442.845 647.133C442.845 648.2 440.711 648.467 436.176 647.8L429.506 646.867V654.2C429.506 661.133 429.773 661.667 432.975 662.467C438.177 663.8 443.245 661.533 445.513 657L447.514 653L447.914 656.733C448.848 664.067 448.181 664.333 432.574 664.2C422.57 664.2 419.102 663.8 421.236 663C424.038 661.8 424.171 661 424.171 647.267C424.171 633.533 424.038 632.6 421.236 631.267C418.836 630.2 420.97 629.8 431.907 629.8L445.513 629.667V634.6ZM478.86 642.333L488.864 654.867L489.664 647.267C490.598 638.2 489.931 633.533 486.996 631.4C485.262 630.067 486.063 629.8 491.531 629.8C497.801 629.8 498.067 629.933 495.533 631.8C493.132 633.533 492.732 635.8 492.198 650.067L491.531 666.2L480.994 653.667C475.125 646.733 469.656 640.067 468.589 639C467.122 637.4 466.855 639 466.855 649.133C466.855 660.333 467.122 661.4 469.923 662.733C472.457 663.933 471.79 664.2 465.521 664.2C458.585 664.333 458.451 664.2 461.253 662.2C463.92 660.333 464.187 659.133 464.187 647.133C464.187 635 463.92 633.8 461.253 631.933C458.185 629.8 458.318 629.8 463.52 629.8C468.722 629.8 469.256 630.2 478.86 642.333ZM535.416 631.533C542.219 634.333 545.553 639.533 545.553 647.133C545.553 652.733 544.886 654.467 541.018 658.733L536.483 663.667L521.944 664.067C509.405 664.333 507.938 664.2 510.873 662.733C514.074 661 514.207 660.2 514.607 648.067C514.874 636.2 514.741 635 511.94 632.467L509.005 629.667H519.943C526.346 629.667 532.881 630.467 535.416 631.533ZM584.236 634.6L584.102 639.667L582.235 636.2C580.101 632.333 575.832 630.6 571.164 631.933C568.629 632.6 568.229 633.533 568.229 639.133V645.667H574.898C578.9 645.667 581.568 646.2 581.568 647.133C581.568 648.2 579.434 648.467 574.898 647.8L568.229 646.867V654.2C568.229 661.133 568.496 661.667 571.697 662.467C576.899 663.8 581.968 661.533 584.236 657L586.236 653L586.636 656.733C587.57 664.067 586.903 664.333 571.297 664.2C561.293 664.2 557.825 663.8 559.959 663C562.76 661.8 562.894 661 562.894 647.267C562.894 633.533 562.76 632.6 559.959 631.267C557.558 630.2 559.692 629.8 570.63 629.8L584.236 629.667V634.6ZM622.651 631.8C626.252 634.333 626.386 637.667 622.918 642.067C621.451 643.933 620.25 645.933 620.25 646.733C620.25 649.133 628.387 659.133 632.655 661.8L636.923 664.467L630.921 664.067C625.185 663.667 624.652 663.4 619.583 655.4C612.514 644.467 609.579 644.2 609.579 654.333C609.579 660.733 609.979 661.933 612.647 663C614.915 663.933 613.447 664.2 606.911 664.2C598.775 664.333 598.508 664.2 601.309 662.2C603.977 660.333 604.244 659.133 604.244 647.133C604.244 635 603.977 633.8 601.309 631.933C598.375 629.933 598.775 629.8 608.912 629.8C616.515 629.667 620.517 630.2 622.651 631.8ZM548.621 710.6C474.991 710.867 354.676 710.867 281.18 710.6C207.55 710.467 267.708 710.333 414.834 710.333C561.96 710.333 622.117 710.467 548.621 710.6Z" fill="black"/>
<path d="M399.094 131.267C400.028 133.8 403.363 134.067 408.298 131.8L412.833 129.933L405.764 129.8C400.562 129.667 398.694 130.067 399.094 131.267Z" fill="black"/>
<path d="M430.84 130.733C430.84 131.267 432.975 132.6 435.642 133.533C439.644 135 440.711 135 441.645 133.533C442.178 132.6 442.312 131.267 442.045 130.733C441.111 129.4 430.84 129.4 430.84 130.733Z" fill="black"/>
<path d="M368.815 134.333L364.814 136.067L370.549 136.2C373.617 136.333 376.552 136.467 377.085 136.6C377.619 136.867 378.286 135.933 378.553 134.6C379.086 131.8 374.684 131.667 368.815 134.333Z" fill="black"/>
<path d="M410.566 134.6C396.693 138.2 401.895 140.867 422.704 140.733C439.911 140.6 442.312 138.867 430.173 135.133C419.903 131.933 420.703 131.933 410.566 134.6Z" fill="black"/>
<path d="M463.654 134.6C461.119 137.267 463.253 139 469.122 139C472.457 139 474.992 138.733 474.725 138.333C473.124 136.867 464.454 133.8 463.654 134.6Z" fill="black"/>
<path d="M340.537 141.667C337.469 142.867 336.269 147 338.937 147C339.603 147 342.538 145.533 345.206 143.667C349.741 140.6 349.874 140.333 346.806 140.467C344.939 140.467 342.138 141 340.537 141.667Z" fill="black"/>
<path d="M349.741 144.6C346.006 147 342.805 149.4 342.805 150.067C342.805 153.133 372.684 145.667 376.685 141.667C377.619 140.733 374.151 140.333 367.348 140.333C357.744 140.333 356.144 140.733 349.741 144.6Z" fill="black"/>
<path d="M382.821 143.667C378.419 145.533 378.686 145.533 388.156 144.733C393.625 144.333 398.694 143.533 399.494 142.867C401.495 141 388.023 141.667 382.821 143.667Z" fill="black"/>
<path d="M438.977 143.533C439.644 144.333 461.519 148.067 461.519 147.533C461.519 147.267 459.385 146.067 456.717 145C452.449 143.267 437.376 142.067 438.977 143.533Z" fill="black"/>
<path d="M464.187 143.667C464.187 145 480.727 151.933 486.196 152.867C489.13 153.4 492.865 154.2 494.599 154.6C499.668 155.8 497.934 152.867 490.464 147.8C484.062 143.4 482.728 143 473.791 143C468.589 143 464.187 143.267 464.187 143.667Z" fill="black"/>
<path d="M490.865 143.8C490.865 144.067 493.265 145.933 496.333 147.933C500.735 150.867 501.936 151.133 502.869 149.533C503.536 148.6 503.67 147.267 503.136 146.733C502.069 145.667 490.865 143 490.865 143.8Z" fill="black"/>
<path d="M414.434 145.4L410.699 146.333L415.367 150.867L420.036 155.4L424.704 151.533C430.173 147 430.573 145.667 426.572 145.667C424.838 145.667 422.303 145.4 420.836 145.133C419.369 144.867 416.434 145 414.434 145.4Z" fill="black"/>
<path d="M396.16 147.267C376.285 149.4 376.418 149.4 372.15 155.667C370.016 158.867 368.148 161.933 368.148 162.6C368.148 163.133 373.884 165.933 380.954 168.733L393.759 173.667L404.563 166.2C410.566 162.067 415.901 158.2 416.568 157.667C417.101 157.267 414.701 154.467 411.232 151.533L404.83 146.2L396.16 147.267Z" fill="black"/>
<path d="M428.306 152.2L422.57 157.267L433.908 166.067L445.113 175L456.984 171C463.52 168.733 469.656 166.733 470.59 166.333C471.924 165.8 471.39 163.933 468.322 158.6L464.32 151.667L451.249 149.4C444.046 148.2 437.243 147.133 436.176 147.133C435.109 147.133 431.507 149.4 428.306 152.2Z" fill="black"/>
<path d="M358.411 153C351.075 155.533 351.075 155.933 357.611 158.867C364.013 161.533 364.947 161.267 368.548 155.133L370.949 151H367.215C365.214 151.133 361.212 151.933 358.411 153Z" fill="black"/>
<path d="M310.125 155.667L306.123 159L310.125 158.2C317.595 156.733 318.795 156.2 318.795 154.2C318.795 151.267 314.527 151.933 310.125 155.667Z" fill="black"/>
<path d="M469.522 153.267C469.522 153.8 472.457 159 475.525 163.933C475.925 164.733 486.863 159.8 486.863 159C486.863 158.467 485.129 157.267 482.995 156.333C478.059 154.333 469.522 152.333 469.522 153.267Z" fill="black"/>
<path d="M335.469 155.933C332.134 156.467 319.195 164.333 321.73 164.333C322.663 164.333 341.871 156.2 342.672 155.533C343.338 155 341.738 155 335.469 155.933Z" fill="black"/>
<path d="M521.544 158.733C521.544 160.467 523.144 161.8 527.013 162.867C534.349 165 534.882 163.933 528.613 159.8C522.611 155.667 521.544 155.533 521.544 158.733Z" fill="black"/>
<path d="M333.201 163.133L320.262 168.6L318.128 175.933C316.928 179.933 316.261 183.667 316.661 183.933C317.061 184.333 323.197 185.267 330.4 186.067L343.338 187.4L348.407 181.533C351.208 178.333 355.343 173.133 357.477 170.067L361.612 164.467L354.943 161C351.208 159.133 347.74 157.667 347.207 157.667C346.673 157.8 340.271 160.2 333.201 163.133Z" fill="black"/>
<path d="M409.498 166.6C404.029 170.6 399.361 174.2 399.228 174.733C398.961 175.267 403.496 177.267 409.232 179.267L419.502 183L430.573 179.533L441.511 176.2L431.907 168.6C426.572 164.333 421.637 160.6 420.836 160.067C420.169 159.667 414.967 162.6 409.498 166.6Z" fill="black"/>
<path d="M506.204 163.533C517.809 169.267 519.676 169.533 512.74 164.467C509.939 162.333 505.137 160.2 502.203 159.8C497.267 159 497.534 159.4 506.204 163.533Z" fill="black"/>
<path d="M307.457 162.333C302.389 163.8 299.187 165.933 294.119 171.133C290.517 175 288.116 178.333 288.916 178.6C291.317 179.4 302.789 173.933 310.925 167.933C321.996 159.933 321.063 158.6 307.457 162.333Z" fill="black"/>
<path d="M485.796 163.533C481.927 165.267 478.726 167.133 478.859 167.8C478.993 169.533 491.665 187.533 494.066 189.533C495.399 190.733 499.668 190.867 509.405 190.2C516.875 189.667 522.877 188.867 522.877 188.467C522.877 188.067 522.077 184.6 521.143 181L519.409 174.333L506.204 167.4L492.865 160.6L485.796 163.533Z" fill="black"/>
<path d="M521.544 166.067C521.81 169.667 548.355 187.4 550.355 185.267C551.422 184.2 542.352 172.867 538.35 170.333C533.549 167.267 521.544 164.2 521.544 166.067Z" fill="black"/>
<path d="M357.077 175.8C352.809 181.267 349.741 186.333 350.141 187C350.541 187.8 355.477 188.333 361.079 188.333C370.683 188.333 371.75 188.067 380.287 182.733C385.355 179.533 389.49 176.733 389.49 176.2C389.49 175.533 373.084 168.6 366.147 166.333C365.481 166.067 361.346 170.333 357.077 175.8Z" fill="black"/>
<path d="M286.516 169.8C281.58 172.333 279.579 176.333 283.181 176.333C285.048 176.333 292.918 168.733 291.984 167.8C291.718 167.533 289.183 168.467 286.516 169.8Z" fill="black"/>
<path d="M461.252 172.867C454.717 175.133 449.514 177.267 449.514 177.667C449.514 178.067 453.516 181.133 458.451 184.6L467.255 191H478.459C484.462 191 489.531 190.6 489.531 190.2C489.531 188.867 474.458 168.333 473.657 168.467C473.257 168.6 467.655 170.6 461.252 172.867Z" fill="black"/>
<path d="M311.059 173.133C308.524 174.2 304.789 176.467 302.655 178.333L298.654 181.533L302.122 182.333C312.526 184.467 311.726 184.733 313.993 178.067C315.194 174.733 315.994 171.8 315.727 171.533C315.594 171.4 313.46 172.067 311.059 173.133Z" fill="black"/>
<path d="M550.355 178.333C553.957 183.133 557.558 184.467 557.558 181C557.558 179.133 550.355 173.667 547.821 173.667C547.287 173.667 548.354 175.8 550.355 178.333Z" fill="black"/>
<path d="M524.611 182.333L525.945 188.333H532.481C535.949 188.333 538.884 187.8 538.884 187.267C538.884 185 526.879 176.333 523.811 176.333C523.544 176.333 523.811 179 524.611 182.333Z" fill="black"/>
<path d="M385.489 183.4L376.819 189L385.489 189.4C393.892 189.8 412.166 186.333 412.166 184.467C412.166 183.667 401.629 179.667 395.493 178.067C394.826 177.8 390.291 180.2 385.489 183.4Z" fill="black"/>
<path d="M433.508 181.933L424.838 184.733L434.042 187.8C440.311 189.933 446.447 191 452.716 191H462.053L453.516 185C448.848 181.667 444.312 179 443.645 179.133C442.845 179.133 438.31 180.467 433.508 181.933Z" fill="black"/>
<path d="M284.515 186.067C279.979 188.467 272.11 196.467 272.11 198.733C272.11 199.133 277.045 195.133 290.117 184.067C292.118 182.333 290.517 182.867 284.515 186.067Z" fill="black"/>
<path d="M283.714 193.667L272.11 203.133V211.133C272.11 215.4 272.51 219 273.177 219C277.312 219 298.387 214.333 299.721 213.133C300.788 212.067 310.792 189.133 310.792 187.533C310.792 187.4 308.524 186.867 305.857 186.333C303.055 185.933 299.587 185.133 297.987 184.867C295.986 184.333 292.118 186.733 283.714 193.667Z" fill="black"/>
<path d="M260.238 191.667C257.971 194.333 256.103 196.733 256.103 197.133C256.103 197.533 258.504 196.467 261.439 194.867C266.507 191.933 268.108 189.267 265.574 187.8C264.907 187.4 262.506 189.133 260.238 191.667Z" fill="black"/>
<path d="M312.793 191.533C304.523 211.533 304.256 212.333 306.524 212.2C307.724 212.2 312.793 211.133 317.728 209.933C326.265 207.8 327.199 207.133 334.135 199L341.338 190.333L337.069 189.933C334.802 189.667 328.666 189.133 323.597 188.467L314.527 187.4L312.793 191.533Z" fill="black"/>
<path d="M412.166 188.2C409.232 189 409.098 189.267 411.232 190.067C412.566 190.6 417.768 191 422.57 190.867L431.507 190.733L426.839 189C421.637 187 417.235 186.733 412.166 188.2Z" fill="black"/>
<path d="M556.491 197.533C561.16 201.933 565.161 205.267 565.428 205C567.162 203.267 552.356 189.667 548.755 189.667C548.488 189.667 551.956 193.267 556.491 197.533Z" fill="black"/>
<path d="M339.203 197.933C336.135 201.8 333.734 205.133 334.001 205.4C335.335 206.733 351.875 200.867 358.144 196.867C362.146 194.333 365.481 191.933 365.481 191.667C365.481 191.267 360.812 191 355.21 191H344.806L339.203 197.933Z" fill="black"/>
<path d="M531.281 191.933C527.412 192.733 527.412 193.267 532.615 207.533L537.016 219.533L548.888 222.6C566.095 227 565.561 227.133 565.561 217.8V209.933L555.024 200.467C544.086 190.6 542.085 189.8 531.281 191.933Z" fill="black"/>
<path d="M367.215 195.133C364.814 196.733 362.813 198.067 362.813 198.333C362.813 198.733 380.287 194.333 383.488 193C384.288 192.733 381.887 192.467 378.153 192.467C373.617 192.467 370.149 193.267 367.215 195.133Z" fill="black"/>
<path d="M507.938 193.267C502.202 193.533 497.534 194.067 497.534 194.467C497.534 194.733 500.602 198.867 504.203 203.667C510.072 211 511.939 212.467 517.942 214.2C529.547 217.533 532.214 218.067 532.214 216.867C532.214 216.2 530.347 210.467 528.079 204.067C524.478 194.067 523.411 192.333 521.01 192.6C519.543 192.733 513.54 193.133 507.938 193.267Z" fill="black"/>
<path d="M371.483 199.533C352.675 204.867 350.408 205.8 332 217.133C313.593 228.333 311.592 229.933 297.186 245.667C282.647 261.667 281.58 263.133 271.843 283.4C261.839 303.8 261.572 304.867 257.971 325.4C253.836 349.667 253.836 347.933 257.304 375.667C259.838 396.6 260.105 397.4 268.642 417C276.778 435.667 278.245 438.2 291.718 454.6C305.456 471.267 307.057 472.867 325.465 485.4C344.405 498.333 345.339 498.733 366.414 505.533L388.156 512.333L411.099 513.133L434.175 513.933L456.584 507.8C477.392 502.2 480.06 501.133 493.932 492.6C502.202 487.533 510.873 482.2 513.274 480.867C515.675 479.533 524.745 470.467 533.415 461C548.354 444.467 549.421 442.733 559.025 423C568.896 402.467 569.029 402.2 572.764 379.667L576.632 357L573.965 334.2L571.164 311.4L562.227 290.2C553.423 270.067 552.489 268.467 538.617 251.667C524.878 235.133 523.144 233.4 504.737 221C485.796 208.2 484.995 207.8 463.12 200.867L440.844 193.8H416.168L391.491 193.933L371.483 199.533ZM419.903 360.333C419.636 424.333 419.102 442.2 417.902 442.733C416.568 443.133 416.168 426.067 416.168 360.6C416.168 315.267 416.568 277.667 417.101 277.133C417.635 276.733 418.435 276.733 419.102 277.4C419.636 277.933 420.036 315.267 419.903 360.333ZM500.202 321.133C506.071 323.533 509.539 328.467 509.539 334.333C509.539 338.867 505.004 347.667 501.269 350.2L498.334 352.333L505.004 361.933C513.674 374.733 525.012 386.067 530.881 387.933C535.282 389.267 535.149 389.4 526.612 389.533L517.809 389.667L512.34 383.4C509.272 380.067 503.403 372.2 499.268 366.067C492.065 355.4 491.531 355 486.596 355H481.527V371V387L485.262 387.8C492.198 389.267 491.531 389.4 477.526 389.4C467.522 389.4 464.587 389.133 467.388 388.333C469.523 387.667 471.79 386.333 472.324 385.4C473.791 383.267 473.791 326.867 472.457 324.733C471.924 323.933 469.656 322.733 467.522 322.067C463.654 321 466.988 320.6 490.464 319.267C492.865 319.133 497.267 319.933 500.202 321.133ZM335.735 325.133C338.536 325.933 338.536 325.933 334.935 329.4C332.934 331.4 332.534 331.933 334.135 330.733C338.003 327.533 349.341 323.667 346.406 326.467C345.873 327 347.34 329.4 349.474 331.933C353.342 336.2 354.276 339.933 353.743 348.2C353.609 349.933 354.81 353.133 356.41 355.267C358.411 358.2 358.811 359.533 357.611 360.733C356.81 361.533 356.144 365.267 356.144 369.133C356.144 376.467 355.076 377.667 348.807 377.667C344.139 377.667 343.605 379.933 347.874 381.4C350.008 382.067 353.876 384.6 356.544 387C361.212 391 361.879 391.133 370.816 390.733C375.885 390.467 380.153 390.733 380.153 391.267C380.153 391.933 367.215 392.333 351.475 392.333C335.735 392.333 322.797 391.8 322.797 391.133C322.797 389.533 331.067 383.267 335.335 381.667C339.87 379.933 339.737 377.667 335.202 377.8L331.467 377.933L334.802 379C336.936 379.667 337.336 380.067 335.869 380.2C334.535 380.333 330.266 383 326.265 386.333C319.329 391.933 318.395 392.333 310.792 392.333C306.39 392.333 302.789 391.8 302.789 391C302.789 390.333 304.656 387.667 306.79 385.267C309.058 382.733 310.792 379.667 310.792 378.467C310.792 377.267 311.459 376.333 312.126 376.333C314.527 376.333 313.593 364.6 310.525 358.867C305.99 350.067 305.723 341.667 309.992 334.467C311.992 331.133 315.194 327.533 317.195 326.467C320.929 324.467 330.533 323.8 335.735 325.133ZM359.878 325.267C357.744 325.533 354.543 325.533 352.542 325.267C350.408 325 352.142 324.733 356.144 324.733C360.145 324.733 361.879 325 359.878 325.267ZM370.549 331.133C372.95 334.467 373.084 334.867 370.95 332.333C369.349 330.467 366.948 328.2 365.747 327.133C364.28 325.933 364.147 325.533 365.347 325.933C366.414 326.2 368.682 328.6 370.549 331.133ZM375.751 347.267C375.485 349 375.218 347.933 375.218 345C375.085 342.067 375.351 340.733 375.751 341.933C376.018 343.267 376.018 345.667 375.751 347.267ZM372.15 378.733C372.15 379.933 373.751 382.733 375.885 384.867L379.486 389L375.751 385.667C371.216 381.8 367.348 374.733 370.283 375.933C371.35 376.333 372.15 377.533 372.15 378.733Z" fill="black"/>
<path d="M483.928 323C481.928 324.2 481.527 326.6 481.527 338.6V352.733L488.197 352.067C495.933 351.267 499.668 348.467 500.735 342.6C501.669 337 499.668 328.6 496.6 325.533C493.532 322.467 486.996 321.133 483.928 323Z" fill="black"/>
<path d="M328.399 342.333C328.399 344.467 328.666 345.267 329.066 343.933C329.332 342.733 329.332 340.867 329.066 339.933C328.666 339.133 328.399 340.067 328.399 342.333Z" fill="black"/>
<path d="M325.998 355.267L323.464 358.333L326.532 355.8C329.333 353.4 330.133 352.333 329.066 352.333C328.799 352.333 327.465 353.667 325.998 355.267Z" fill="black"/>
<path d="M325.598 372.467C325.464 375 329.066 378.467 330.4 377.133C330.8 376.733 330.533 376.333 329.599 376.333C328.799 376.333 327.465 375 326.798 373.267C325.998 371.267 325.598 371 325.598 372.467Z" fill="black"/>
<path d="M454.85 194.2C454.85 194.867 470.857 200.333 472.724 200.333C473.524 200.333 472.457 198.867 470.19 197C467.388 194.733 464.454 193.8 460.586 193.667C457.384 193.667 454.85 193.933 454.85 194.2Z" fill="black"/>
<path d="M472.991 194.733C478.593 199.8 488.864 205.533 495.266 207.533C499.535 208.867 503.403 209.667 503.67 209.4C503.937 209 501.669 205.4 498.468 201.267L492.866 193.8L482.328 193.667C476.459 193.667 472.191 194.2 472.991 194.733Z" fill="black"/>
<path d="M260.105 199.4C254.102 203 251.968 205.4 248.367 212.2C245.832 216.733 244.232 220.867 244.632 221.267C246.766 223.533 269.042 199.667 267.841 196.333C267.575 195.667 264.106 197 260.105 199.4Z" fill="black"/>
<path d="M571.831 195.933C570.097 197.533 570.897 198.6 576.232 202.2C582.368 206.2 583.035 205 578.1 199.133C574.632 194.867 573.431 194.333 571.831 195.933Z" fill="black"/>
<path d="M569.563 203.8C569.563 204.2 571.964 207.933 574.765 212.067C580.634 220.733 590.371 230.6 591.705 229.267C592.639 228.333 589.171 218.6 586.103 213.933C583.168 209.4 569.563 201 569.563 203.8Z" fill="black"/>
<path d="M260.905 213.8C257.437 217.667 254.903 221 255.303 221.267C255.57 221.667 258.637 221.4 261.972 221L268.108 220.067V213.533C268.108 209.933 267.841 207 267.574 207C267.308 207 264.24 210.067 260.905 213.8Z" fill="black"/>
<path d="M332.667 209.267C330 209.8 319.862 219 321.863 219C322.397 219 326.665 216.6 331.2 213.667C339.07 208.733 339.203 207.933 332.667 209.267Z" fill="black"/>
<path d="M239.963 213.533C235.695 217.8 235.161 219.667 237.829 220.733C239.03 221.133 240.764 219.267 242.498 215.533C245.832 208.6 245.299 208.2 239.963 213.533Z" fill="black"/>
<path d="M311.059 214.6L302.522 216.6L298.654 225.267C296.52 230.067 294.786 234.2 294.786 234.6C294.786 235 297.587 233.667 301.188 231.667C307.324 228.067 321.463 215.4 321.463 213.4C321.463 212.2 321.73 212.067 311.059 214.6Z" fill="black"/>
<path d="M498.868 212.867C498.868 213.267 502.603 215.933 512.873 222.467L516.875 225L513.14 220.067C511.006 217.4 507.538 214.6 505.27 213.8C501.002 212.333 498.868 211.933 498.868 212.867Z" fill="black"/>
<path d="M568.229 219.933V226.733L574.498 228.067C577.966 228.867 581.034 229.267 581.301 229C582.101 228.2 577.033 221.533 572.364 217.133L568.229 213.133V219.933Z" fill="black"/>
<path d="M515.808 218.2C519.009 223.667 528.346 233 533.949 236.467C537.55 238.6 540.618 240.333 540.885 240.067C541.018 239.8 539.684 235.8 537.95 231L534.749 222.333L524.878 219.533C519.143 217.933 515.274 217.4 515.808 218.2Z" fill="black"/>
<path d="M284.381 220.2C277.845 221.533 272.777 223.267 272.11 224.333C271.576 225.4 270.642 231.667 270.109 238.2L269.175 249.933L277.712 245.133C282.247 242.467 286.782 239.8 287.716 239.267C290.25 237.8 298.92 217.667 297.053 217.8C296.253 217.933 290.384 219 284.381 220.2Z" fill="black"/>
<path d="M592.772 219.667C593.439 221.133 594.506 223.933 595.173 225.933C595.84 228.067 597.307 229.667 598.375 229.667C601.709 229.667 600.375 225 595.974 220.867C592.772 217.8 592.105 217.533 592.772 219.667Z" fill="black"/>
<path d="M259.038 224.2C255.17 224.733 251.568 225.667 251.035 226.467C250.501 227.267 246.9 232.867 242.898 238.867L235.695 249.667L237.429 256.067C238.363 259.533 239.563 262.867 240.097 263.4C240.63 264.067 246.499 261.8 253.169 258.467C266.641 251.667 266.107 252.733 267.441 233.933C267.975 227.933 267.841 223.133 267.174 223.133C266.641 223.267 262.906 223.8 259.038 224.2Z" fill="black"/>
<path d="M538.884 224.2C538.884 224.6 540.618 229.533 542.885 235C546.487 243.8 547.687 245.533 553.29 248.867C556.758 251.133 560.893 253.667 562.627 254.733L565.561 256.6V243.267V229.933L552.222 226.6C544.886 224.867 538.884 223.667 538.884 224.2Z" fill="black"/>
<path d="M241.697 230.067C239.03 232.867 234.094 242.867 235.028 243.667C235.295 243.933 237.963 240.2 241.164 235.533C246.766 227 247.033 224.333 241.697 230.067Z" fill="black"/>
<path d="M568.629 239C569.163 243.667 569.563 249.933 569.563 253.133C569.563 259.533 569.563 259.533 587.17 269.4L594.64 273.667L597.174 266.067L599.842 258.333L591.972 245.4C585.836 235.267 583.435 232.333 581.168 232.333C579.567 232.333 575.832 231.933 573.031 231.4L567.829 230.6L568.629 239Z" fill="black"/>
<path d="M589.705 234.6C590.905 237.4 600.776 253.533 601.176 253.133C602.376 251.933 597.841 243 593.84 238.467C591.305 235.667 589.438 233.8 589.705 234.6Z" fill="black"/>
<path d="M221.422 240.6C217.421 247.267 218.088 249.533 222.756 245C226.891 241 227.692 238.467 225.424 237C224.757 236.6 222.89 238.2 221.422 240.6Z" fill="black"/>
<path d="M295.853 238.467C292.518 240.2 287.182 247.8 288.383 249.133C288.783 249.4 291.584 247 294.785 243.667C301.188 237.133 301.455 235.533 295.853 238.467Z" fill="black"/>
<path d="M539.151 247.133C541.552 250.2 544.62 253.933 545.82 255.533C548.755 259 548.755 258.067 546.22 251.933C544.486 247.8 538.084 241.667 535.549 241.667C535.016 241.667 536.616 244.067 539.151 247.133Z" fill="black"/>
<path d="M222.356 249.933C218.355 254.733 216.087 258.733 215.42 262.333C215.02 265.267 214.22 269.267 213.953 271.267C213.553 273.4 213.82 275 214.486 275C217.955 275 232.227 245.4 229.559 243.667C228.892 243.267 225.558 246.2 222.356 249.933Z" fill="black"/>
<path d="M277.445 249C273.443 251.533 269.709 253.667 269.308 253.933C268.775 254.2 267.975 258.867 267.441 264.333L266.507 274.333L271.976 268.333C277.312 262.6 287.849 244.2 285.848 244.467C285.182 244.467 281.447 246.6 277.445 249Z" fill="black"/>
<path d="M608.912 247C608.379 247.8 609.846 250.467 612.114 253.133C616.649 258.2 617.716 256.333 614.248 249.667C612.114 245.533 610.379 244.733 608.912 247Z" fill="black"/>
<path d="M549.555 251.533C549.555 254.467 558.225 270.2 562.894 275.667L568.629 282.333L567.696 275.8C567.295 272.2 566.895 267.4 566.895 265.133C566.762 261.533 565.828 260.333 559.159 256.333C550.355 250.867 549.555 250.467 549.555 251.533Z" fill="black"/>
<path d="M605.578 254.067C605.578 259.933 616.782 284.333 619.45 284.333C621.051 284.333 619.183 267.133 617.182 264.333C614.515 260.6 607.045 252.333 606.245 252.333C605.844 252.333 605.578 253.133 605.578 254.067Z" fill="black"/>
<path d="M228.225 262.067C225.824 267.133 224.09 271.4 224.357 271.667C224.49 271.8 227.291 270.867 230.493 269.533C236.629 266.867 237.429 264.333 234.228 257L232.494 253L228.225 262.067Z" fill="black"/>
<path d="M252.502 262.467C245.299 266.467 241.431 269.4 241.431 270.733C241.564 272.067 242.631 277.933 243.832 284.067L246.099 295.133L253.969 287.133L261.972 279.133L263.44 267.667C264.373 261.4 264.64 256.333 264.24 256.467C263.84 256.467 258.504 259.267 252.502 262.467Z" fill="black"/>
<path d="M208.217 267.667C204.749 273.533 204.616 276.733 207.817 276.067C209.418 275.8 210.351 273.933 210.885 269.667C211.418 266.333 211.552 263.533 211.418 263.267C211.285 263 209.818 265 208.217 267.667Z" fill="black"/>
<path d="M601.176 264.333C597.441 275.933 597.174 274.733 603.043 277.8C606.111 279.267 608.779 280.2 609.179 279.8C610.113 278.867 606.244 268.333 603.71 264.867C602.109 262.733 601.709 262.733 601.176 264.333Z" fill="black"/>
<path d="M570.897 269.4C570.897 282.733 572.231 286.6 579.967 295.133L587.304 303.267L590.371 290.733C592.106 283.933 593.439 277.933 593.573 277.4C593.573 276.733 576.633 266.6 571.964 264.6C571.297 264.333 570.897 266.467 570.897 269.4Z" fill="black"/>
<path d="M229.426 273.533L222.09 277L217.821 290.733L213.686 304.467L217.688 311.133C219.955 314.733 222.223 317.667 222.623 317.667C223.157 317.667 227.825 313.267 233.294 307.8L243.031 298.067L240.764 285.533C239.43 278.6 238.096 272.333 237.563 271.533C237.029 270.467 234.495 271.133 229.426 273.533Z" fill="black"/>
<path d="M268.908 276.067C266.908 278.333 265.04 282.067 264.507 285.133C264.106 287.933 264.106 290.067 264.373 289.667C265.44 288.733 273.577 272.333 273.043 272.333C272.777 272.333 270.909 274.067 268.908 276.067Z" fill="black"/>
<path d="M623.451 276.6C623.851 278.333 624.252 281 624.252 282.6C624.252 284.467 625.052 285.667 626.252 285.667C628.787 285.667 628.787 282.6 626.252 277.667C623.851 273 622.251 272.467 623.451 276.6Z" fill="black"/>
<path d="M215.153 282.733C213.553 285.4 211.952 290.6 211.552 294.333C210.752 300.6 211.018 300.333 214.753 289.8C216.888 283.533 218.488 278.333 218.355 278.067C218.088 277.933 216.621 279.933 215.153 282.733Z" fill="black"/>
<path d="M593.172 292.6L589.971 306.333L599.442 316.467C604.644 322.067 609.179 326.733 609.579 326.733C609.979 326.867 612.247 324.067 614.648 320.467L619.05 313.933L615.315 299.8L611.58 285.533L604.377 282.333C600.509 280.467 597.041 279 596.907 279C596.641 279 595.04 285.133 593.172 292.6Z" fill="black"/>
<path d="M562.76 283C563.427 284.867 565.161 289 566.628 292.333L569.429 298.333V293.4C569.563 289.533 568.629 287.267 565.561 284.067C561.826 280.067 561.693 279.933 562.76 283Z" fill="black"/>
<path d="M252.902 292.867L246.766 300.2L248.233 309.8L249.834 319.4L253.836 311.533C257.704 304.067 262.106 285.667 260.105 285.667C259.571 285.667 256.37 288.867 252.902 292.867Z" fill="black"/>
<path d="M616.248 290.6C616.382 291.267 617.449 295.533 618.916 300.333L621.45 309V303.267C621.584 300.067 620.65 295.8 619.583 293.667C617.582 289.8 616.248 288.6 616.248 290.6Z" fill="black"/>
<path d="M573.698 301.667C574.365 307.533 576.232 314.333 578.633 319.4L582.368 327.667L584.369 317.533L586.37 307.4L579.567 299.667L572.764 291.933L573.698 301.667Z" fill="black"/>
<path d="M198.347 295.933C197.813 296.333 197.413 299.267 197.413 302.2L197.546 307.667L200.214 302.6C202.615 297.933 202.615 295 200.214 295C199.68 295 198.747 295.4 198.347 295.933Z" fill="black"/>
<path d="M201.681 308.2C197.279 316.467 197.146 317.133 198.346 325.533C198.88 330.333 200.08 334.2 200.747 333.933C203.282 333.133 206.75 317.267 206.483 308.333L206.083 299.667L201.681 308.2Z" fill="black"/>
<path d="M233.561 311.933L223.69 321L230.093 332.733C233.561 339.133 236.629 344.333 236.896 344.333C237.162 344.333 239.563 340.067 242.231 334.867C246.633 325.933 246.9 324.733 246.099 317.4C244.232 301.4 244.765 301.667 233.561 311.933Z" fill="black"/>
<path d="M630.521 306.6C630.121 307.267 631.321 310.333 633.055 313.667C635.99 319.533 636.123 319.533 636.123 315.667C636.257 309.8 634.923 305.667 632.788 305.667C631.855 305.667 630.788 306.067 630.521 306.6Z" fill="black"/>
<path d="M210.752 314.467C209.951 317.267 209.418 321.667 209.685 324.067L210.085 328.467L214.62 324.6C219.555 320.6 219.555 318.467 214.887 312.467L212.352 309.133L210.752 314.467Z" fill="black"/>
<path d="M626.519 310.6C623.718 313.267 627.853 345.667 630.921 345.667C631.454 345.667 632.522 341.4 633.455 336.333C634.923 327.4 634.789 326.6 631.454 318.6C627.453 309.133 627.586 309.4 626.519 310.6Z" fill="black"/>
<path d="M588.904 312.6C588.637 313.533 587.57 318.6 586.503 323.667L584.769 333L589.571 343.667L594.373 354.2L600.775 342.733C604.377 336.333 607.178 330.733 606.911 330.067C606.111 327.267 589.437 311.133 588.904 312.6Z" fill="black"/>
<path d="M252.769 321.533C251.035 325.667 250.768 327.933 251.702 331.933L252.902 337L254.503 327.133C255.436 321.8 255.97 317.133 255.703 316.867C255.436 316.467 254.103 318.6 252.769 321.533Z" fill="black"/>
<path d="M615.848 324.067L612.38 329.267L617.849 334.467L623.184 339.667L622.518 331.4C622.117 327 621.317 322.2 620.65 321C619.583 319.133 618.916 319.667 615.848 324.067Z" fill="black"/>
<path d="M193.011 327C191.41 332.867 191.944 337.667 194.078 337.667C196.212 337.667 196.612 333 194.878 327L193.945 323.667L193.011 327Z" fill="black"/>
<path d="M214.22 329.133L208.884 333.667L208.484 348.733L207.95 363.667L213.953 368.733L219.955 373.8L221.956 370.733C223.023 369 226.224 363.533 229.159 358.467L234.494 349.267L228.359 336.733C224.891 329.933 221.556 324.333 220.756 324.333C220.089 324.467 217.021 326.467 214.22 329.133Z" fill="black"/>
<path d="M576.766 329C577.166 331.933 577.566 335.933 577.566 337.933C577.566 343.133 579.834 342.6 580.634 337.267C581.034 334.467 580.367 331.4 578.633 328.333L576.099 323.667L576.766 329Z" fill="black"/>
<path d="M242.764 340.333L238.496 348.733L242.098 357.133C244.098 361.8 246.233 365.667 246.766 365.667C249.834 365.667 250.634 335.8 247.566 332.733C247.3 332.333 245.032 335.8 242.764 340.333Z" fill="black"/>
<path d="M602.91 345.533L596.107 357.533L601.709 368.6C609.446 384.067 608.912 383.8 615.581 378.333L621.184 373.667L622.251 358.733L623.185 343.8L617.315 338.733C614.248 336.067 611.18 333.667 610.646 333.667C610.246 333.667 606.645 339 602.91 345.533Z" fill="black"/>
<path d="M203.282 342.067C202.215 346.733 202.215 350.067 203.282 354.733L204.749 361L205.149 354.6C205.416 351.133 205.416 345.533 205.149 341.933L204.749 335.667L203.282 342.067Z" fill="black"/>
<path d="M636.256 338.2C636.256 339.133 635.856 341.933 635.456 344.2C634.789 347.4 635.056 348.333 636.657 348.333C639.724 348.333 640.258 346.733 639.324 341.267C638.657 336.6 636.256 334.333 636.256 338.2Z" fill="black"/>
<path d="M581.834 348.067C580.234 357.533 580.901 371.8 583.035 373.133C583.702 373.4 585.969 370.067 588.237 365.533L592.372 357.4L587.837 347.933L583.435 338.333L581.834 348.067Z" fill="black"/>
<path d="M625.852 357C625.852 367.8 625.986 368.467 627.186 363.4C628.119 359.667 628.119 355.8 627.186 351.4C625.986 345.267 625.852 345.533 625.852 357Z" fill="black"/>
<path d="M229.025 365.267L222.49 376.733L231.56 385.8C236.495 390.733 241.03 394.6 241.43 394.333C241.964 394.067 243.165 389.267 244.098 383.667L245.832 373.667L241.43 363.667C239.03 358.2 236.762 353.667 236.228 353.667C235.828 353.667 232.494 358.867 229.025 365.267Z" fill="black"/>
<path d="M191.41 359.133C190.877 359.8 191.01 362.867 191.41 365.933C192.477 371.8 193.811 371 195.145 363.4C195.679 360.467 195.412 359 194.078 358.467C193.011 358.067 191.81 358.333 191.41 359.133Z" fill="black"/>
<path d="M198.347 364.6C195.679 375.933 195.812 380.067 199.414 388.2C201.414 392.6 203.682 395.933 204.482 395.4C207.017 393.8 202.882 361.667 200.081 361.667C199.547 361.667 198.747 363 198.347 364.6Z" fill="black"/>
<path d="M588.904 371.133C584.102 380.333 583.969 381 584.902 389.933C586.37 405.667 586.236 405.667 597.174 394.733L606.778 385L600.375 373.267L593.973 361.533L588.904 371.133Z" fill="black"/>
<path d="M250.234 368.067C249.567 372.333 249.968 374.867 251.968 378.733L254.636 383.667L253.836 375.667C252.635 363.933 251.435 361.133 250.234 368.067Z" fill="black"/>
<path d="M208.484 376.2C209.418 387.267 210.751 388.333 215.153 381.933L218.621 376.6L215.687 374.067C207.417 366.867 207.55 366.867 208.484 376.2Z" fill="black"/>
<path d="M634.923 373.267C634.923 379.8 636.923 383.133 637.991 378.733C639.591 373.133 639.058 368.333 636.923 368.333C635.456 368.333 634.923 369.8 634.923 373.267Z" fill="black"/>
<path d="M577.166 375C576.632 378.333 575.832 383.133 575.432 385.667L574.765 390.333L577.433 385.533C579.567 381.533 579.967 379.533 579.167 374.867L578.1 369L577.166 375Z" fill="black"/>
<path d="M629.187 371.933C626.252 376.733 621.984 404.867 623.985 406.2C624.652 406.6 627.053 403 629.454 398.333C633.455 390.067 633.589 389.267 632.388 380.867C631.054 371.933 630.387 369.933 629.187 371.933Z" fill="black"/>
<path d="M615.982 382.067L611.046 386.333L614.648 392.333L618.116 398.2L619.85 392.333C620.917 389 621.451 384.467 621.317 382.067L620.917 377.8L615.982 382.067Z" fill="black"/>
<path d="M216.221 385.933L211.819 392.733L215.42 407L219.155 421.267L226.225 424.733C230.093 426.733 233.561 427.8 233.828 427.267C234.228 426.733 235.829 420.6 237.429 413.4L240.63 400.6L233.828 392.733C230.093 388.467 225.558 383.667 223.957 382.067L220.756 379.133L216.221 385.933Z" fill="black"/>
<path d="M246.766 386.467C245.966 390.733 245.032 395.533 244.632 397C244.365 398.867 246.366 401.933 251.034 407L257.837 414.333L257.17 405.533C256.77 400.067 255.036 393.533 252.368 387.667L248.367 378.6L246.766 386.467Z" fill="black"/>
<path d="M194.745 392.333C194.745 399.533 196.479 403.133 198.88 400.733C200.081 399.533 199.814 397.667 197.68 392.733L194.879 386.333L194.745 392.333Z" fill="black"/>
<path d="M576.499 395.933C572.897 403.533 568.629 419.933 569.963 421.267C570.23 421.4 573.431 418.467 577.299 414.6L584.102 407.667L582.501 397.267L580.901 386.733L576.499 395.933Z" fill="black"/>
<path d="M597.441 398.733L587.704 407.933L589.971 421.133C591.305 428.333 592.772 434.733 593.306 435.267C593.973 435.933 597.441 435 601.042 433.533L607.845 430.6L612.38 416.733L616.782 402.867L613.314 396.6C611.447 393.133 609.179 390.2 608.379 389.933C607.712 389.667 602.776 393.667 597.441 398.733Z" fill="black"/>
<path d="M630.254 404.333C627.72 409.933 628.12 411.8 631.588 410.6C632.922 410.067 633.589 407.933 633.589 404.333C633.589 401.4 633.322 399 633.189 399C632.922 399 631.588 401.4 630.254 404.333Z" fill="black"/>
<path d="M209.551 405C209.418 408.333 210.485 411.8 212.086 414.333L214.887 418.333L213.953 414.333C213.419 412.067 212.219 407.933 211.285 405L209.685 399.667L209.551 405Z" fill="black"/>
<path d="M240.363 415.267C238.763 422.067 237.429 428.333 237.429 429.133C237.429 429.933 239.43 431.533 241.831 432.733C244.098 433.8 249.3 436.733 253.302 439L260.505 443.267L259.571 432.067C258.504 420.333 257.971 419.267 249.034 409.267L243.298 402.867L240.363 415.267Z" fill="black"/>
<path d="M616.382 414.867C614.781 420.067 613.181 425.267 612.78 426.6C612.38 427.933 613.447 426.733 615.315 423.933C618.249 419.4 621.184 407.4 619.717 406.067C619.45 405.8 617.983 409.8 616.382 414.867Z" fill="black"/>
<path d="M261.572 413.667C261.439 417.133 262.506 419.667 265.44 423C269.842 428.2 269.709 427 264.373 415L261.572 409V413.667Z" fill="black"/>
<path d="M575.965 419.933C569.296 426.867 568.496 428.333 567.695 435C567.162 439 566.495 444.333 566.095 446.6L565.294 451L577.032 444.733C583.568 441.4 589.171 438.467 589.304 438.2C590.104 437.667 585.036 412.333 584.235 412.333C583.835 412.333 580.1 415.8 575.965 419.933Z" fill="black"/>
<path d="M561.693 425.4L557.291 434.333L561.293 430.6C564.761 427.267 568.096 418.467 566.628 416.867C566.362 416.6 564.094 420.467 561.693 425.4Z" fill="black"/>
<path d="M202.215 421.4C201.548 422.467 206.483 434.467 207.15 433.533C207.417 433.267 207.417 430.2 207.017 426.6C206.617 422.6 205.816 420.333 204.749 420.333C203.682 420.333 202.615 420.867 202.215 421.4Z" fill="black"/>
<path d="M211.018 431.267C212.085 439.533 212.886 441.533 217.554 447.267C222.623 453.267 225.424 455.133 225.424 452.6C225.424 447.4 213.286 421.667 210.885 421.667C210.351 421.667 210.351 425.933 211.018 431.267Z" fill="black"/>
<path d="M221.423 428.067C221.423 429.4 223.023 433.667 225.024 437.667L228.626 444.867L230.226 440.2C232.894 432.733 232.494 431.267 226.758 428.333C221.689 425.8 221.423 425.8 221.423 428.067Z" fill="black"/>
<path d="M263.439 435C263.839 440.467 264.506 445.267 264.907 445.8C265.707 447.133 281.447 456.333 281.447 455.533C281.447 452.733 271.309 434.6 267.308 430.333L262.506 425L263.439 435Z" fill="black"/>
<path d="M610.379 439C605.177 447.267 599.708 461.533 601.042 462.867C601.442 463.267 604.777 460.6 608.245 456.733C613.714 450.867 614.781 448.733 615.581 442.733C615.982 438.867 616.782 434.6 617.049 433.267C618.516 428.467 615.048 431.267 610.379 439Z" fill="black"/>
<path d="M619.85 436.6C619.45 439.8 619.316 442.467 619.583 442.733C620.117 443.267 625.586 433.133 625.586 431.667C625.586 431.267 624.518 431 623.051 431C621.184 431 620.383 432.333 619.85 436.6Z" fill="black"/>
<path d="M235.428 435.267C235.161 436.2 233.961 439.533 232.894 442.733L230.893 448.467L238.496 461C245.299 472.333 246.499 473.667 250.768 474.333C253.302 474.867 257.037 475.533 259.038 475.8C262.506 476.467 262.639 476.333 262.106 471.4C261.972 468.6 261.705 462.067 261.572 457L261.439 447.667L249.834 441C235.695 432.867 236.229 433 235.428 435.267Z" fill="black"/>
<path d="M557.958 439.4C553.556 443.933 544.219 459.4 544.219 462.2C544.219 463.133 560.626 453.4 561.693 451.933C562.627 450.6 564.494 434.867 563.827 434.2C563.56 433.933 560.893 436.2 557.958 439.4Z" fill="black"/>
<path d="M599.442 437.533L593.839 440.067L595.307 446.2C596.107 449.533 597.174 452.333 597.708 452.333C599.041 452.333 605.978 438.067 605.311 436.467C605.044 435.667 602.643 436.2 599.442 437.533Z" fill="black"/>
<path d="M577.966 448.067C564.227 454.867 564.894 454.067 563.427 471.267L562.493 483H565.694C576.899 483 578.366 481.933 586.903 469L595.04 456.6L592.905 449.133C591.705 445 590.638 441.667 590.504 441.8C590.371 441.8 584.769 444.6 577.966 448.067Z" fill="black"/>
<path d="M213.419 448.6C213.286 451.4 217.954 460.333 219.422 460.333C222.89 460.333 222.49 458.2 218.088 453C215.553 450.067 213.553 448.067 213.419 448.6Z" fill="black"/>
<path d="M264.507 453.667C265.04 456.067 265.44 462.333 265.44 467.533V477.133L278.379 480.067C285.448 481.667 291.451 482.867 291.584 482.6C291.718 482.467 290.117 477.667 287.983 472.067C283.848 461.4 283.314 460.867 265.574 450.333C264.106 449.4 263.84 450.067 264.507 453.667Z" fill="black"/>
<path d="M282.914 450.333C282.914 453.8 287.849 460.867 292.118 463.4L296.786 466.333L293.852 462.333C289.05 455.667 282.914 448.867 282.914 450.333Z" fill="black"/>
<path d="M230.226 456.6C232.227 463.4 233.294 465.133 237.562 469C241.564 472.733 241.831 472.733 239.963 469.667C238.763 467.8 236.228 463.533 234.228 459.933C230.226 453.133 228.759 451.933 230.226 456.6Z" fill="black"/>
<path d="M537.417 461.4C534.882 464.067 531.814 467.533 530.747 469C529.013 471.4 529.147 471.4 533.548 468.733C537.95 466.067 543.953 458.2 542.619 457C542.352 456.6 539.951 458.6 537.417 461.4Z" fill="black"/>
<path d="M550.622 462.733C542.085 467.4 541.418 468.2 537.416 477C535.149 482.067 533.015 487 532.615 487.8C532.348 488.6 537.15 488.2 545.42 486.6L558.625 484.067L559.559 475.8C559.959 471.4 560.626 465.4 561.026 462.6C561.426 459.933 561.293 457.667 560.626 457.667C560.092 457.667 555.557 459.933 550.622 462.733Z" fill="black"/>
<path d="M607.045 462.733C603.176 467.8 602.91 469.667 606.378 469.667C607.978 469.667 612.914 459.133 611.847 458.067C611.446 457.8 609.312 459.933 607.045 462.733Z" fill="black"/>
<path d="M591.438 468.067C589.171 471.533 586.236 476.067 584.903 478.333L582.368 482.333L586.77 478.333C590.772 474.867 597.174 463.533 595.974 462.333C595.707 462.067 593.706 464.733 591.438 468.067Z" fill="black"/>
<path d="M289.45 466.2C289.45 467.933 295.452 482.6 296.653 483.8C298.254 485.4 314.794 490.067 315.727 489.267C316.661 488.2 298.387 470.467 293.852 467.933C291.451 466.6 289.45 465.8 289.45 466.2Z" fill="black"/>
<path d="M528.88 475.267C521.543 479.667 514.741 485.8 510.872 491.133L508.338 494.6L517.942 492.333L527.546 490.2L531.948 481.133C534.349 476.067 536.083 471.8 535.949 471.533C535.682 471.4 532.481 473 528.88 475.267Z" fill="black"/>
<path d="M230.893 477.533C229.426 478.467 229.559 479.4 231.827 482.6C234.761 486.733 238.763 490.6 238.763 489.267C238.763 488.2 233.561 476.333 233.161 476.333C232.894 476.333 231.96 476.867 230.893 477.533Z" fill="black"/>
<path d="M237.429 477C237.429 477.4 239.163 481.533 241.297 486.2C244.498 493.4 246.366 495.667 252.635 499.8C256.77 502.467 260.505 504.333 261.038 503.933C262.239 502.6 255.169 492.6 246.899 483.933C240.23 477.133 237.429 475 237.429 477Z" fill="black"/>
<path d="M251.301 481.133C255.036 486.867 260.372 492.333 261.706 491.533C263.173 490.6 263.173 480.733 261.706 479.8C261.039 479.4 257.837 478.733 254.636 478.2L248.9 477.267L251.301 481.133Z" fill="black"/>
<path d="M265.44 488.6V497L276.245 506.733L287.049 516.467L294.652 515.533C298.787 515.133 302.388 514.467 302.655 514.2C303.722 513.267 294.118 488.067 292.251 487.133C291.051 486.467 285.582 485 280.113 483.667C274.644 482.467 269.042 481.133 267.841 480.733C265.707 480.2 265.44 481.133 265.44 488.6Z" fill="black"/>
<path d="M318.262 487.267C320.263 489.8 324.131 492.333 326.932 493.133C329.866 494.067 332.134 494.467 332.134 494.2C332.134 493.533 316.394 483 315.461 483C314.927 483 316.261 485 318.262 487.267Z" fill="black"/>
<path d="M578.1 490.733C567.829 500.2 560.226 511 563.694 511C564.094 511 567.695 509.133 571.564 506.867C577.299 503.267 579.3 501.133 582.768 494.067C588.771 481.8 588.237 481.4 578.1 490.733Z" fill="black"/>
<path d="M563.961 487.133C562.227 488.067 561.56 490.2 561.56 494.467V500.467L565.962 497.133C568.229 495.4 571.297 492.067 572.631 489.8L575.032 485.667H570.63C568.229 485.667 565.161 486.333 563.961 487.133Z" fill="black"/>
<path d="M588.237 491.133C586.636 494.2 585.703 496.867 585.97 497.133C587.037 498.2 595.04 488.2 594.24 486.867C592.639 484.467 590.905 485.667 588.237 491.133Z" fill="black"/>
<path d="M501.135 491.8C492.865 497 492.198 498.467 498.734 497C501.002 496.467 504.203 494.2 506.204 491.533C508.072 489 509.539 487 509.272 487C509.005 487 505.404 489.267 501.135 491.8Z" fill="black"/>
<path d="M544.353 490.2L530.347 493L525.278 505.533C522.477 512.467 520.21 518.6 520.21 519.133C520.21 519.667 523.811 520.467 528.213 521L536.216 521.933L545.687 514.2C550.889 509.8 555.957 505.667 557.025 504.867C558.492 503.667 558.892 501.133 558.625 495.4L558.225 487.4L544.353 490.2Z" fill="black"/>
<path d="M301.855 501L306.123 513.667H319.862C327.332 513.667 333.468 513.267 333.468 512.6C333.468 512.067 330.267 507.8 326.398 503.133C319.329 494.333 317.461 493.267 301.055 489.133L297.587 488.333L301.855 501Z" fill="black"/>
<path d="M514.207 496.6C503.936 499.133 503.269 499.533 496.6 507.4C488.597 517.133 488.597 517.133 505.404 517.8L516.608 518.333L521.543 505.933C524.211 499.267 526.079 493.667 525.678 493.8C525.278 493.8 520.076 495.133 514.207 496.6Z" fill="black"/>
<path d="M331.6 504.333L337.87 512.333H347.607C353.076 512.333 357.477 512.067 357.477 511.933C357.477 510.067 341.471 501 334.535 498.867C329.866 497.533 325.998 496.333 325.731 496.333C325.465 496.333 328.132 499.933 331.6 504.333Z" fill="black"/>
<path d="M487.53 502.867C483.128 504.2 476.325 507.4 472.324 509.8L465.121 514.333L470.323 515.267C482.461 517.4 484.729 516.867 490.464 509.933C499.535 499.133 499.668 499.267 487.53 502.867Z" fill="black"/>
<path d="M249.434 502.6C249.434 503.267 251.168 505.8 253.169 508.2C256.37 512.067 257.037 512.333 258.504 510.6C259.971 508.867 259.571 508.2 256.503 506.067C250.768 502.067 249.434 501.4 249.434 502.6Z" fill="black"/>
<path d="M267.574 505.533C268.908 507.933 271.576 511 273.443 512.333C277.445 515.133 282.781 517.933 282.781 517.267C282.781 517 278.779 513.267 273.844 508.867C265.974 501.933 265.173 501.533 267.574 505.533Z" fill="black"/>
<path d="M359.478 508.867C362.546 511.4 364.947 512.2 369.482 512.2H375.485L368.815 509.8C365.214 508.467 360.679 507 358.811 506.467C355.61 505.533 355.61 505.533 359.478 508.867Z" fill="black"/>
<path d="M456.451 510.867C445.913 513.933 444.846 515 452.316 515C456.184 514.867 460.052 513.8 463.52 511.667C469.789 507.8 468.055 507.667 456.451 510.867Z" fill="black"/>
<path d="M548.888 515.667C539.284 523.533 538.884 524.467 546.62 520.467C550.622 518.333 560.493 508.333 558.492 508.333C558.092 508.333 553.823 511.667 548.888 515.667Z" fill="black"/>
<path d="M568.096 512.733C565.428 514.333 563.561 516.467 563.827 517.267C564.894 520.333 567.829 519.133 571.43 514.333C575.565 508.867 574.765 508.467 568.096 512.733Z" fill="black"/>
<path d="M310.525 517.267C307.724 517.933 307.724 517.8 309.858 526.333L311.592 533L324.798 539.4L338.003 545.8L345.072 542.867C353.476 539.533 353.476 539.8 343.739 526.067L336.802 516.333L324.798 516.467C318.262 516.6 311.726 516.867 310.525 517.267Z" fill="black"/>
<path d="M341.471 517C341.471 517.4 344.139 521.4 347.473 525.933C350.941 530.467 354.143 535.133 354.81 536.2C355.877 538.067 357.211 537.933 367.081 534.467C383.221 528.867 382.821 529.533 373.084 522.6L364.28 516.333H352.942C346.673 516.333 341.471 516.6 341.471 517Z" fill="black"/>
<path d="M370.816 516.867C370.816 517.133 374.284 519.667 378.553 522.6L386.156 527.933L396.026 525L406.03 522.067L397.494 519.267C390.291 516.733 370.816 515 370.816 516.867Z" fill="black"/>
<path d="M406.03 518.467C410.032 519.933 412.433 520.067 416.301 519C419.236 518.2 421.503 517.267 421.503 517C421.503 516.6 416.835 516.333 411.233 516.467H400.828L406.03 518.467Z" fill="black"/>
<path d="M294.785 518.867L290.117 519.667L294.785 523.133C300.788 527.667 305.456 530.067 306.39 529.133C306.924 528.733 306.524 525.933 305.59 523C303.989 517.4 303.589 517.267 294.785 518.867Z" fill="black"/>
<path d="M423.657 520.543L423.657 520.543L423.648 520.545L418.306 522.147L421.429 523.472C423.668 524.393 428.305 525.851 431.506 526.784C434.393 527.522 435.795 527.843 437.496 527.384C439.25 526.91 441.339 525.602 445.503 522.85C445.503 522.85 445.504 522.85 445.504 522.849L452.503 518.185L442.188 518.3C442.188 518.3 442.187 518.3 442.186 518.3C435.529 518.433 427.32 519.366 423.657 520.543Z" fill="black" stroke="black"/>
<path d="M449.515 524.333L439.911 530.6L452.716 535.667C460.319 538.733 466.055 540.333 466.588 539.533C471.39 533.933 481.794 520.067 481.394 519.8C481.127 519.533 476.059 519 470.056 518.733L459.252 518.067L449.515 524.333Z" fill="black"/>
<path d="M477.792 530.467C473.257 536.333 469.522 541.4 469.522 541.8C469.522 542.333 472.59 544.2 476.325 546.067L483.128 549.4L496.6 543.8L510.072 538.067L512.606 530.467C513.94 526.333 514.874 522.6 514.741 522.333C514.474 522.067 507.805 521.4 500.068 521L485.929 519.933L477.792 530.467Z" fill="black"/>
<path d="M281.447 524.333C285.048 531.133 292.918 537.4 300.655 539.533C304.923 540.867 308.791 541.4 309.192 541C310.525 539.8 298.921 530.2 290.651 525.8C281.58 520.867 279.446 520.6 281.447 524.333Z" fill="black"/>
<path d="M274.377 523.933C272.243 525.933 273.844 528.467 278.912 531.133L284.515 533.933L281.714 529.933C278.112 525 275.444 522.733 274.377 523.933Z" fill="black"/>
<path d="M517.809 525.8C515.274 532.467 514.741 535 515.808 535C516.341 535 520.076 533.133 523.945 531C530.614 527.133 532.748 524.333 529.013 524.333C528.08 524.333 525.412 523.933 523.011 523.533C519.543 522.867 518.742 523.133 517.809 525.8Z" fill="black"/>
<path d="M398.294 527.533L389.224 530.333L397.627 537C402.162 540.733 407.098 544.467 408.431 545.4C410.566 547 412.166 546.2 421.637 539.533C433.642 531.133 433.775 531.4 420.57 526.867C411.499 523.8 410.032 523.8 398.294 527.533Z" fill="black"/>
<path d="M530.881 531.667C521.544 536.733 511.006 544.867 512.34 546.2C512.74 546.6 517.008 545.933 521.677 544.6C528.88 542.6 531.414 541.133 536.35 535.8C545.953 525.267 544.62 524.333 530.881 531.667Z" fill="black"/>
<path d="M542.485 533.933C540.618 536.333 539.284 538.467 539.551 538.733C540.618 539.8 548.888 534.2 548.888 532.333C548.888 528.867 545.82 529.533 542.485 533.933Z" fill="black"/>
<path d="M370.949 536.467C364.814 538.6 359.478 540.6 359.211 540.867C358.678 541.267 363.48 550.733 366.281 554.733C366.414 554.867 372.95 556.2 380.953 557.533L395.493 559.933L401.228 555.267C404.296 552.733 406.831 550.2 406.831 549.533C406.831 547.8 386.422 532.333 384.155 532.467C383.088 532.467 377.085 534.333 370.949 536.467Z" fill="black"/>
<path d="M414.89 549.443C414.89 549.443 414.89 549.444 414.89 549.447C414.89 549.444 414.89 549.443 414.89 549.443Z" fill="black" stroke="#DEDEDE"/>
<path d="M317.195 541.533C320.929 544.733 331.867 549.133 333.068 547.933C333.201 547.667 328.799 545.267 323.064 542.6C312.926 537.667 312.793 537.667 317.195 541.533Z" fill="black"/>
<path d="M301.188 545.667C305.857 549.933 309.458 550.867 309.458 547.8C309.458 546.733 306.657 545 303.189 543.8L296.786 541.667L301.188 545.667Z" fill="black"/>
<path d="M499.001 546.067C493.532 548.467 490.064 550.467 491.398 550.733C494.599 551.4 501.669 548.733 506.204 545C511.139 540.867 511.139 540.867 499.001 546.067Z" fill="black"/>
<path d="M347.473 545.533L342.138 547.933L347.207 550.067C350.008 551.267 354.41 552.6 357.077 553.133L361.879 554.067L358.811 548.467C355.21 542.2 354.81 542.2 347.473 545.533Z" fill="black"/>
<path d="M462.32 551C459.118 555.8 459.118 556.333 461.253 556.333C464.987 556.333 477.526 552.333 477.526 551.133C477.526 550.2 468.989 545.667 466.988 545.667C466.321 545.667 464.32 548.067 462.32 551Z" fill="black"/>
<path d="M517.942 548.733C513.674 549.667 512.207 550.733 512.207 552.467C512.207 555.533 512.607 555.533 517.409 553.133C520.343 551.533 525.945 546.6 524.078 547.133C523.811 547.267 521.01 547.933 517.942 548.733Z" fill="black"/>
<path d="M332.134 552.867C332.134 553.133 335.869 555.933 340.27 558.867C347.873 563.933 349.074 564.333 357.611 564.333C362.679 564.333 366.814 563.8 366.814 563.267C366.814 561.667 351.742 555.4 344.139 553.8C337.869 552.333 332.134 551.933 332.134 552.867Z" fill="black"/>
<path d="M405.63 555.8C403.363 557.667 401.762 559.8 402.295 560.467C402.696 561.133 406.964 561.667 411.899 561.667H420.703L416.168 557C413.633 554.467 411.232 552.333 410.699 552.333C410.165 552.333 407.898 553.933 405.63 555.8Z" fill="black"/>
<path d="M477.526 557C466.722 558.867 455.117 563 454.317 565.267C453.783 566.6 455.917 567 463.12 567C471.123 567 473.524 566.467 479.66 562.867C491.398 556.2 490.731 554.6 477.526 557Z" fill="black"/>
<path d="M327.732 557.267C325.998 559 326.798 560.067 330.933 561.533C338.136 564.067 339.87 563.267 335.469 559.667C331.334 556.333 329.333 555.667 327.732 557.267Z" fill="black"/>
<path d="M374.151 561.533C379.62 564.2 389.49 565.267 389.49 563.133C389.49 562.467 386.289 561.533 382.554 561.133C378.686 560.6 374.017 559.933 372.15 559.533C369.882 559.133 370.549 559.8 374.151 561.533Z" fill="black"/>
<path d="M485.396 563.133L479.527 567.133L484.195 566.333C492.065 564.867 493.532 564.2 493.532 562.333C493.532 558.867 491.398 559.133 485.396 563.133Z" fill="black"/>
<path d="M434.175 562.867L427.506 563.667L433.508 564.733C437.776 565.4 441.244 565.133 444.846 563.8L450.181 561.8L445.513 561.933C442.979 562.067 437.91 562.467 434.175 562.867Z" fill="black"/>
<path d="M394.826 566.867C391.091 568.067 391.224 568.2 402.829 572.067C406.831 573.533 410.832 574.467 411.499 574.2C426.172 570.2 428.439 569.4 427.239 568.2C425.505 566.467 399.227 565.4 394.826 566.867Z" fill="black"/>
<path d="M354.81 567.533C354.81 568.467 363.88 572.333 366.281 572.333C367.348 572.333 368.149 571.4 368.149 570.333C368.149 569.267 367.081 568.333 365.614 568.333C364.28 568.333 361.212 567.933 358.945 567.533C356.677 567 354.81 567 354.81 567.533Z" fill="black"/>
<path d="M452.182 572.333C452.182 575.4 452.316 575.533 458.985 573.533C465.254 571.533 464.454 569.667 457.384 569.667C453.116 569.667 452.182 570.067 452.182 572.333Z" fill="black"/>
<path d="M388.957 573.267C387.89 576.067 387.756 575.933 391.224 576.867C392.958 577.267 396.026 577.133 398.16 576.467L402.162 575.533L395.893 573.4C390.424 571.533 389.624 571.4 388.957 573.267Z" fill="black"/>
<path d="M423.771 574.2C417.768 576.067 418.569 577.667 425.505 577.667C430.974 577.667 432.308 576.867 431.241 574.2C430.44 572.067 430.574 572.067 423.771 574.2Z" fill="black"/>
<path d="M212.886 621.133C211.419 622.467 210.752 625.667 210.752 631.133C210.752 638.867 210.885 639 214.487 639C220.489 639 224.09 635.533 224.09 629.933C224.09 624.2 223.157 622.6 219.155 620.467C215.42 618.6 215.287 618.6 212.886 621.133Z" fill="black"/>
<path d="M522.611 631.933C520.476 632.467 520.21 634.333 520.21 647C520.21 660.467 520.343 661.533 523.011 662.333C529.814 664.6 538.217 659 539.684 651.267C541.952 639.533 532.881 629.4 522.611 631.933Z" fill="black"/>
<path d="M611.313 631.933C610.246 632.333 609.579 635.133 609.579 639.133C609.579 645 609.846 645.667 612.647 645.667C616.782 645.667 618.516 644.2 619.583 640.067C620.25 637.533 619.717 635.8 617.716 633.8C614.781 630.867 614.114 630.733 611.313 631.933Z" fill="black"/>
</svg>
