<svg width="54" height="54" viewBox="0 0 54 54" fill="none" xmlns="http://www.w3.org/2000/svg">
<path fill-rule="evenodd" clip-rule="evenodd" d="M50.06 22.916L53.188 23.518C53.66 23.608 54 24.021 54 24.5V30.5C54 30.993 53.64 31.413 53.151 31.487L49.869 31.992C48.015 32.277 46.461 33.473 45.711 35.193C44.961 36.912 45.141 38.865 46.193 40.418L47.979 43.056C48.248 43.453 48.197 43.985 47.858 44.324L43.616 48.566C43.268 48.914 42.717 48.959 42.318 48.666L40.434 47.285C38.888 46.15 36.908 45.915 35.137 46.645C33.366 47.378 32.135 48.947 31.843 50.843L31.488 53.152C31.414 53.64 30.994 54 30.5 54H24.5C24.021 54 23.608 53.66 23.518 53.189L22.916 50.061C22.562 48.219 21.308 46.711 19.562 46.026C17.817 45.338 15.872 45.594 14.36 46.703L11.681 48.667C11.282 48.96 10.732 48.915 10.383 48.567L6.141 44.325C5.802 43.986 5.751 43.453 6.02 43.057L7.806 40.419C8.858 38.866 9.038 36.913 8.288 35.193C7.539 33.474 5.984 32.278 4.131 31.993L0.848 31.488C0.36 31.413 0 30.993 0 30.5V24.5C0 24.021 0.34 23.608 0.81 23.519L3.938 22.917C5.78 22.563 7.288 21.309 7.974 19.564C8.659 17.818 8.406 15.873 7.297 14.361L5.333 11.682C5.042 11.283 5.084 10.732 5.433 10.383L9.676 6.141C10.015 5.802 10.547 5.752 10.944 6.02L14.35 8.328C15.868 9.356 17.787 9.553 19.481 8.849C21.176 8.148 22.394 6.653 22.741 4.852L23.518 0.812C23.608 0.34 24.021 0 24.5 0H30.5C30.994 0 31.413 0.36 31.488 0.847L31.993 4.129C32.278 5.982 33.475 7.537 35.194 8.287C36.913 9.036 38.866 8.857 40.418 7.805L43.056 6.019C43.453 5.75 43.985 5.801 44.324 6.14L48.566 10.382C48.915 10.731 48.958 11.283 48.666 11.68L46.702 14.359C45.592 15.872 45.339 17.817 46.025 19.562C46.709 21.309 48.218 22.562 50.06 22.916ZM49.565 30.017L52 29.642V25.326L49.685 24.882C47.165 24.398 45.102 22.683 44.165 20.295C43.227 17.907 43.573 15.246 45.09 13.178L46.547 11.192L43.495 8.14L41.541 9.463C39.417 10.9 36.746 11.148 34.395 10.122C32.044 9.096 30.407 6.97 30.017 4.435L29.642 2H25.326L24.705 5.228C24.231 7.692 22.564 9.736 20.247 10.696C17.93 11.658 15.306 11.39 13.229 9.983L10.506 8.138L7.454 11.19L8.911 13.178C10.428 15.247 10.774 17.907 9.837 20.295C8.899 22.683 6.836 24.398 4.317 24.882L2 25.327V29.642L4.434 30.017C6.969 30.407 9.095 32.043 10.121 34.394C11.147 36.745 10.9 39.417 9.462 41.54L8.138 43.494L11.19 46.546L13.177 45.089C15.245 43.574 17.907 43.226 20.292 44.163C22.68 45.101 24.396 47.164 24.88 49.684L25.326 52H29.642L29.866 50.54C30.264 47.948 31.949 45.803 34.371 44.799C36.795 43.798 39.502 44.122 41.617 45.673L42.809 46.547L45.861 43.495L44.538 41.541C43.099 39.417 42.853 36.746 43.878 34.395C44.904 32.043 47.03 30.407 49.565 30.017Z" fill="black"/>
<path fill-rule="evenodd" clip-rule="evenodd" d="M17 27.5C17 21.71 21.71 17 27.5 17C33.29 17 38 21.71 38 27.5C38 33.29 33.29 38 27.5 38C21.71 38 17 33.29 17 27.5ZM19 27.5C19 32.187 22.813 36 27.5 36C32.187 36 36 32.187 36 27.5C36 22.813 32.187 19 27.5 19C22.813 19 19 22.813 19 27.5Z" fill="black"/>
<path fill-rule="evenodd" clip-rule="evenodd" d="M22 27.5C22 24.468 24.467 22 27.5 22C30.533 22 33 24.468 33 27.5C33 30.532 30.533 33 27.5 33C24.467 33 22 30.532 22 27.5ZM24 27.5C24 29.43 25.57 31 27.5 31C29.43 31 31 29.43 31 27.5C31 25.57 29.43 24 27.5 24C25.57 24 24 25.57 24 27.5Z" fill="black"/>
<path fill-rule="evenodd" clip-rule="evenodd" d="M33 27C35.7614 27 38 24.7614 38 22C38 19.2386 35.7614 17 33 17C30.2386 17 28 19.2386 28 22C28 24.7614 30.2386 27 33 27Z" fill="#FDCF26"/>
</svg>
