<svg width="512" height="512" viewBox="0 0 512 512" fill="none" xmlns="http://www.w3.org/2000/svg">
<path opacity="0.98" fill-rule="evenodd" clip-rule="evenodd" d="M255.5 31.5C163.613 42.8747 101.113 91.8747 68 178.5C46.8099 245.446 52.81 309.779 86 371.5C123.825 434.51 179.325 470.51 252.5 479.5C167.866 476.119 103.7 438.453 60 366.5C27.942 306.493 22.6087 244.16 44 179.5C78.6448 93.2411 142.145 44.0744 234.5 32C241.492 31.5004 248.492 31.3337 255.5 31.5Z" fill="#FFDF80"/>
<path opacity="0.993" fill-rule="evenodd" clip-rule="evenodd" d="M255.5 31.5C343.844 31.1052 409.678 69.1052 453 145.5C481.332 201.49 487.332 259.823 471 320.5C447.544 398.289 397.044 449.122 319.5 473C297.498 478.467 275.165 480.634 252.5 479.5C179.325 470.51 123.825 434.51 85.9998 371.5C52.8098 309.779 46.8098 245.446 67.9998 178.5C101.113 91.8747 163.613 42.8747 255.5 31.5Z" fill="#FECB29"/>
<path fill-rule="evenodd" clip-rule="evenodd" d="M447.5 263.5C438.046 187.81 397.713 135.977 326.5 108C253.23 83.4512 186.23 94.7845 125.5 142C88.1469 174.873 67.4802 216.039 63.4998 265.5C62.7474 188.483 94.7474 129.649 159.5 89C223.463 55.0999 287.463 55.0999 351.5 89C415.654 129.117 447.654 187.284 447.5 263.5Z" fill="#F9A01B"/>
<path fill-rule="evenodd" clip-rule="evenodd" d="M447.5 263.5C446.166 332.023 416.5 384.189 358.5 420C304.664 450.104 248.331 455.77 189.5 437C138.507 419.341 101.34 386.174 78 337.5C68.68 314.441 63.8467 290.441 63.5 265.5C67.4804 216.039 88.1471 174.873 125.5 142C186.23 94.7845 253.23 83.4512 326.5 108C397.713 135.977 438.046 187.81 447.5 263.5Z" fill="#FCB316"/>
<path fill-rule="evenodd" clip-rule="evenodd" d="M220.5 139.5C225.152 138.984 228.652 140.651 231 144.5C231.167 157.18 231.667 169.846 232.5 182.5C245.29 177.354 258.123 172.354 271 167.5C279.888 169.574 281.721 174.407 276.5 182C261.661 188.334 246.661 194.167 231.5 199.5C231.168 209.855 231.501 220.188 232.5 230.5C245.29 225.354 258.123 220.354 271 215.5C279.888 217.574 281.721 222.407 276.5 230C261.661 236.334 246.661 242.167 231.5 247.5C231.5 283.167 231.5 318.833 231.5 354.5C273.47 349.036 299.637 325.703 310 284.5C310.476 277.056 311.476 269.722 313 262.5C316.419 259.152 320.252 258.652 324.5 261C326.978 264.001 327.978 267.501 327.5 271.5C322.732 320.887 296.732 353.054 249.5 368C240.013 370.86 230.347 371.86 220.5 371C219.069 370.535 217.903 369.701 217 368.5C215.851 330.555 215.018 292.555 214.5 254.5C206.927 258.191 199.094 261.191 191 263.5C186.047 262.878 183.547 260.045 183.5 255C183.703 252.594 184.703 250.594 186.5 249C195.874 245.264 205.207 241.431 214.5 237.5C215.833 227.167 215.833 216.833 214.5 206.5C206.927 210.191 199.094 213.191 191 215.5C186.047 214.878 183.547 212.045 183.5 207C183.703 204.594 184.703 202.594 186.5 201C195.874 197.264 205.207 193.431 214.5 189.5C215.333 174.511 215.833 159.511 216 144.5C217.025 142.313 218.525 140.646 220.5 139.5Z" fill="#FEDF80"/>
</svg>
