<svg width="827" height="836" viewBox="0 0 827 836" fill="none" xmlns="http://www.w3.org/2000/svg">
<g clip-path="url(#clip0_2_285)">
<path d="M0 420.667V836H413.5H827V420.667V5.33329H413.5H0V420.667ZM428.973 132.267C443.379 131.867 446.58 133.067 445.113 138.667C444.312 142 447.514 144 454.05 144C457.785 144 458.852 143.467 458.852 141.6C458.852 135.067 464.854 134.4 475.658 140C480.06 142.267 487.396 144.667 492.198 145.467C496.867 146.133 502.202 147.6 503.803 148.667C507.004 150.8 507.805 154.533 505.537 156.8C503.67 158.667 507.805 162.4 513.14 163.867C516.742 164.933 517.409 164.667 518.742 161.867C521.01 156.667 525.679 157.733 534.215 165.6C538.35 169.333 544.886 173.867 548.621 175.6C555.824 178.933 561.56 183.467 561.56 185.733C561.56 186.533 560.626 188.133 559.426 189.467C556.891 192.267 558.358 195.867 563.561 199.2C566.762 201.333 567.295 201.333 569.43 199.467C574.765 194.667 579.834 198.267 586.636 211.333C588.237 214.267 591.839 218.4 594.773 220.533C597.574 222.667 601.042 226.4 602.51 228.933C604.911 233.467 604.911 233.6 601.709 236.133C598.108 239.067 598.508 242.667 602.91 247.867C605.044 250.267 606.111 250.667 607.178 249.6C608.112 248.667 610.113 248 611.847 248C615.448 248 618.249 252.8 620.383 262.933C621.184 266.667 623.985 272.933 626.386 276.667C628.787 280.267 631.188 285.333 631.721 287.733C632.522 291.733 632.255 292.267 628.387 293.733C623.718 295.467 623.318 297.733 626.252 304.8C627.986 309.067 628.387 309.333 631.188 307.867C633.589 306.533 634.389 306.8 636.523 309.333C638.391 311.6 638.924 314.667 638.924 322.533C638.924 328.133 639.858 335.6 640.925 339.2C643.726 348.4 643.459 354.267 640.391 356C638.924 356.667 636.923 356.933 635.723 356.533C634.256 356 633.455 357.067 632.922 360.4C631.588 367.067 633.055 370.667 637.057 370.667C642.792 370.667 643.593 375.467 639.858 386.8C637.457 393.733 636.657 398.533 637.19 402.133C638.657 413.2 632.922 423.067 627.586 418.667C626.119 417.467 625.319 418 623.718 421.2C620.784 426.8 620.917 431.467 624.252 432.4C629.987 433.867 629.32 440.667 622.518 449.6C619.983 452.8 616.649 459.733 615.048 465.067C611.713 476.267 607.311 480.667 603.176 476.933C600.109 474.133 596.641 476.133 594.106 482.133C591.705 487.733 591.705 487.6 594.906 488.4C600.242 489.733 598.108 495.067 588.637 504.133C583.569 508.933 577.433 515.733 574.898 519.333C569.696 526.667 565.561 528.267 561.56 524.667C558.759 522.133 556.091 523.067 551.156 528.4C548.488 531.2 548.354 531.733 550.222 533.333C555.157 537.467 550.622 543.2 539.151 547.467C535.683 548.8 529.947 552.4 526.346 555.6C517.275 563.733 510.206 564.933 508.605 558.667C508.071 556.533 507.138 556.267 504.337 556.933C500.468 557.867 494.866 561.2 494.866 562.533C494.866 562.933 495.4 564.267 496.067 565.2C499.135 570 491.531 574.667 480.727 574.667C477.259 574.667 471.924 576.133 466.588 578.667C454.85 584.267 448.181 583.733 448.181 577.2C448.181 574.4 442.445 573.2 437.643 574.8C434.975 575.733 434.042 576.933 434.175 579.6C434.175 585.333 429.373 586.933 418.836 584.8C412.3 583.467 408.165 583.333 401.228 584.4C389.757 586.133 385.489 584.667 385.489 578.667C385.489 575.467 384.688 574.267 382.021 573.333C376.552 571.2 372.15 571.733 372.15 574.267C372.017 581.467 365.347 582.133 353.876 576.267C349.608 574 342.938 571.867 338.937 571.333C329.199 570.267 324.131 567.467 324.131 563.333C324.131 561.6 324.798 559.733 325.465 559.333C327.465 558.133 321.196 553.467 316.261 552.533C313.06 551.867 312.126 552.133 312.126 553.733C312.126 554.8 311.192 556.4 310.125 557.333C307.324 559.6 303.055 557.6 295.052 550.133C291.584 546.933 285.849 543.067 282.114 541.467C270.776 536.4 267.174 531.467 271.443 526.667C273.31 524.667 273.177 524 270.776 520.933C267.174 516.4 263.306 515.2 260.638 517.867C259.571 519.067 257.704 520 256.637 520C253.969 520 248.5 514 245.165 507.467C243.698 504.533 239.296 499.2 235.295 495.6C226.625 487.733 225.024 483.333 229.426 480C232.227 477.867 232.36 477.333 230.893 473.6C229.959 471.333 228.092 468.533 226.891 467.333C224.757 465.467 224.357 465.467 222.756 467.333C218.755 472.267 213.153 466.667 210.618 454.933C209.685 450.667 206.617 443.733 203.815 439.333C197.813 430.133 197.28 423.6 202.482 422.933C204.883 422.533 205.416 421.6 205.416 417.867C205.416 410.667 203.415 407.867 199.014 408.8C193.011 410 191.544 406.8 191.277 392.8C191.144 386.133 190.077 377.733 189.01 374C186.475 365.067 187.676 360.8 193.011 360.267C197.546 359.867 198.747 356.933 197.68 349.467C197.28 346.133 196.613 345.467 194.745 346C191.677 346.933 188.076 343.333 188.076 339.2C188.076 337.467 189.276 332.933 190.744 329.067C192.478 324.533 193.411 318.8 193.411 313.067C193.411 308.133 194.078 302.533 195.012 300.533C196.479 297.6 197.28 297.2 201.148 297.867C205.283 298.533 205.816 298.133 207.55 294C210.218 287.467 209.951 284 206.75 284C200.214 284 201.681 274.133 209.685 264.667C211.552 262.4 213.82 257.6 214.62 253.867C216.621 245.6 220.622 238.667 223.557 238.667C224.624 238.667 226.758 239.333 228.225 240.133C231.56 241.867 234.228 240 236.629 234.133C238.096 230.4 237.963 229.733 235.295 227.733C233.427 226.133 232.627 224.4 233.027 222.667C233.694 220.267 242.364 211.333 246.9 208.533C247.967 207.867 251.035 203.867 253.836 199.6C256.637 195.333 260.372 191.2 262.372 190.267C265.307 188.933 266.107 189.2 268.108 191.733C270.242 194.267 271.043 194.533 273.71 193.2C275.444 192.533 277.845 190.267 279.179 188.533C281.447 185.467 281.58 184.933 279.579 182.8C278.379 181.467 277.445 179.867 277.445 179.067C277.445 176.667 283.448 172.267 290.65 169.467C294.519 167.867 300.521 164.267 303.989 161.467C314.527 152.667 320.262 151.333 321.863 157.333C322.797 160.667 326.265 160.667 331.734 157.333C335.735 154.933 336.002 154.4 334.535 151.467C333.468 148.933 333.468 147.6 334.668 146.133C336.402 144 347.073 141.333 353.609 141.333C355.743 141.333 360.545 139.867 364.147 138C372.417 133.867 380.954 133.467 382.154 137.333C382.554 138.8 382.554 140.533 382.154 141.333C381.22 142.8 388.29 143.067 393.225 141.867C395.359 141.2 396.16 140 396.16 137.467C396.16 131.467 398.427 130.267 407.498 131.467C411.899 132.133 421.503 132.4 428.973 132.267ZM391.758 622.4L410.165 622L409.632 628.667L409.098 635.333L407.231 630.933C405.23 626.133 400.028 623.467 395.226 624.667C392.158 625.333 392.158 625.6 392.158 645.867V666.4L395.893 667.733C398.827 668.933 397.494 669.067 388.823 669.067C382.954 669.067 379.353 668.667 380.82 668.4C386.556 666.933 386.823 665.733 386.823 645.867C386.823 628 386.689 626.667 384.155 625.333C379.62 622.933 372.684 625.867 370.95 630.933C368.815 636.933 367.882 634.8 368.949 626.8C369.616 621.333 370.149 620.267 371.616 621.467C372.684 622.4 379.753 622.667 391.758 622.4ZM224.624 624.133C231.026 627.067 231.427 635.733 225.424 642C222.89 644.667 223.023 644.8 230.226 654.267C234.361 659.867 239.563 665.067 242.498 666.533L247.433 669.2L241.164 669.333C235.428 669.333 234.628 668.933 230.36 663.6C227.825 660.533 223.957 655.067 221.556 651.6C218.221 646.8 216.487 645.333 214.353 645.6C211.685 646 211.419 646.8 211.419 656C211.419 665.2 211.685 666 214.753 667.6C217.688 669.067 217.021 669.333 208.084 669.2C199.814 669.2 198.747 668.933 201.815 667.733L205.416 666.4V646.133V625.867L201.815 624.4C198.613 623.2 199.947 622.933 209.685 622.8C216.087 622.667 222.756 623.333 224.624 624.133ZM315.994 640L315.861 646L314.127 641.867C312.126 637.2 309.058 635.467 305.19 636.8C302.922 637.467 302.789 638.8 303.055 652.4C303.456 666.933 303.456 667.2 306.79 668.133C308.925 668.667 306.39 669.067 300.121 669.2C291.184 669.333 290.517 669.067 293.452 667.6C296.653 666 296.786 665.333 297.186 652.533C297.453 642.133 297.053 638.667 295.586 637.467C292.385 634.8 287.182 637.067 285.448 641.733C283.581 646.8 282.114 644.4 283.314 638.267L284.115 634H300.121H316.127L315.994 640ZM269.842 636.267C266.908 637.6 266.774 638.533 266.774 652.267C266.774 666 266.908 666.8 269.842 668C271.976 668.8 270.376 669.2 263.44 669.2C256.503 669.2 254.903 668.8 257.17 668C259.971 666.8 260.105 666 260.105 652.533C260.105 640.533 259.705 638 257.837 636.533C255.703 634.933 256.637 634.8 264.106 634.8C271.309 634.8 272.243 635.067 269.842 636.267ZM354.143 636.133C354.676 636.8 354.676 639.067 354.143 641.067C353.209 644.667 353.209 644.667 352.009 641.6C350.541 637.6 344.539 635.333 340.537 637.2C338.003 638.4 337.469 639.6 337.469 644.667V650.667H344.139C348.007 650.667 350.808 651.333 350.808 652.133C350.808 653.067 348.407 653.333 344.539 653.067L338.136 652.667L337.736 658.4C337.203 665.067 339.07 668 343.739 668C348.274 668 351.742 665.867 354.009 661.6L356.01 658L356.144 663.6V669.333L341.204 669.2C330.8 669.2 327.065 668.8 329.199 668C332.001 666.8 332.134 666 332.134 652.267C332.134 638.533 332.001 637.6 329.199 636.267C326.798 635.2 328.933 634.8 339.737 634.8C347.874 634.667 353.609 635.2 354.143 636.133ZM445.513 639.6L445.38 644.667L443.512 641.2C441.378 637.333 437.11 635.6 432.441 636.933C429.907 637.6 429.506 638.533 429.506 644.133V650.667H436.176C440.177 650.667 442.845 651.2 442.845 652.133C442.845 653.2 440.711 653.467 436.176 652.8L429.506 651.867V659.2C429.506 666.133 429.773 666.667 432.975 667.467C438.177 668.8 443.245 666.533 445.513 662L447.514 658L447.914 661.733C448.848 669.067 448.181 669.333 432.574 669.2C422.57 669.2 419.102 668.8 421.236 668C424.038 666.8 424.171 666 424.171 652.267C424.171 638.533 424.038 637.6 421.236 636.267C418.836 635.2 420.97 634.8 431.907 634.8L445.513 634.667V639.6ZM478.86 647.333L488.864 659.867L489.664 652.267C490.598 643.2 489.931 638.533 486.996 636.4C485.262 635.067 486.063 634.8 491.531 634.8C497.801 634.8 498.067 634.933 495.533 636.8C493.132 638.533 492.732 640.8 492.198 655.067L491.531 671.2L480.994 658.667C475.125 651.733 469.656 645.067 468.589 644C467.122 642.4 466.855 644 466.855 654.133C466.855 665.333 467.122 666.4 469.923 667.733C472.457 668.933 471.79 669.2 465.521 669.2C458.585 669.333 458.451 669.2 461.253 667.2C463.92 665.333 464.187 664.133 464.187 652.133C464.187 640 463.92 638.8 461.253 636.933C458.185 634.8 458.318 634.8 463.52 634.8C468.722 634.8 469.256 635.2 478.86 647.333ZM535.416 636.533C542.219 639.333 545.553 644.533 545.553 652.133C545.553 657.733 544.886 659.467 541.018 663.733L536.483 668.667L521.944 669.067C509.405 669.333 507.938 669.2 510.873 667.733C514.074 666 514.207 665.2 514.607 653.067C514.874 641.2 514.741 640 511.94 637.467L509.005 634.667H519.943C526.346 634.667 532.881 635.467 535.416 636.533ZM584.236 639.6L584.102 644.667L582.235 641.2C580.101 637.333 575.832 635.6 571.164 636.933C568.629 637.6 568.229 638.533 568.229 644.133V650.667H574.898C578.9 650.667 581.568 651.2 581.568 652.133C581.568 653.2 579.434 653.467 574.898 652.8L568.229 651.867V659.2C568.229 666.133 568.496 666.667 571.697 667.467C576.899 668.8 581.968 666.533 584.236 662L586.236 658L586.636 661.733C587.57 669.067 586.903 669.333 571.297 669.2C561.293 669.2 557.825 668.8 559.959 668C562.76 666.8 562.894 666 562.894 652.267C562.894 638.533 562.76 637.6 559.959 636.267C557.558 635.2 559.692 634.8 570.63 634.8L584.236 634.667V639.6ZM622.651 636.8C626.252 639.333 626.386 642.667 622.918 647.067C621.451 648.933 620.25 650.933 620.25 651.733C620.25 654.133 628.387 664.133 632.655 666.8L636.923 669.467L630.921 669.067C625.185 668.667 624.652 668.4 619.583 660.4C612.514 649.467 609.579 649.2 609.579 659.333C609.579 665.733 609.979 666.933 612.647 668C614.915 668.933 613.447 669.2 606.911 669.2C598.775 669.333 598.508 669.2 601.309 667.2C603.977 665.333 604.244 664.133 604.244 652.133C604.244 640 603.977 638.8 601.309 636.933C598.375 634.933 598.775 634.8 608.912 634.8C616.515 634.667 620.517 635.2 622.651 636.8ZM548.621 715.6C474.991 715.867 354.676 715.867 281.18 715.6C207.55 715.467 267.708 715.333 414.834 715.333C561.96 715.333 622.117 715.467 548.621 715.6Z" fill="black"/>
<path d="M399.094 136.267C400.028 138.8 403.363 139.067 408.298 136.8L412.833 134.933L405.764 134.8C400.562 134.667 398.694 135.067 399.094 136.267Z" fill="black"/>
<path d="M430.84 135.733C430.84 136.267 432.975 137.6 435.642 138.533C439.644 140 440.711 140 441.645 138.533C442.178 137.6 442.312 136.267 442.045 135.733C441.111 134.4 430.84 134.4 430.84 135.733Z" fill="black"/>
<path d="M368.815 139.333L364.814 141.067L370.549 141.2C373.617 141.333 376.552 141.467 377.085 141.6C377.619 141.867 378.286 140.933 378.553 139.6C379.086 136.8 374.684 136.667 368.815 139.333Z" fill="black"/>
<path d="M410.566 139.6C396.693 143.2 401.895 145.867 422.704 145.733C439.911 145.6 442.312 143.867 430.173 140.133C419.903 136.933 420.703 136.933 410.566 139.6Z" fill="black"/>
<path d="M463.654 139.6C461.119 142.267 463.253 144 469.122 144C472.457 144 474.992 143.733 474.725 143.333C473.124 141.867 464.454 138.8 463.654 139.6Z" fill="black"/>
<path d="M340.537 146.667C337.469 147.867 336.269 152 338.937 152C339.603 152 342.538 150.533 345.206 148.667C349.741 145.6 349.874 145.333 346.806 145.467C344.939 145.467 342.138 146 340.537 146.667Z" fill="black"/>
<path d="M349.741 149.6C346.006 152 342.805 154.4 342.805 155.067C342.805 158.133 372.684 150.667 376.685 146.667C377.619 145.733 374.151 145.333 367.348 145.333C357.744 145.333 356.144 145.733 349.741 149.6Z" fill="black"/>
<path d="M382.821 148.667C378.419 150.533 378.686 150.533 388.156 149.733C393.625 149.333 398.694 148.533 399.494 147.867C401.495 146 388.023 146.667 382.821 148.667Z" fill="black"/>
<path d="M438.977 148.533C439.644 149.333 461.519 153.067 461.519 152.533C461.519 152.267 459.385 151.067 456.717 150C452.449 148.267 437.376 147.067 438.977 148.533Z" fill="black"/>
<path d="M464.187 148.667C464.187 150 480.727 156.933 486.196 157.867C489.13 158.4 492.865 159.2 494.599 159.6C499.668 160.8 497.934 157.867 490.464 152.8C484.062 148.4 482.728 148 473.791 148C468.589 148 464.187 148.267 464.187 148.667Z" fill="black"/>
<path d="M490.865 148.8C490.865 149.067 493.265 150.933 496.333 152.933C500.735 155.867 501.936 156.133 502.869 154.533C503.536 153.6 503.67 152.267 503.136 151.733C502.069 150.667 490.865 148 490.865 148.8Z" fill="black"/>
<path d="M414.434 150.4L410.699 151.333L415.367 155.867L420.036 160.4L424.704 156.533C430.173 152 430.573 150.667 426.572 150.667C424.838 150.667 422.303 150.4 420.836 150.133C419.369 149.867 416.434 150 414.434 150.4Z" fill="black"/>
<path d="M396.16 152.267C376.285 154.4 376.418 154.4 372.15 160.667C370.016 163.867 368.148 166.933 368.148 167.6C368.148 168.133 373.884 170.933 380.954 173.733L393.759 178.667L404.563 171.2C410.566 167.067 415.901 163.2 416.568 162.667C417.101 162.267 414.701 159.467 411.232 156.533L404.83 151.2L396.16 152.267Z" fill="black"/>
<path d="M428.306 157.2L422.57 162.267L433.908 171.067L445.113 180L456.984 176C463.52 173.733 469.656 171.733 470.59 171.333C471.924 170.8 471.39 168.933 468.322 163.6L464.32 156.667L451.249 154.4C444.046 153.2 437.243 152.133 436.176 152.133C435.109 152.133 431.507 154.4 428.306 157.2Z" fill="black"/>
<path d="M358.411 158C351.075 160.533 351.075 160.933 357.611 163.867C364.013 166.533 364.947 166.267 368.548 160.133L370.949 156H367.215C365.214 156.133 361.212 156.933 358.411 158Z" fill="black"/>
<path d="M310.125 160.667L306.123 164L310.125 163.2C317.595 161.733 318.795 161.2 318.795 159.2C318.795 156.267 314.527 156.933 310.125 160.667Z" fill="black"/>
<path d="M469.522 158.267C469.522 158.8 472.457 164 475.525 168.933C475.925 169.733 486.863 164.8 486.863 164C486.863 163.467 485.129 162.267 482.995 161.333C478.059 159.333 469.522 157.333 469.522 158.267Z" fill="black"/>
<path d="M335.469 160.933C332.134 161.467 319.195 169.333 321.73 169.333C322.663 169.333 341.871 161.2 342.672 160.533C343.338 160 341.738 160 335.469 160.933Z" fill="black"/>
<path d="M521.544 163.733C521.544 165.467 523.144 166.8 527.013 167.867C534.349 170 534.882 168.933 528.613 164.8C522.611 160.667 521.544 160.533 521.544 163.733Z" fill="black"/>
<path d="M333.201 168.133L320.262 173.6L318.128 180.933C316.928 184.933 316.261 188.667 316.661 188.933C317.061 189.333 323.197 190.267 330.4 191.067L343.338 192.4L348.407 186.533C351.208 183.333 355.343 178.133 357.477 175.067L361.612 169.467L354.943 166C351.208 164.133 347.74 162.667 347.207 162.667C346.673 162.8 340.271 165.2 333.201 168.133Z" fill="black"/>
<path d="M409.498 171.6C404.029 175.6 399.361 179.2 399.228 179.733C398.961 180.267 403.496 182.267 409.232 184.267L419.502 188L430.573 184.533L441.511 181.2L431.907 173.6C426.572 169.333 421.637 165.6 420.836 165.067C420.169 164.667 414.967 167.6 409.498 171.6Z" fill="black"/>
<path d="M506.204 168.533C517.809 174.267 519.676 174.533 512.74 169.467C509.939 167.333 505.137 165.2 502.203 164.8C497.267 164 497.534 164.4 506.204 168.533Z" fill="black"/>
<path d="M307.457 167.333C302.389 168.8 299.187 170.933 294.119 176.133C290.517 180 288.116 183.333 288.916 183.6C291.317 184.4 302.789 178.933 310.925 172.933C321.996 164.933 321.063 163.6 307.457 167.333Z" fill="black"/>
<path d="M485.796 168.533C481.927 170.267 478.726 172.133 478.859 172.8C478.993 174.533 491.665 192.533 494.066 194.533C495.399 195.733 499.668 195.867 509.405 195.2C516.875 194.667 522.877 193.867 522.877 193.467C522.877 193.067 522.077 189.6 521.143 186L519.409 179.333L506.204 172.4L492.865 165.6L485.796 168.533Z" fill="black"/>
<path d="M521.544 171.067C521.81 174.667 548.355 192.4 550.355 190.267C551.422 189.2 542.352 177.867 538.35 175.333C533.549 172.267 521.544 169.2 521.544 171.067Z" fill="black"/>
<path d="M357.077 180.8C352.809 186.267 349.741 191.333 350.141 192C350.541 192.8 355.477 193.333 361.079 193.333C370.683 193.333 371.75 193.067 380.287 187.733C385.355 184.533 389.49 181.733 389.49 181.2C389.49 180.533 373.084 173.6 366.147 171.333C365.481 171.067 361.346 175.333 357.077 180.8Z" fill="black"/>
<path d="M286.516 174.8C281.58 177.333 279.579 181.333 283.181 181.333C285.048 181.333 292.918 173.733 291.984 172.8C291.718 172.533 289.183 173.467 286.516 174.8Z" fill="black"/>
<path d="M461.252 177.867C454.717 180.133 449.514 182.267 449.514 182.667C449.514 183.067 453.516 186.133 458.451 189.6L467.255 196H478.459C484.462 196 489.531 195.6 489.531 195.2C489.531 193.867 474.458 173.333 473.657 173.467C473.257 173.6 467.655 175.6 461.252 177.867Z" fill="black"/>
<path d="M311.059 178.133C308.524 179.2 304.789 181.467 302.655 183.333L298.654 186.533L302.122 187.333C312.526 189.467 311.726 189.733 313.993 183.067C315.194 179.733 315.994 176.8 315.727 176.533C315.594 176.4 313.46 177.067 311.059 178.133Z" fill="black"/>
<path d="M550.355 183.333C553.957 188.133 557.558 189.467 557.558 186C557.558 184.133 550.355 178.667 547.821 178.667C547.287 178.667 548.354 180.8 550.355 183.333Z" fill="black"/>
<path d="M524.611 187.333L525.945 193.333H532.481C535.949 193.333 538.884 192.8 538.884 192.267C538.884 190 526.879 181.333 523.811 181.333C523.544 181.333 523.811 184 524.611 187.333Z" fill="black"/>
<path d="M385.489 188.4L376.819 194L385.489 194.4C393.892 194.8 412.166 191.333 412.166 189.467C412.166 188.667 401.629 184.667 395.493 183.067C394.826 182.8 390.291 185.2 385.489 188.4Z" fill="black"/>
<path d="M433.508 186.933L424.838 189.733L434.042 192.8C440.311 194.933 446.447 196 452.716 196H462.053L453.516 190C448.848 186.667 444.312 184 443.645 184.133C442.845 184.133 438.31 185.467 433.508 186.933Z" fill="black"/>
<path d="M284.515 191.067C279.979 193.467 272.11 201.467 272.11 203.733C272.11 204.133 277.045 200.133 290.117 189.067C292.118 187.333 290.517 187.867 284.515 191.067Z" fill="black"/>
<path d="M283.714 198.667L272.11 208.133V216.133C272.11 220.4 272.51 224 273.177 224C277.312 224 298.387 219.333 299.721 218.133C300.788 217.067 310.792 194.133 310.792 192.533C310.792 192.4 308.524 191.867 305.857 191.333C303.055 190.933 299.587 190.133 297.987 189.867C295.986 189.333 292.118 191.733 283.714 198.667Z" fill="black"/>
<path d="M260.238 196.667C257.971 199.333 256.103 201.733 256.103 202.133C256.103 202.533 258.504 201.467 261.439 199.867C266.507 196.933 268.108 194.267 265.574 192.8C264.907 192.4 262.506 194.133 260.238 196.667Z" fill="black"/>
<path d="M312.793 196.533C304.523 216.533 304.256 217.333 306.524 217.2C307.724 217.2 312.793 216.133 317.728 214.933C326.265 212.8 327.199 212.133 334.135 204L341.338 195.333L337.069 194.933C334.802 194.667 328.666 194.133 323.597 193.467L314.527 192.4L312.793 196.533Z" fill="black"/>
<path d="M412.166 193.2C409.232 194 409.098 194.267 411.232 195.067C412.566 195.6 417.768 196 422.57 195.867L431.507 195.733L426.839 194C421.637 192 417.235 191.733 412.166 193.2Z" fill="black"/>
<path d="M556.491 202.533C561.16 206.933 565.161 210.267 565.428 210C567.162 208.267 552.356 194.667 548.755 194.667C548.488 194.667 551.956 198.267 556.491 202.533Z" fill="black"/>
<path d="M339.203 202.933C336.135 206.8 333.734 210.133 334.001 210.4C335.335 211.733 351.875 205.867 358.144 201.867C362.146 199.333 365.481 196.933 365.481 196.667C365.481 196.267 360.812 196 355.21 196H344.806L339.203 202.933Z" fill="black"/>
<path d="M531.281 196.933C527.412 197.733 527.412 198.267 532.615 212.533L537.016 224.533L548.888 227.6C566.095 232 565.561 232.133 565.561 222.8V214.933L555.024 205.467C544.086 195.6 542.085 194.8 531.281 196.933Z" fill="black"/>
<path d="M367.215 200.133C364.814 201.733 362.813 203.067 362.813 203.333C362.813 203.733 380.287 199.333 383.488 198C384.288 197.733 381.887 197.467 378.153 197.467C373.617 197.467 370.149 198.267 367.215 200.133Z" fill="black"/>
<path d="M507.938 198.267C502.202 198.533 497.534 199.067 497.534 199.467C497.534 199.733 500.602 203.867 504.203 208.667C510.072 216 511.939 217.467 517.942 219.2C529.547 222.533 532.214 223.067 532.214 221.867C532.214 221.2 530.347 215.467 528.079 209.067C524.478 199.067 523.411 197.333 521.01 197.6C519.543 197.733 513.54 198.133 507.938 198.267Z" fill="black"/>
<path d="M371.483 204.533C352.675 209.867 350.408 210.8 332 222.133C313.593 233.333 311.592 234.933 297.186 250.667C282.647 266.667 281.58 268.133 271.843 288.4C261.839 308.8 261.572 309.867 257.971 330.4C253.836 354.667 253.836 352.933 257.304 380.667C259.838 401.6 260.105 402.4 268.642 422C276.778 440.667 278.245 443.2 291.718 459.6C305.456 476.267 307.057 477.867 325.465 490.4C344.405 503.333 345.339 503.733 366.414 510.533L388.156 517.333L411.099 518.133L434.175 518.933L456.584 512.8C477.392 507.2 480.06 506.133 493.932 497.6C502.202 492.533 510.873 487.2 513.274 485.867C515.675 484.533 524.745 475.467 533.415 466C548.354 449.467 549.421 447.733 559.025 428C568.896 407.467 569.029 407.2 572.764 384.667L576.632 362L573.965 339.2L571.164 316.4L562.227 295.2C553.423 275.067 552.489 273.467 538.617 256.667C524.878 240.133 523.144 238.4 504.737 226C485.796 213.2 484.995 212.8 463.12 205.867L440.844 198.8H416.168L391.491 198.933L371.483 204.533ZM419.903 365.333C419.636 429.333 419.102 447.2 417.902 447.733C416.568 448.133 416.168 431.067 416.168 365.6C416.168 320.267 416.568 282.667 417.101 282.133C417.635 281.733 418.435 281.733 419.102 282.4C419.636 282.933 420.036 320.267 419.903 365.333ZM500.202 326.133C506.071 328.533 509.539 333.467 509.539 339.333C509.539 343.867 505.004 352.667 501.269 355.2L498.334 357.333L505.004 366.933C513.674 379.733 525.012 391.067 530.881 392.933C535.282 394.267 535.149 394.4 526.612 394.533L517.809 394.667L512.34 388.4C509.272 385.067 503.403 377.2 499.268 371.067C492.065 360.4 491.531 360 486.596 360H481.527V376V392L485.262 392.8C492.198 394.267 491.531 394.4 477.526 394.4C467.522 394.4 464.587 394.133 467.388 393.333C469.523 392.667 471.79 391.333 472.324 390.4C473.791 388.267 473.791 331.867 472.457 329.733C471.924 328.933 469.656 327.733 467.522 327.067C463.654 326 466.988 325.6 490.464 324.267C492.865 324.133 497.267 324.933 500.202 326.133ZM335.735 330.133C338.536 330.933 338.536 330.933 334.935 334.4C332.934 336.4 332.534 336.933 334.135 335.733C338.003 332.533 349.341 328.667 346.406 331.467C345.873 332 347.34 334.4 349.474 336.933C353.342 341.2 354.276 344.933 353.743 353.2C353.609 354.933 354.81 358.133 356.41 360.267C358.411 363.2 358.811 364.533 357.611 365.733C356.81 366.533 356.144 370.267 356.144 374.133C356.144 381.467 355.076 382.667 348.807 382.667C344.139 382.667 343.605 384.933 347.874 386.4C350.008 387.067 353.876 389.6 356.544 392C361.212 396 361.879 396.133 370.816 395.733C375.885 395.467 380.153 395.733 380.153 396.267C380.153 396.933 367.215 397.333 351.475 397.333C335.735 397.333 322.797 396.8 322.797 396.133C322.797 394.533 331.067 388.267 335.335 386.667C339.87 384.933 339.737 382.667 335.202 382.8L331.467 382.933L334.802 384C336.936 384.667 337.336 385.067 335.869 385.2C334.535 385.333 330.266 388 326.265 391.333C319.329 396.933 318.395 397.333 310.792 397.333C306.39 397.333 302.789 396.8 302.789 396C302.789 395.333 304.656 392.667 306.79 390.267C309.058 387.733 310.792 384.667 310.792 383.467C310.792 382.267 311.459 381.333 312.126 381.333C314.527 381.333 313.593 369.6 310.525 363.867C305.99 355.067 305.723 346.667 309.992 339.467C311.992 336.133 315.194 332.533 317.195 331.467C320.929 329.467 330.533 328.8 335.735 330.133ZM359.878 330.267C357.744 330.533 354.543 330.533 352.542 330.267C350.408 330 352.142 329.733 356.144 329.733C360.145 329.733 361.879 330 359.878 330.267ZM370.549 336.133C372.95 339.467 373.084 339.867 370.95 337.333C369.349 335.467 366.948 333.2 365.747 332.133C364.28 330.933 364.147 330.533 365.347 330.933C366.414 331.2 368.682 333.6 370.549 336.133ZM375.751 352.267C375.485 354 375.218 352.933 375.218 350C375.085 347.067 375.351 345.733 375.751 346.933C376.018 348.267 376.018 350.667 375.751 352.267ZM372.15 383.733C372.15 384.933 373.751 387.733 375.885 389.867L379.486 394L375.751 390.667C371.216 386.8 367.348 379.733 370.283 380.933C371.35 381.333 372.15 382.533 372.15 383.733Z" fill="black"/>
<path d="M483.928 328C481.928 329.2 481.527 331.6 481.527 343.6V357.733L488.197 357.067C495.933 356.267 499.668 353.467 500.735 347.6C501.669 342 499.668 333.6 496.6 330.533C493.532 327.467 486.996 326.133 483.928 328Z" fill="black"/>
<path d="M328.399 347.333C328.399 349.467 328.666 350.267 329.066 348.933C329.332 347.733 329.332 345.867 329.066 344.933C328.666 344.133 328.399 345.067 328.399 347.333Z" fill="black"/>
<path d="M325.998 360.267L323.464 363.333L326.532 360.8C329.333 358.4 330.133 357.333 329.066 357.333C328.799 357.333 327.465 358.667 325.998 360.267Z" fill="black"/>
<path d="M325.598 377.467C325.464 380 329.066 383.467 330.4 382.133C330.8 381.733 330.533 381.333 329.599 381.333C328.799 381.333 327.465 380 326.798 378.267C325.998 376.267 325.598 376 325.598 377.467Z" fill="black"/>
<path d="M454.85 199.2C454.85 199.867 470.857 205.333 472.724 205.333C473.524 205.333 472.457 203.867 470.19 202C467.388 199.733 464.454 198.8 460.586 198.667C457.384 198.667 454.85 198.933 454.85 199.2Z" fill="black"/>
<path d="M472.991 199.733C478.593 204.8 488.864 210.533 495.266 212.533C499.535 213.867 503.403 214.667 503.67 214.4C503.937 214 501.669 210.4 498.468 206.267L492.866 198.8L482.328 198.667C476.459 198.667 472.191 199.2 472.991 199.733Z" fill="black"/>
<path d="M260.105 204.4C254.102 208 251.968 210.4 248.367 217.2C245.832 221.733 244.232 225.867 244.632 226.267C246.766 228.533 269.042 204.667 267.841 201.333C267.575 200.667 264.106 202 260.105 204.4Z" fill="black"/>
<path d="M571.831 200.933C570.097 202.533 570.897 203.6 576.232 207.2C582.368 211.2 583.035 210 578.1 204.133C574.632 199.867 573.431 199.333 571.831 200.933Z" fill="black"/>
<path d="M569.563 208.8C569.563 209.2 571.964 212.933 574.765 217.067C580.634 225.733 590.371 235.6 591.705 234.267C592.639 233.333 589.171 223.6 586.103 218.933C583.168 214.4 569.563 206 569.563 208.8Z" fill="black"/>
<path d="M260.905 218.8C257.437 222.667 254.903 226 255.303 226.267C255.57 226.667 258.637 226.4 261.972 226L268.108 225.067V218.533C268.108 214.933 267.841 212 267.574 212C267.308 212 264.24 215.067 260.905 218.8Z" fill="black"/>
<path d="M332.667 214.267C330 214.8 319.862 224 321.863 224C322.397 224 326.665 221.6 331.2 218.667C339.07 213.733 339.203 212.933 332.667 214.267Z" fill="black"/>
<path d="M239.963 218.533C235.695 222.8 235.161 224.667 237.829 225.733C239.03 226.133 240.764 224.267 242.498 220.533C245.832 213.6 245.299 213.2 239.963 218.533Z" fill="black"/>
<path d="M311.059 219.6L302.522 221.6L298.654 230.267C296.52 235.067 294.786 239.2 294.786 239.6C294.786 240 297.587 238.667 301.188 236.667C307.324 233.067 321.463 220.4 321.463 218.4C321.463 217.2 321.73 217.067 311.059 219.6Z" fill="black"/>
<path d="M498.868 217.867C498.868 218.267 502.603 220.933 512.873 227.467L516.875 230L513.14 225.067C511.006 222.4 507.538 219.6 505.27 218.8C501.002 217.333 498.868 216.933 498.868 217.867Z" fill="black"/>
<path d="M568.229 224.933V231.733L574.498 233.067C577.966 233.867 581.034 234.267 581.301 234C582.101 233.2 577.033 226.533 572.364 222.133L568.229 218.133V224.933Z" fill="black"/>
<path d="M515.808 223.2C519.009 228.667 528.346 238 533.949 241.467C537.55 243.6 540.618 245.333 540.885 245.067C541.018 244.8 539.684 240.8 537.95 236L534.749 227.333L524.878 224.533C519.143 222.933 515.274 222.4 515.808 223.2Z" fill="black"/>
<path d="M284.381 225.2C277.845 226.533 272.777 228.267 272.11 229.333C271.576 230.4 270.642 236.667 270.109 243.2L269.175 254.933L277.712 250.133C282.247 247.467 286.782 244.8 287.716 244.267C290.25 242.8 298.92 222.667 297.053 222.8C296.253 222.933 290.384 224 284.381 225.2Z" fill="black"/>
<path d="M592.772 224.667C593.439 226.133 594.506 228.933 595.173 230.933C595.84 233.067 597.307 234.667 598.375 234.667C601.709 234.667 600.375 230 595.974 225.867C592.772 222.8 592.105 222.533 592.772 224.667Z" fill="black"/>
<path d="M259.038 229.2C255.17 229.733 251.568 230.667 251.035 231.467C250.501 232.267 246.9 237.867 242.898 243.867L235.695 254.667L237.429 261.067C238.363 264.533 239.563 267.867 240.097 268.4C240.63 269.067 246.499 266.8 253.169 263.467C266.641 256.667 266.107 257.733 267.441 238.933C267.975 232.933 267.841 228.133 267.174 228.133C266.641 228.267 262.906 228.8 259.038 229.2Z" fill="black"/>
<path d="M538.884 229.2C538.884 229.6 540.618 234.533 542.885 240C546.487 248.8 547.687 250.533 553.29 253.867C556.758 256.133 560.893 258.667 562.627 259.733L565.561 261.6V248.267V234.933L552.222 231.6C544.886 229.867 538.884 228.667 538.884 229.2Z" fill="black"/>
<path d="M241.697 235.067C239.03 237.867 234.094 247.867 235.028 248.667C235.295 248.933 237.963 245.2 241.164 240.533C246.766 232 247.033 229.333 241.697 235.067Z" fill="black"/>
<path d="M568.629 244C569.163 248.667 569.563 254.933 569.563 258.133C569.563 264.533 569.563 264.533 587.17 274.4L594.64 278.667L597.174 271.067L599.842 263.333L591.972 250.4C585.836 240.267 583.435 237.333 581.168 237.333C579.567 237.333 575.832 236.933 573.031 236.4L567.829 235.6L568.629 244Z" fill="black"/>
<path d="M589.705 239.6C590.905 242.4 600.776 258.533 601.176 258.133C602.376 256.933 597.841 248 593.84 243.467C591.305 240.667 589.438 238.8 589.705 239.6Z" fill="black"/>
<path d="M221.422 245.6C217.421 252.267 218.088 254.533 222.756 250C226.891 246 227.692 243.467 225.424 242C224.757 241.6 222.89 243.2 221.422 245.6Z" fill="black"/>
<path d="M295.853 243.467C292.518 245.2 287.182 252.8 288.383 254.133C288.783 254.4 291.584 252 294.785 248.667C301.188 242.133 301.455 240.533 295.853 243.467Z" fill="black"/>
<path d="M539.151 252.133C541.552 255.2 544.62 258.933 545.82 260.533C548.755 264 548.755 263.067 546.22 256.933C544.486 252.8 538.084 246.667 535.549 246.667C535.016 246.667 536.616 249.067 539.151 252.133Z" fill="black"/>
<path d="M222.356 254.933C218.355 259.733 216.087 263.733 215.42 267.333C215.02 270.267 214.22 274.267 213.953 276.267C213.553 278.4 213.82 280 214.486 280C217.955 280 232.227 250.4 229.559 248.667C228.892 248.267 225.558 251.2 222.356 254.933Z" fill="black"/>
<path d="M277.445 254C273.443 256.533 269.709 258.667 269.308 258.933C268.775 259.2 267.975 263.867 267.441 269.333L266.507 279.333L271.976 273.333C277.312 267.6 287.849 249.2 285.848 249.467C285.182 249.467 281.447 251.6 277.445 254Z" fill="black"/>
<path d="M608.912 252C608.379 252.8 609.846 255.467 612.114 258.133C616.649 263.2 617.716 261.333 614.248 254.667C612.114 250.533 610.379 249.733 608.912 252Z" fill="black"/>
<path d="M549.555 256.533C549.555 259.467 558.225 275.2 562.894 280.667L568.629 287.333L567.696 280.8C567.295 277.2 566.895 272.4 566.895 270.133C566.762 266.533 565.828 265.333 559.159 261.333C550.355 255.867 549.555 255.467 549.555 256.533Z" fill="black"/>
<path d="M605.578 259.067C605.578 264.933 616.782 289.333 619.45 289.333C621.051 289.333 619.183 272.133 617.182 269.333C614.515 265.6 607.045 257.333 606.245 257.333C605.844 257.333 605.578 258.133 605.578 259.067Z" fill="black"/>
<path d="M228.225 267.067C225.824 272.133 224.09 276.4 224.357 276.667C224.49 276.8 227.291 275.867 230.493 274.533C236.629 271.867 237.429 269.333 234.228 262L232.494 258L228.225 267.067Z" fill="black"/>
<path d="M252.502 267.467C245.299 271.467 241.431 274.4 241.431 275.733C241.564 277.067 242.631 282.933 243.832 289.067L246.099 300.133L253.969 292.133L261.972 284.133L263.44 272.667C264.373 266.4 264.64 261.333 264.24 261.467C263.84 261.467 258.504 264.267 252.502 267.467Z" fill="black"/>
<path d="M208.217 272.667C204.749 278.533 204.616 281.733 207.817 281.067C209.418 280.8 210.351 278.933 210.885 274.667C211.418 271.333 211.552 268.533 211.418 268.267C211.285 268 209.818 270 208.217 272.667Z" fill="black"/>
<path d="M601.176 269.333C597.441 280.933 597.174 279.733 603.043 282.8C606.111 284.267 608.779 285.2 609.179 284.8C610.113 283.867 606.244 273.333 603.71 269.867C602.109 267.733 601.709 267.733 601.176 269.333Z" fill="black"/>
<path d="M570.897 274.4C570.897 287.733 572.231 291.6 579.967 300.133L587.304 308.267L590.371 295.733C592.106 288.933 593.439 282.933 593.573 282.4C593.573 281.733 576.633 271.6 571.964 269.6C571.297 269.333 570.897 271.467 570.897 274.4Z" fill="black"/>
<path d="M229.426 278.533L222.09 282L217.821 295.733L213.686 309.467L217.688 316.133C219.955 319.733 222.223 322.667 222.623 322.667C223.157 322.667 227.825 318.267 233.294 312.8L243.031 303.067L240.764 290.533C239.43 283.6 238.096 277.333 237.563 276.533C237.029 275.467 234.495 276.133 229.426 278.533Z" fill="black"/>
<path d="M268.908 281.067C266.908 283.333 265.04 287.067 264.507 290.133C264.106 292.933 264.106 295.067 264.373 294.667C265.44 293.733 273.577 277.333 273.043 277.333C272.777 277.333 270.909 279.067 268.908 281.067Z" fill="black"/>
<path d="M623.451 281.6C623.851 283.333 624.252 286 624.252 287.6C624.252 289.467 625.052 290.667 626.252 290.667C628.787 290.667 628.787 287.6 626.252 282.667C623.851 278 622.251 277.467 623.451 281.6Z" fill="black"/>
<path d="M215.153 287.733C213.553 290.4 211.952 295.6 211.552 299.333C210.752 305.6 211.018 305.333 214.753 294.8C216.888 288.533 218.488 283.333 218.355 283.067C218.088 282.933 216.621 284.933 215.153 287.733Z" fill="black"/>
<path d="M593.172 297.6L589.971 311.333L599.442 321.467C604.644 327.067 609.179 331.733 609.579 331.733C609.979 331.867 612.247 329.067 614.648 325.467L619.05 318.933L615.315 304.8L611.58 290.533L604.377 287.333C600.509 285.467 597.041 284 596.907 284C596.641 284 595.04 290.133 593.172 297.6Z" fill="black"/>
<path d="M562.76 288C563.427 289.867 565.161 294 566.628 297.333L569.429 303.333V298.4C569.563 294.533 568.629 292.267 565.561 289.067C561.826 285.067 561.693 284.933 562.76 288Z" fill="black"/>
<path d="M252.902 297.867L246.766 305.2L248.233 314.8L249.834 324.4L253.836 316.533C257.704 309.067 262.106 290.667 260.105 290.667C259.571 290.667 256.37 293.867 252.902 297.867Z" fill="black"/>
<path d="M616.248 295.6C616.382 296.267 617.449 300.533 618.916 305.333L621.45 314V308.267C621.584 305.067 620.65 300.8 619.583 298.667C617.582 294.8 616.248 293.6 616.248 295.6Z" fill="black"/>
<path d="M573.698 306.667C574.365 312.533 576.232 319.333 578.633 324.4L582.368 332.667L584.369 322.533L586.37 312.4L579.567 304.667L572.764 296.933L573.698 306.667Z" fill="black"/>
<path d="M198.347 300.933C197.813 301.333 197.413 304.267 197.413 307.2L197.546 312.667L200.214 307.6C202.615 302.933 202.615 300 200.214 300C199.68 300 198.747 300.4 198.347 300.933Z" fill="black"/>
<path d="M201.681 313.2C197.279 321.467 197.146 322.133 198.346 330.533C198.88 335.333 200.08 339.2 200.747 338.933C203.282 338.133 206.75 322.267 206.483 313.333L206.083 304.667L201.681 313.2Z" fill="black"/>
<path d="M233.561 316.933L223.69 326L230.093 337.733C233.561 344.133 236.629 349.333 236.896 349.333C237.162 349.333 239.563 345.067 242.231 339.867C246.633 330.933 246.9 329.733 246.099 322.4C244.232 306.4 244.765 306.667 233.561 316.933Z" fill="black"/>
<path d="M630.521 311.6C630.121 312.267 631.321 315.333 633.055 318.667C635.99 324.533 636.123 324.533 636.123 320.667C636.257 314.8 634.923 310.667 632.788 310.667C631.855 310.667 630.788 311.067 630.521 311.6Z" fill="black"/>
<path d="M210.752 319.467C209.951 322.267 209.418 326.667 209.685 329.067L210.085 333.467L214.62 329.6C219.555 325.6 219.555 323.467 214.887 317.467L212.352 314.133L210.752 319.467Z" fill="black"/>
<path d="M626.519 315.6C623.718 318.267 627.853 350.667 630.921 350.667C631.454 350.667 632.522 346.4 633.455 341.333C634.923 332.4 634.789 331.6 631.454 323.6C627.453 314.133 627.586 314.4 626.519 315.6Z" fill="black"/>
<path d="M588.904 317.6C588.637 318.533 587.57 323.6 586.503 328.667L584.769 338L589.571 348.667L594.373 359.2L600.775 347.733C604.377 341.333 607.178 335.733 606.911 335.067C606.111 332.267 589.437 316.133 588.904 317.6Z" fill="black"/>
<path d="M252.769 326.533C251.035 330.667 250.768 332.933 251.702 336.933L252.902 342L254.503 332.133C255.436 326.8 255.97 322.133 255.703 321.867C255.436 321.467 254.103 323.6 252.769 326.533Z" fill="black"/>
<path d="M615.848 329.067L612.38 334.267L617.849 339.467L623.184 344.667L622.518 336.4C622.117 332 621.317 327.2 620.65 326C619.583 324.133 618.916 324.667 615.848 329.067Z" fill="black"/>
<path d="M193.011 332C191.41 337.867 191.944 342.667 194.078 342.667C196.212 342.667 196.612 338 194.878 332L193.945 328.667L193.011 332Z" fill="black"/>
<path d="M214.22 334.133L208.884 338.667L208.484 353.733L207.95 368.667L213.953 373.733L219.955 378.8L221.956 375.733C223.023 374 226.224 368.533 229.159 363.467L234.494 354.267L228.359 341.733C224.891 334.933 221.556 329.333 220.756 329.333C220.089 329.467 217.021 331.467 214.22 334.133Z" fill="black"/>
<path d="M576.766 334C577.166 336.933 577.566 340.933 577.566 342.933C577.566 348.133 579.834 347.6 580.634 342.267C581.034 339.467 580.367 336.4 578.633 333.333L576.099 328.667L576.766 334Z" fill="black"/>
<path d="M242.764 345.333L238.496 353.733L242.098 362.133C244.098 366.8 246.233 370.667 246.766 370.667C249.834 370.667 250.634 340.8 247.566 337.733C247.3 337.333 245.032 340.8 242.764 345.333Z" fill="black"/>
<path d="M602.91 350.533L596.107 362.533L601.709 373.6C609.446 389.067 608.912 388.8 615.581 383.333L621.184 378.667L622.251 363.733L623.185 348.8L617.315 343.733C614.248 341.067 611.18 338.667 610.646 338.667C610.246 338.667 606.645 344 602.91 350.533Z" fill="black"/>
<path d="M203.282 347.067C202.215 351.733 202.215 355.067 203.282 359.733L204.749 366L205.149 359.6C205.416 356.133 205.416 350.533 205.149 346.933L204.749 340.667L203.282 347.067Z" fill="black"/>
<path d="M636.256 343.2C636.256 344.133 635.856 346.933 635.456 349.2C634.789 352.4 635.056 353.333 636.657 353.333C639.724 353.333 640.258 351.733 639.324 346.267C638.657 341.6 636.256 339.333 636.256 343.2Z" fill="black"/>
<path d="M581.834 353.067C580.234 362.533 580.901 376.8 583.035 378.133C583.702 378.4 585.969 375.067 588.237 370.533L592.372 362.4L587.837 352.933L583.435 343.333L581.834 353.067Z" fill="black"/>
<path d="M625.852 362C625.852 372.8 625.986 373.467 627.186 368.4C628.119 364.667 628.119 360.8 627.186 356.4C625.986 350.267 625.852 350.533 625.852 362Z" fill="black"/>
<path d="M229.025 370.267L222.49 381.733L231.56 390.8C236.495 395.733 241.03 399.6 241.43 399.333C241.964 399.067 243.165 394.267 244.098 388.667L245.832 378.667L241.43 368.667C239.03 363.2 236.762 358.667 236.228 358.667C235.828 358.667 232.494 363.867 229.025 370.267Z" fill="black"/>
<path d="M191.41 364.133C190.877 364.8 191.01 367.867 191.41 370.933C192.477 376.8 193.811 376 195.145 368.4C195.679 365.467 195.412 364 194.078 363.467C193.011 363.067 191.81 363.333 191.41 364.133Z" fill="black"/>
<path d="M198.347 369.6C195.679 380.933 195.812 385.067 199.414 393.2C201.414 397.6 203.682 400.933 204.482 400.4C207.017 398.8 202.882 366.667 200.081 366.667C199.547 366.667 198.747 368 198.347 369.6Z" fill="black"/>
<path d="M588.904 376.133C584.102 385.333 583.969 386 584.902 394.933C586.37 410.667 586.236 410.667 597.174 399.733L606.778 390L600.375 378.267L593.973 366.533L588.904 376.133Z" fill="black"/>
<path d="M250.234 373.067C249.567 377.333 249.968 379.867 251.968 383.733L254.636 388.667L253.836 380.667C252.635 368.933 251.435 366.133 250.234 373.067Z" fill="black"/>
<path d="M208.484 381.2C209.418 392.267 210.751 393.333 215.153 386.933L218.621 381.6L215.687 379.067C207.417 371.867 207.55 371.867 208.484 381.2Z" fill="black"/>
<path d="M634.923 378.267C634.923 384.8 636.923 388.133 637.991 383.733C639.591 378.133 639.058 373.333 636.923 373.333C635.456 373.333 634.923 374.8 634.923 378.267Z" fill="black"/>
<path d="M577.166 380C576.632 383.333 575.832 388.133 575.432 390.667L574.765 395.333L577.433 390.533C579.567 386.533 579.967 384.533 579.167 379.867L578.1 374L577.166 380Z" fill="black"/>
<path d="M629.187 376.933C626.252 381.733 621.984 409.867 623.985 411.2C624.652 411.6 627.053 408 629.454 403.333C633.455 395.067 633.589 394.267 632.388 385.867C631.054 376.933 630.387 374.933 629.187 376.933Z" fill="black"/>
<path d="M615.982 387.067L611.046 391.333L614.648 397.333L618.116 403.2L619.85 397.333C620.917 394 621.451 389.467 621.317 387.067L620.917 382.8L615.982 387.067Z" fill="black"/>
<path d="M216.221 390.933L211.819 397.733L215.42 412L219.155 426.267L226.225 429.733C230.093 431.733 233.561 432.8 233.828 432.267C234.228 431.733 235.829 425.6 237.429 418.4L240.63 405.6L233.828 397.733C230.093 393.467 225.558 388.667 223.957 387.067L220.756 384.133L216.221 390.933Z" fill="black"/>
<path d="M246.766 391.467C245.966 395.733 245.032 400.533 244.632 402C244.365 403.867 246.366 406.933 251.034 412L257.837 419.333L257.17 410.533C256.77 405.067 255.036 398.533 252.368 392.667L248.367 383.6L246.766 391.467Z" fill="black"/>
<path d="M194.745 397.333C194.745 404.533 196.479 408.133 198.88 405.733C200.081 404.533 199.814 402.667 197.68 397.733L194.879 391.333L194.745 397.333Z" fill="black"/>
<path d="M576.499 400.933C572.897 408.533 568.629 424.933 569.963 426.267C570.23 426.4 573.431 423.467 577.299 419.6L584.102 412.667L582.501 402.267L580.901 391.733L576.499 400.933Z" fill="black"/>
<path d="M597.441 403.733L587.704 412.933L589.971 426.133C591.305 433.333 592.772 439.733 593.306 440.267C593.973 440.933 597.441 440 601.042 438.533L607.845 435.6L612.38 421.733L616.782 407.867L613.314 401.6C611.447 398.133 609.179 395.2 608.379 394.933C607.712 394.667 602.776 398.667 597.441 403.733Z" fill="black"/>
<path d="M630.254 409.333C627.72 414.933 628.12 416.8 631.588 415.6C632.922 415.067 633.589 412.933 633.589 409.333C633.589 406.4 633.322 404 633.189 404C632.922 404 631.588 406.4 630.254 409.333Z" fill="black"/>
<path d="M209.551 410C209.418 413.333 210.485 416.8 212.086 419.333L214.887 423.333L213.953 419.333C213.419 417.067 212.219 412.933 211.285 410L209.685 404.667L209.551 410Z" fill="black"/>
<path d="M240.363 420.267C238.763 427.067 237.429 433.333 237.429 434.133C237.429 434.933 239.43 436.533 241.831 437.733C244.098 438.8 249.3 441.733 253.302 444L260.505 448.267L259.571 437.067C258.504 425.333 257.971 424.267 249.034 414.267L243.298 407.867L240.363 420.267Z" fill="black"/>
<path d="M616.382 419.867C614.781 425.067 613.181 430.267 612.78 431.6C612.38 432.933 613.447 431.733 615.315 428.933C618.249 424.4 621.184 412.4 619.717 411.067C619.45 410.8 617.983 414.8 616.382 419.867Z" fill="black"/>
<path d="M261.572 418.667C261.439 422.133 262.506 424.667 265.44 428C269.842 433.2 269.709 432 264.373 420L261.572 414V418.667Z" fill="black"/>
<path d="M575.965 424.933C569.296 431.867 568.496 433.333 567.695 440C567.162 444 566.495 449.333 566.095 451.6L565.294 456L577.032 449.733C583.568 446.4 589.171 443.467 589.304 443.2C590.104 442.667 585.036 417.333 584.235 417.333C583.835 417.333 580.1 420.8 575.965 424.933Z" fill="black"/>
<path d="M561.693 430.4L557.291 439.333L561.293 435.6C564.761 432.267 568.096 423.467 566.628 421.867C566.362 421.6 564.094 425.467 561.693 430.4Z" fill="black"/>
<path d="M202.215 426.4C201.548 427.467 206.483 439.467 207.15 438.533C207.417 438.267 207.417 435.2 207.017 431.6C206.617 427.6 205.816 425.333 204.749 425.333C203.682 425.333 202.615 425.867 202.215 426.4Z" fill="black"/>
<path d="M211.018 436.267C212.085 444.533 212.886 446.533 217.554 452.267C222.623 458.267 225.424 460.133 225.424 457.6C225.424 452.4 213.286 426.667 210.885 426.667C210.351 426.667 210.351 430.933 211.018 436.267Z" fill="black"/>
<path d="M221.423 433.067C221.423 434.4 223.023 438.667 225.024 442.667L228.626 449.867L230.226 445.2C232.894 437.733 232.494 436.267 226.758 433.333C221.689 430.8 221.423 430.8 221.423 433.067Z" fill="black"/>
<path d="M263.439 440C263.839 445.467 264.506 450.267 264.907 450.8C265.707 452.133 281.447 461.333 281.447 460.533C281.447 457.733 271.309 439.6 267.308 435.333L262.506 430L263.439 440Z" fill="black"/>
<path d="M610.379 444C605.177 452.267 599.708 466.533 601.042 467.867C601.442 468.267 604.777 465.6 608.245 461.733C613.714 455.867 614.781 453.733 615.581 447.733C615.982 443.867 616.782 439.6 617.049 438.267C618.516 433.467 615.048 436.267 610.379 444Z" fill="black"/>
<path d="M619.85 441.6C619.45 444.8 619.316 447.467 619.583 447.733C620.117 448.267 625.586 438.133 625.586 436.667C625.586 436.267 624.518 436 623.051 436C621.184 436 620.383 437.333 619.85 441.6Z" fill="black"/>
<path d="M235.428 440.267C235.161 441.2 233.961 444.533 232.894 447.733L230.893 453.467L238.496 466C245.299 477.333 246.499 478.667 250.768 479.333C253.302 479.867 257.037 480.533 259.038 480.8C262.506 481.467 262.639 481.333 262.106 476.4C261.972 473.6 261.705 467.067 261.572 462L261.439 452.667L249.834 446C235.695 437.867 236.229 438 235.428 440.267Z" fill="black"/>
<path d="M557.958 444.4C553.556 448.933 544.219 464.4 544.219 467.2C544.219 468.133 560.626 458.4 561.693 456.933C562.627 455.6 564.494 439.867 563.827 439.2C563.56 438.933 560.893 441.2 557.958 444.4Z" fill="black"/>
<path d="M599.442 442.533L593.839 445.067L595.307 451.2C596.107 454.533 597.174 457.333 597.708 457.333C599.041 457.333 605.978 443.067 605.311 441.467C605.044 440.667 602.643 441.2 599.442 442.533Z" fill="black"/>
<path d="M577.966 453.067C564.227 459.867 564.894 459.067 563.427 476.267L562.493 488H565.694C576.899 488 578.366 486.933 586.903 474L595.04 461.6L592.905 454.133C591.705 450 590.638 446.667 590.504 446.8C590.371 446.8 584.769 449.6 577.966 453.067Z" fill="black"/>
<path d="M213.419 453.6C213.286 456.4 217.954 465.333 219.422 465.333C222.89 465.333 222.49 463.2 218.088 458C215.553 455.067 213.553 453.067 213.419 453.6Z" fill="black"/>
<path d="M264.507 458.667C265.04 461.067 265.44 467.333 265.44 472.533V482.133L278.379 485.067C285.448 486.667 291.451 487.867 291.584 487.6C291.718 487.467 290.117 482.667 287.983 477.067C283.848 466.4 283.314 465.867 265.574 455.333C264.106 454.4 263.84 455.067 264.507 458.667Z" fill="black"/>
<path d="M282.914 455.333C282.914 458.8 287.849 465.867 292.118 468.4L296.786 471.333L293.852 467.333C289.05 460.667 282.914 453.867 282.914 455.333Z" fill="black"/>
<path d="M230.226 461.6C232.227 468.4 233.294 470.133 237.562 474C241.564 477.733 241.831 477.733 239.963 474.667C238.763 472.8 236.228 468.533 234.228 464.933C230.226 458.133 228.759 456.933 230.226 461.6Z" fill="black"/>
<path d="M537.417 466.4C534.882 469.067 531.814 472.533 530.747 474C529.013 476.4 529.147 476.4 533.548 473.733C537.95 471.067 543.953 463.2 542.619 462C542.352 461.6 539.951 463.6 537.417 466.4Z" fill="black"/>
<path d="M550.622 467.733C542.085 472.4 541.418 473.2 537.416 482C535.149 487.067 533.015 492 532.615 492.8C532.348 493.6 537.15 493.2 545.42 491.6L558.625 489.067L559.559 480.8C559.959 476.4 560.626 470.4 561.026 467.6C561.426 464.933 561.293 462.667 560.626 462.667C560.092 462.667 555.557 464.933 550.622 467.733Z" fill="black"/>
<path d="M607.045 467.733C603.176 472.8 602.91 474.667 606.378 474.667C607.978 474.667 612.914 464.133 611.847 463.067C611.446 462.8 609.312 464.933 607.045 467.733Z" fill="black"/>
<path d="M591.438 473.067C589.171 476.533 586.236 481.067 584.903 483.333L582.368 487.333L586.77 483.333C590.772 479.867 597.174 468.533 595.974 467.333C595.707 467.067 593.706 469.733 591.438 473.067Z" fill="black"/>
<path d="M289.45 471.2C289.45 472.933 295.452 487.6 296.653 488.8C298.254 490.4 314.794 495.067 315.727 494.267C316.661 493.2 298.387 475.467 293.852 472.933C291.451 471.6 289.45 470.8 289.45 471.2Z" fill="black"/>
<path d="M528.88 480.267C521.543 484.667 514.741 490.8 510.872 496.133L508.338 499.6L517.942 497.333L527.546 495.2L531.948 486.133C534.349 481.067 536.083 476.8 535.949 476.533C535.682 476.4 532.481 478 528.88 480.267Z" fill="black"/>
<path d="M230.893 482.533C229.426 483.467 229.559 484.4 231.827 487.6C234.761 491.733 238.763 495.6 238.763 494.267C238.763 493.2 233.561 481.333 233.161 481.333C232.894 481.333 231.96 481.867 230.893 482.533Z" fill="black"/>
<path d="M237.429 482C237.429 482.4 239.163 486.533 241.297 491.2C244.498 498.4 246.366 500.667 252.635 504.8C256.77 507.467 260.505 509.333 261.038 508.933C262.239 507.6 255.169 497.6 246.899 488.933C240.23 482.133 237.429 480 237.429 482Z" fill="black"/>
<path d="M251.301 486.133C255.036 491.867 260.372 497.333 261.706 496.533C263.173 495.6 263.173 485.733 261.706 484.8C261.039 484.4 257.837 483.733 254.636 483.2L248.9 482.267L251.301 486.133Z" fill="black"/>
<path d="M265.44 493.6V502L276.245 511.733L287.049 521.467L294.652 520.533C298.787 520.133 302.388 519.467 302.655 519.2C303.722 518.267 294.118 493.067 292.251 492.133C291.051 491.467 285.582 490 280.113 488.667C274.644 487.467 269.042 486.133 267.841 485.733C265.707 485.2 265.44 486.133 265.44 493.6Z" fill="black"/>
<path d="M318.262 492.267C320.263 494.8 324.131 497.333 326.932 498.133C329.866 499.067 332.134 499.467 332.134 499.2C332.134 498.533 316.394 488 315.461 488C314.927 488 316.261 490 318.262 492.267Z" fill="black"/>
<path d="M578.1 495.733C567.829 505.2 560.226 516 563.694 516C564.094 516 567.695 514.133 571.564 511.867C577.299 508.267 579.3 506.133 582.768 499.067C588.771 486.8 588.237 486.4 578.1 495.733Z" fill="black"/>
<path d="M563.961 492.133C562.227 493.067 561.56 495.2 561.56 499.467V505.467L565.962 502.133C568.229 500.4 571.297 497.067 572.631 494.8L575.032 490.667H570.63C568.229 490.667 565.161 491.333 563.961 492.133Z" fill="black"/>
<path d="M588.237 496.133C586.636 499.2 585.703 501.867 585.97 502.133C587.037 503.2 595.04 493.2 594.24 491.867C592.639 489.467 590.905 490.667 588.237 496.133Z" fill="black"/>
<path d="M501.135 496.8C492.865 502 492.198 503.467 498.734 502C501.002 501.467 504.203 499.2 506.204 496.533C508.072 494 509.539 492 509.272 492C509.005 492 505.404 494.267 501.135 496.8Z" fill="black"/>
<path d="M544.353 495.2L530.347 498L525.278 510.533C522.477 517.467 520.21 523.6 520.21 524.133C520.21 524.667 523.811 525.467 528.213 526L536.216 526.933L545.687 519.2C550.889 514.8 555.957 510.667 557.025 509.867C558.492 508.667 558.892 506.133 558.625 500.4L558.225 492.4L544.353 495.2Z" fill="black"/>
<path d="M301.855 506L306.123 518.667H319.862C327.332 518.667 333.468 518.267 333.468 517.6C333.468 517.067 330.267 512.8 326.398 508.133C319.329 499.333 317.461 498.267 301.055 494.133L297.587 493.333L301.855 506Z" fill="black"/>
<path d="M514.207 501.6C503.936 504.133 503.269 504.533 496.6 512.4C488.597 522.133 488.597 522.133 505.404 522.8L516.608 523.333L521.543 510.933C524.211 504.267 526.079 498.667 525.678 498.8C525.278 498.8 520.076 500.133 514.207 501.6Z" fill="black"/>
<path d="M331.6 509.333L337.87 517.333H347.607C353.076 517.333 357.477 517.067 357.477 516.933C357.477 515.067 341.471 506 334.535 503.867C329.866 502.533 325.998 501.333 325.731 501.333C325.465 501.333 328.132 504.933 331.6 509.333Z" fill="black"/>
<path d="M487.53 507.867C483.128 509.2 476.325 512.4 472.324 514.8L465.121 519.333L470.323 520.267C482.461 522.4 484.729 521.867 490.464 514.933C499.535 504.133 499.668 504.267 487.53 507.867Z" fill="black"/>
<path d="M249.434 507.6C249.434 508.267 251.168 510.8 253.169 513.2C256.37 517.067 257.037 517.333 258.504 515.6C259.971 513.867 259.571 513.2 256.503 511.067C250.768 507.067 249.434 506.4 249.434 507.6Z" fill="black"/>
<path d="M267.574 510.533C268.908 512.933 271.576 516 273.443 517.333C277.445 520.133 282.781 522.933 282.781 522.267C282.781 522 278.779 518.267 273.844 513.867C265.974 506.933 265.173 506.533 267.574 510.533Z" fill="black"/>
<path d="M359.478 513.867C362.546 516.4 364.947 517.2 369.482 517.2H375.485L368.815 514.8C365.214 513.467 360.679 512 358.811 511.467C355.61 510.533 355.61 510.533 359.478 513.867Z" fill="black"/>
<path d="M456.451 515.867C445.913 518.933 444.846 520 452.316 520C456.184 519.867 460.052 518.8 463.52 516.667C469.789 512.8 468.055 512.667 456.451 515.867Z" fill="black"/>
<path d="M548.888 520.667C539.284 528.533 538.884 529.467 546.62 525.467C550.622 523.333 560.493 513.333 558.492 513.333C558.092 513.333 553.823 516.667 548.888 520.667Z" fill="black"/>
<path d="M568.096 517.733C565.428 519.333 563.561 521.467 563.827 522.267C564.894 525.333 567.829 524.133 571.43 519.333C575.565 513.867 574.765 513.467 568.096 517.733Z" fill="black"/>
<path d="M310.525 522.267C307.724 522.933 307.724 522.8 309.858 531.333L311.592 538L324.798 544.4L338.003 550.8L345.072 547.867C353.476 544.533 353.476 544.8 343.739 531.067L336.802 521.333L324.798 521.467C318.262 521.6 311.726 521.867 310.525 522.267Z" fill="black"/>
<path d="M341.471 522C341.471 522.4 344.139 526.4 347.473 530.933C350.941 535.467 354.143 540.133 354.81 541.2C355.877 543.067 357.211 542.933 367.081 539.467C383.221 533.867 382.821 534.533 373.084 527.6L364.28 521.333H352.942C346.673 521.333 341.471 521.6 341.471 522Z" fill="black"/>
<path d="M370.816 521.867C370.816 522.133 374.284 524.667 378.553 527.6L386.156 532.933L396.026 530L406.03 527.067L397.494 524.267C390.291 521.733 370.816 520 370.816 521.867Z" fill="black"/>
<path d="M406.03 523.467C410.032 524.933 412.433 525.067 416.301 524C419.236 523.2 421.503 522.267 421.503 522C421.503 521.6 416.835 521.333 411.233 521.467H400.828L406.03 523.467Z" fill="black"/>
<path d="M294.785 523.867L290.117 524.667L294.785 528.133C300.788 532.667 305.456 535.067 306.39 534.133C306.924 533.733 306.524 530.933 305.59 528C303.989 522.4 303.589 522.267 294.785 523.867Z" fill="black"/>
<path d="M423.504 525.067L416.835 527.067L421.236 528.933C423.504 529.867 428.173 531.333 431.374 532.267C437.11 533.733 437.51 533.733 445.78 528.267L454.183 522.667L442.178 522.8C435.509 522.933 427.239 523.867 423.504 525.067Z" fill="black"/>
<path d="M449.515 529.333L439.911 535.6L452.716 540.667C460.319 543.733 466.055 545.333 466.588 544.533C471.39 538.933 481.794 525.067 481.394 524.8C481.127 524.533 476.059 524 470.056 523.733L459.252 523.067L449.515 529.333Z" fill="black"/>
<path d="M477.792 535.467C473.257 541.333 469.522 546.4 469.522 546.8C469.522 547.333 472.59 549.2 476.325 551.067L483.128 554.4L496.6 548.8L510.072 543.067L512.606 535.467C513.94 531.333 514.874 527.6 514.741 527.333C514.474 527.067 507.805 526.4 500.068 526L485.929 524.933L477.792 535.467Z" fill="black"/>
<path d="M281.447 529.333C285.048 536.133 292.918 542.4 300.655 544.533C304.923 545.867 308.791 546.4 309.192 546C310.525 544.8 298.921 535.2 290.651 530.8C281.58 525.867 279.446 525.6 281.447 529.333Z" fill="black"/>
<path d="M274.377 528.933C272.243 530.933 273.844 533.467 278.912 536.133L284.515 538.933L281.714 534.933C278.112 530 275.444 527.733 274.377 528.933Z" fill="black"/>
<path d="M517.809 530.8C515.274 537.467 514.741 540 515.808 540C516.341 540 520.076 538.133 523.945 536C530.614 532.133 532.748 529.333 529.013 529.333C528.08 529.333 525.412 528.933 523.011 528.533C519.543 527.867 518.742 528.133 517.809 530.8Z" fill="black"/>
<path d="M398.294 532.533L389.224 535.333L397.627 542C402.162 545.733 407.098 549.467 408.431 550.4C410.566 552 412.166 551.2 421.637 544.533C433.642 536.133 433.775 536.4 420.57 531.867C411.499 528.8 410.032 528.8 398.294 532.533Z" fill="black"/>
<path d="M530.881 536.667C521.544 541.733 511.006 549.867 512.34 551.2C512.74 551.6 517.008 550.933 521.677 549.6C528.88 547.6 531.414 546.133 536.35 540.8C545.953 530.267 544.62 529.333 530.881 536.667Z" fill="black"/>
<path d="M542.485 538.933C540.618 541.333 539.284 543.467 539.551 543.733C540.618 544.8 548.888 539.2 548.888 537.333C548.888 533.867 545.82 534.533 542.485 538.933Z" fill="black"/>
<path d="M370.949 541.467C364.814 543.6 359.478 545.6 359.211 545.867C358.678 546.267 363.48 555.733 366.281 559.733C366.414 559.867 372.95 561.2 380.953 562.533L395.493 564.933L401.228 560.267C404.296 557.733 406.831 555.2 406.831 554.533C406.831 552.8 386.422 537.333 384.155 537.467C383.088 537.467 377.085 539.333 370.949 541.467Z" fill="black"/>
<path d="M425.238 546C419.636 550 414.7 553.733 414.434 554.267C414.034 554.933 416.435 557.6 419.769 560.533L425.638 565.733L440.177 564L454.717 562.267L458.718 555.733C460.986 552.133 462.853 548.933 462.853 548.667C462.853 548 438.977 538.667 437.11 538.667C436.309 538.667 430.84 542 425.238 546Z" fill="black"/>
<path d="M317.195 546.533C320.929 549.733 331.867 554.133 333.068 552.933C333.201 552.667 328.799 550.267 323.064 547.6C312.926 542.667 312.793 542.667 317.195 546.533Z" fill="black"/>
<path d="M301.188 550.667C305.857 554.933 309.458 555.867 309.458 552.8C309.458 551.733 306.657 550 303.189 548.8L296.786 546.667L301.188 550.667Z" fill="black"/>
<path d="M499.001 551.067C493.532 553.467 490.064 555.467 491.398 555.733C494.599 556.4 501.669 553.733 506.204 550C511.139 545.867 511.139 545.867 499.001 551.067Z" fill="black"/>
<path d="M347.473 550.533L342.138 552.933L347.207 555.067C350.008 556.267 354.41 557.6 357.077 558.133L361.879 559.067L358.811 553.467C355.21 547.2 354.81 547.2 347.473 550.533Z" fill="black"/>
<path d="M462.32 556C459.118 560.8 459.118 561.333 461.253 561.333C464.987 561.333 477.526 557.333 477.526 556.133C477.526 555.2 468.989 550.667 466.988 550.667C466.321 550.667 464.32 553.067 462.32 556Z" fill="black"/>
<path d="M517.942 553.733C513.674 554.667 512.207 555.733 512.207 557.467C512.207 560.533 512.607 560.533 517.409 558.133C520.343 556.533 525.945 551.6 524.078 552.133C523.811 552.267 521.01 552.933 517.942 553.733Z" fill="black"/>
<path d="M332.134 557.867C332.134 558.133 335.869 560.933 340.27 563.867C347.873 568.933 349.074 569.333 357.611 569.333C362.679 569.333 366.814 568.8 366.814 568.267C366.814 566.667 351.742 560.4 344.139 558.8C337.869 557.333 332.134 556.933 332.134 557.867Z" fill="black"/>
<path d="M405.63 560.8C403.363 562.667 401.762 564.8 402.295 565.467C402.696 566.133 406.964 566.667 411.899 566.667H420.703L416.168 562C413.633 559.467 411.232 557.333 410.699 557.333C410.165 557.333 407.898 558.933 405.63 560.8Z" fill="black"/>
<path d="M477.526 562C466.722 563.867 455.117 568 454.317 570.267C453.783 571.6 455.917 572 463.12 572C471.123 572 473.524 571.467 479.66 567.867C491.398 561.2 490.731 559.6 477.526 562Z" fill="black"/>
<path d="M327.732 562.267C325.998 564 326.798 565.067 330.933 566.533C338.136 569.067 339.87 568.267 335.469 564.667C331.334 561.333 329.333 560.667 327.732 562.267Z" fill="black"/>
<path d="M374.151 566.533C379.62 569.2 389.49 570.267 389.49 568.133C389.49 567.467 386.289 566.533 382.554 566.133C378.686 565.6 374.017 564.933 372.15 564.533C369.882 564.133 370.549 564.8 374.151 566.533Z" fill="black"/>
<path d="M485.396 568.133L479.527 572.133L484.195 571.333C492.065 569.867 493.532 569.2 493.532 567.333C493.532 563.867 491.398 564.133 485.396 568.133Z" fill="black"/>
<path d="M434.175 567.867L427.506 568.667L433.508 569.733C437.776 570.4 441.244 570.133 444.846 568.8L450.181 566.8L445.513 566.933C442.979 567.067 437.91 567.467 434.175 567.867Z" fill="black"/>
<path d="M394.826 571.867C391.091 573.067 391.224 573.2 402.829 577.067C406.831 578.533 410.832 579.467 411.499 579.2C426.172 575.2 428.439 574.4 427.239 573.2C425.505 571.467 399.227 570.4 394.826 571.867Z" fill="black"/>
<path d="M354.81 572.533C354.81 573.467 363.88 577.333 366.281 577.333C367.348 577.333 368.149 576.4 368.149 575.333C368.149 574.267 367.081 573.333 365.614 573.333C364.28 573.333 361.212 572.933 358.945 572.533C356.677 572 354.81 572 354.81 572.533Z" fill="black"/>
<path d="M452.182 577.333C452.182 580.4 452.316 580.533 458.985 578.533C465.254 576.533 464.454 574.667 457.384 574.667C453.116 574.667 452.182 575.067 452.182 577.333Z" fill="black"/>
<path d="M388.957 578.267C387.89 581.067 387.756 580.933 391.224 581.867C392.958 582.267 396.026 582.133 398.16 581.467L402.162 580.533L395.893 578.4C390.424 576.533 389.624 576.4 388.957 578.267Z" fill="black"/>
<path d="M423.771 579.2C417.768 581.067 418.569 582.667 425.505 582.667C430.974 582.667 432.308 581.867 431.241 579.2C430.44 577.067 430.574 577.067 423.771 579.2Z" fill="black"/>
<path d="M212.886 626.133C211.419 627.467 210.752 630.667 210.752 636.133C210.752 643.867 210.885 644 214.487 644C220.489 644 224.09 640.533 224.09 634.933C224.09 629.2 223.157 627.6 219.155 625.467C215.42 623.6 215.287 623.6 212.886 626.133Z" fill="black"/>
<path d="M522.611 636.933C520.476 637.467 520.21 639.333 520.21 652C520.21 665.467 520.343 666.533 523.011 667.333C529.814 669.6 538.217 664 539.684 656.267C541.952 644.533 532.881 634.4 522.611 636.933Z" fill="black"/>
<path d="M611.313 636.933C610.246 637.333 609.579 640.133 609.579 644.133C609.579 650 609.846 650.667 612.647 650.667C616.782 650.667 618.516 649.2 619.583 645.067C620.25 642.533 619.717 640.8 617.716 638.8C614.781 635.867 614.114 635.733 611.313 636.933Z" fill="black"/>
</g>
<defs>
<clipPath id="clip0_2_285">
<rect width="826.667" height="836" fill="white"/>
</clipPath>
</defs>
</svg>
