<svg width="60" height="56" viewBox="0 0 60 56" fill="none" xmlns="http://www.w3.org/2000/svg">
<path fill-rule="evenodd" clip-rule="evenodd" d="M55.014 43.389L45.461 38.613C44.56 38.162 44 37.256 44 36.248V32.867C44.229 32.587 44.47 32.268 44.719 31.916C45.958 30.166 46.951 28.218 47.673 26.117C49.084 25.47 50 24.075 50 22.5V18.5C50 17.537 49.64 16.604 49 15.875V10.556C49.056 10.006 49.276 6.732 46.908 4.031C44.854 1.688 41.521 0.5 37 0.5C32.479 0.5 29.146 1.688 27.092 4.03C25.657 5.667 25.174 7.511 25.028 8.835C23.314 7.949 21.294 7.5 19 7.5C8.611 7.5 8.006 16.355 8 16.5V21.079C7.352 21.785 7 22.6 7 23.409V26.863C7 27.942 7.483 28.948 8.311 29.628C9.136 32.738 11.165 35.088 11.955 35.913V38.656C11.955 39.443 11.527 40.165 10.784 40.571L4.131 44.744C1.583 46.134 0 48.801 0 51.703V55.5H14H16H60V51.457C60 48.019 58.089 44.927 55.014 43.389ZM14 51.262V53.5H2V51.703C2 49.533 3.184 47.539 5.141 46.47L11.793 42.297C13.126 41.57 13.954 40.176 13.954 38.656V35.065L13.636 34.768C13.61 34.744 10.953 32.234 10.168 28.813L10.077 28.417L9.735 28.197C9.275 27.899 9 27.4 9 26.863V23.409C9 23.049 9.245 22.621 9.671 22.235L10 21.938L9.998 16.558C10.016 16.271 10.537 9.5 19 9.5C21.393 9.5 23.408 10.053 25 11.144V15.875C24.36 16.604 24 17.537 24 18.5V22.5C24 22.804 24.035 23.103 24.101 23.393C24.1176 23.4643 24.1444 23.5319 24.1712 23.5994C24.188 23.6417 24.2048 23.6839 24.219 23.727C24.2328 23.7693 24.246 23.8118 24.2591 23.8544C24.2982 23.9812 24.3374 24.108 24.395 24.227L24.396 24.2288C24.3967 24.2298 24.3973 24.2307 24.398 24.232C24.654 24.76 25.027 25.232 25.497 25.609C25.4998 25.6195 25.5028 25.6294 25.5059 25.6392L25.5059 25.6392C25.5083 25.6471 25.5108 25.655 25.513 25.663C25.573 25.892 25.636 26.12 25.704 26.343L25.785 26.604C25.7936 26.6323 25.8034 26.661 25.8131 26.6896C25.8155 26.6968 25.818 26.704 25.8204 26.7112C25.824 26.7218 25.8276 26.7324 25.831 26.743L25.8545 26.8158C25.8814 26.8992 25.9081 26.9819 25.936 27.064C25.996 27.239 26.059 27.42 26.132 27.617C26.1494 27.6631 26.1678 27.7068 26.1863 27.7505C26.2006 27.7845 26.215 27.8186 26.229 27.854C26.311 28.063 26.393 28.265 26.479 28.465C26.4857 28.4802 26.492 28.4958 26.4982 28.5115C26.5014 28.5196 26.5046 28.5277 26.5078 28.5358C26.5179 28.5617 26.5281 28.5875 26.539 28.612L26.595 28.738C26.6089 28.7689 26.623 28.7981 26.6371 28.8273C26.6495 28.8529 26.6619 28.8784 26.674 28.905C26.772 29.119 26.868 29.326 26.968 29.526C26.976 29.542 26.9838 29.5588 26.9915 29.5755C26.9993 29.5923 27.007 29.609 27.015 29.625C27.064 29.7222 27.113 29.8151 27.1619 29.9081L27.204 29.988C27.312 30.194 27.418 30.388 27.524 30.576C27.576 30.668 27.627 30.758 27.678 30.845C27.822 31.091 27.959 31.317 28.092 31.527C28.1058 31.5483 28.1193 31.5701 28.1327 31.5917C28.1476 31.6157 28.1623 31.6394 28.177 31.662C28.419 32.037 28.629 32.341 28.803 32.578C28.8196 32.6007 28.8354 32.6223 28.8507 32.643C28.8653 32.6629 28.8794 32.6821 28.8933 32.7008L28.928 32.748C28.9436 32.7685 28.9632 32.7956 28.98 32.8188C28.987 32.8284 28.9935 32.8374 28.999 32.845V36.154C28.999 37.122 28.471 38.01 27.622 38.474L24.976 39.917L24.515 39.876L24.327 40.271L18.701 43.34C15.801 44.924 14 47.958 14 51.262ZM16 51.262V53.5H58V51.457C58 48.78 56.513 46.374 54.119 45.177L44.566 40.401C42.983 39.609 42 38.018 42 36.248V32.123L42.249 31.839C42.5 31.554 42.789 31.181 43.086 30.76C44.298 29.05 45.251 27.128 45.92 25.047L46.08 24.552L46.578 24.399C47.428 24.137 48 23.373 48 22.5V18.5C48 17.939 47.762 17.416 47.33 17.026L47 16.728L47.009 10.369L47.0093 10.3662C47.0199 10.2633 47.3047 7.49703 45.386 5.328C43.727 3.451 40.905 2.5 37 2.5C33.081 2.5 30.253 3.458 28.596 5.349C26.982 7.19 26.939 9.403 26.973 10.125L27 10.146V10.5V16.728L26.67 17.025C26.238 17.416 26 17.939 26 18.5V22.5C26 23.176 26.346 23.803 26.926 24.177L27.267 24.397L27.358 24.793C27.434 25.125 27.524 25.448 27.618 25.764C27.6214 25.776 27.6252 25.7876 27.6289 25.7991C27.6316 25.8078 27.6344 25.8164 27.637 25.825L27.692 26.003C27.784 26.296 27.88 26.58 27.982 26.852C28.0315 26.9854 28.0786 27.1039 28.1247 27.2201C28.1308 27.2354 28.1369 27.2507 28.143 27.266C28.1497 27.2827 28.1564 27.2995 28.163 27.3163C28.1764 27.3499 28.1897 27.3834 28.203 27.416C28.259 27.551 28.314 27.682 28.369 27.807C28.3775 27.8265 28.3862 27.8457 28.395 27.865C28.4037 27.8843 28.4125 27.9035 28.421 27.923C28.545 28.202 28.672 28.47 28.799 28.725C28.799 28.726 28.8 28.727 28.8 28.727C29.039 29.202 29.279 29.631 29.505 30.01C29.513 30.024 29.521 30.0369 29.529 30.0499L29.529 30.05C29.635 30.227 29.739 30.394 29.837 30.547C29.8395 30.5505 29.8418 30.5543 29.844 30.558C29.8462 30.5618 29.8485 30.5655 29.851 30.569C30.059 30.893 30.246 31.162 30.395 31.369C30.396 31.371 30.397 31.372 30.398 31.374C30.469 31.473 30.531 31.556 30.584 31.625C30.591 31.633 30.597 31.641 30.603 31.649C30.6821 31.7524 30.7373 31.8208 30.7584 31.847C30.7643 31.8543 30.7676 31.8583 30.768 31.859L30.806 31.904L31 32.136V32.137V36.155C31 37.854 30.073 39.417 28.58 40.232L19.659 45.098C17.402 46.328 16 48.691 16 51.262Z" fill="black"/>
<path fill-rule="evenodd" clip-rule="evenodd" d="M52 47C54.7614 47 57 44.7614 57 42C57 39.2386 54.7614 37 52 37C49.2386 37 47 39.2386 47 42C47 44.7614 49.2386 47 52 47Z" fill="#FDCF26"/>
</svg>
