<svg width="58" height="54" viewBox="0 0 58 54" fill="none" xmlns="http://www.w3.org/2000/svg">
<path fill-rule="evenodd" clip-rule="evenodd" d="M33.2635 6.3L28.7635 0H9.4V3.6H6.7V7.2H4V54H5.8H56.2H58V15.3V13.5V11.7V9.9V6.3H33.2635ZM5.8 52.2V9H6.7H22.4365L26.9365 15.3H26.9473L31.1683 21.1959C31.3438 21.4407 31.6201 21.5712 31.9 21.5721V21.6H56.2V52.2H5.8ZM32.3833 19.8H56.2V15.3H29.1622L32.3833 19.8ZM56.2 13.5H27.8725L23.6317 7.5762L23.6308 7.5753L23.3635 7.2H8.5V5.4H9.4H25.1365L29.6365 11.7H56.2V13.5ZM26.0635 3.6L30.5635 9.9H56.2V8.1H32.3365L27.8365 1.8H11.2V3.6H26.0635Z" fill="black"/>
<path fill-rule="evenodd" clip-rule="evenodd" d="M53.5 49.5H28.3V31.5H53.5V49.5ZM51.7 33.3H30.1V47.7H51.7V33.3Z" fill="black"/>
<rect x="33.7" y="36" width="9" height="1.8" fill="black"/>
<rect x="33.7" y="39.6" width="14.4" height="1.8" fill="black"/>
<rect x="33.7" y="43.2" width="14.4" height="1.8" fill="black"/>

</svg>
