<svg width="58" height="54" viewBox="0 0 58 54" fill="none" xmlns="http://www.w3.org/2000/svg">
<path fill-rule="evenodd" clip-rule="evenodd" d="M53.1 14.4H28.8V13.5C28.7952 12.3601 28.0749 11.3458 27 10.9657V7.2H28.8V4.5C28.7969 2.01577 26.7842 0.00307618 24.3 0H6.3C3.81577 0.00307618 1.80308 2.01577 1.8 4.5V10.9657C0.725098 11.3458 0.00483399 12.3601 0 13.5V51.3C0 52.7911 1.20894 54 2.7 54H26.1C27.5911 54 28.8 52.7911 28.8 51.3V37.8H53.1C53.597 37.8 54 37.397 54 36.9V15.3C54 14.803 53.597 14.4 53.1 14.4ZM52.2 16.2V18H28.8V16.2H52.2ZM28.8 21.6H52.2V19.8H28.8V21.6ZM27 4.5V5.4H10.8V4.5C10.7965 3.5231 10.4722 2.57432 9.87671 1.8H24.3C25.7911 1.8 27 3.00894 27 4.5ZM6.3 1.8C4.80894 1.8 3.6 3.00894 3.6 4.5V10.8H25.2V7.2H9.9C9.40298 7.2 9 6.79702 9 6.3V4.5C9 3.00894 7.79106 1.8 6.3 1.8ZM27 51.3C27 51.797 26.597 52.2 26.1 52.2H2.7C2.20298 52.2 1.8 51.797 1.8 51.3V13.5C1.8 13.003 2.20298 12.6 2.7 12.6H26.1C26.597 12.6 27 13.003 27 13.5V51.3ZM28.8 23.4V36H52.2V23.4H28.8Z" fill="black"/>
<path fill-rule="evenodd" clip-rule="evenodd" d="M17.1 36.0001H11.7V30.6001H17.1V36.0001ZM15.3 32.4001H13.5V34.2001H15.3V32.4001Z" fill="black"/>
<path fill-rule="evenodd" clip-rule="evenodd" d="M9.9 36.0001H4.5V30.6001H9.9V36.0001ZM8.1 32.4001H6.3V34.2001H8.1V32.4001Z" fill="black"/>
<path fill-rule="evenodd" clip-rule="evenodd" d="M24.2999 36.0001H18.8999V30.6001H24.2999V36.0001ZM22.4999 32.4001H20.6999V34.2001H22.4999V32.4001Z" fill="black"/>
<path fill-rule="evenodd" clip-rule="evenodd" d="M17.1 43.2H11.7V37.8H17.1V43.2ZM15.3 39.6H13.5V41.4H15.3V39.6Z" fill="black"/>
<path fill-rule="evenodd" clip-rule="evenodd" d="M9.9 43.2H4.5V37.8H9.9V43.2ZM8.1 39.6H6.3V41.4H8.1V39.6Z" fill="black"/>
<path fill-rule="evenodd" clip-rule="evenodd" d="M24.2999 43.2H18.8999V37.8H24.2999V43.2ZM22.4999 39.6H20.6999V41.4H22.4999V39.6Z" fill="black"/>
<path fill-rule="evenodd" clip-rule="evenodd" d="M17.1 50.4H11.7V45H17.1V50.4ZM15.3 46.8H13.5V48.6H15.3V46.8Z" fill="black"/>
<path fill-rule="evenodd" clip-rule="evenodd" d="M9.9 50.4H4.5V45H9.9V50.4ZM8.1 46.8H6.3V48.6H8.1V46.8Z" fill="black"/>
<path fill-rule="evenodd" clip-rule="evenodd" d="M24.2999 50.4H18.8999V45H24.2999V50.4ZM22.4999 46.8H20.6999V48.6H22.4999V46.8Z" fill="black"/>
<path fill-rule="evenodd" clip-rule="evenodd" d="M25.2001 28.7999H3.6001V14.3999H25.2001V28.7999ZM23.4001 16.1999H5.4001V26.9999H23.4001V16.1999Z" fill="black"/>
<path fill-rule="evenodd" clip-rule="evenodd" d="M53 42C55.7614 42 58 39.7614 58 37C58 34.2386 55.7614 32 53 32C50.2386 32 48 34.2386 48 37C48 39.7614 50.2386 42 53 42Z" fill="#FDCF26"/>
</svg>
