<svg width="54" height="54" viewBox="0 0 54 54" fill="none" xmlns="http://www.w3.org/2000/svg">
<path fill-rule="evenodd" clip-rule="evenodd" d="M15.6647 0H38.3357C40.5209 0 42.3002 1.7793 42.3002 3.9645V50.0355C42.3002 52.2207 40.5209 54 38.3348 54H15.6647C13.4795 54 11.7002 52.2207 11.7002 50.0346V3.9645C11.7002 1.7793 13.4795 0 15.6647 0ZM40.5002 7.2H13.5002V41.4H40.5002V7.2ZM15.6647 1.8H38.3348C39.5291 1.8 40.5002 2.7711 40.5002 3.9645V5.4H13.5002V3.9645C13.5002 2.7711 14.4713 1.8 15.6647 1.8ZM15.6647 52.2H38.3357C39.5291 52.2 40.5002 51.2289 40.5002 50.0355V43.2H13.5002V50.0355C13.5002 51.2289 14.4713 52.2 15.6647 52.2Z" fill="black"/>
<path fill-rule="evenodd" clip-rule="evenodd" d="M23.3999 47.7C23.3999 45.7146 25.0145 44.1 26.9999 44.1C28.9853 44.1 30.5999 45.7146 30.5999 47.7C30.5999 49.6854 28.9853 51.3 26.9999 51.3C25.0145 51.3 23.3999 49.6854 23.3999 47.7ZM25.1999 47.7C25.1999 48.6927 26.0072 49.5 26.9999 49.5C27.9926 49.5 28.7999 48.6927 28.7999 47.7C28.7999 46.7073 27.9926 45.9 26.9999 45.9C26.0072 45.9 25.1999 46.7073 25.1999 47.7Z" fill="black"/>
<path d="M23.4 4.50001H27C27.4977 4.50001 27.9 4.09771 27.9 3.60001C27.9 3.10231 27.4977 2.70001 27 2.70001H23.4C22.9023 2.70001 22.5 3.10231 22.5 3.60001C22.5 4.09771 22.9023 4.50001 23.4 4.50001Z" fill="black"/>
<path d="M29.6998 4.50001H30.5998C31.0975 4.50001 31.4998 4.09771 31.4998 3.60001C31.4998 3.10231 31.0975 2.70001 30.5998 2.70001H29.6998C29.2021 2.70001 28.7998 3.10231 28.7998 3.60001C28.7998 4.09771 29.2021 4.50001 29.6998 4.50001Z" fill="black"/>
<path d="M50.9506 4.11207C50.5987 3.76017 50.0299 3.76017 49.678 4.11207C49.3261 4.46397 49.3261 5.03277 49.678 5.38467C53.0404 8.74707 53.0404 14.2182 49.678 17.5815C49.3261 17.9334 49.3261 18.5022 49.678 18.8541C49.8535 19.0296 50.0839 19.1178 50.3143 19.1178C50.5447 19.1178 50.7751 19.0296 50.9506 18.8541C55.015 14.7906 55.015 8.17647 50.9506 4.11207Z" fill="black"/>
<path d="M47.161 6.16047C46.8091 5.80857 46.2403 5.80857 45.8884 6.16047C45.5365 6.51237 45.5365 7.08117 45.8884 7.43307C47.0017 8.54637 47.6146 10.0296 47.6146 11.6082C47.6146 13.1868 47.0017 14.6691 45.8884 15.7824C45.5365 16.1343 45.5365 16.7031 45.8884 17.055C46.0639 17.2305 46.2943 17.3187 46.5247 17.3187C46.7551 17.3187 46.9855 17.2305 47.161 17.055C48.6145 15.6024 49.4146 13.6674 49.4146 11.6082C49.4146 9.54897 48.6154 7.61307 47.161 6.16047Z" fill="black"/>
<path d="M4.32188 5.38467C4.67378 5.03277 4.67378 4.46397 4.32188 4.11207C3.96998 3.76017 3.40118 3.76017 3.04928 4.11207C-1.01512 8.17647 -1.01512 14.7897 3.04928 18.8541C3.22478 19.0296 3.45518 19.1178 3.68558 19.1178C3.91598 19.1178 4.14638 19.0296 4.32188 18.8541C4.67378 18.5022 4.67378 17.9334 4.32188 17.5815C0.958576 14.2191 0.958576 8.74797 4.32188 5.38467Z" fill="black"/>
<path d="M8.11165 5.91212C7.75975 5.56022 7.19095 5.56022 6.83905 5.91212C5.38555 7.36472 4.58545 9.29972 4.58545 11.3589C4.58545 13.4181 5.38555 15.3531 6.83905 16.8066C7.01455 16.9821 7.24495 17.0703 7.47535 17.0703C7.70575 17.0703 7.93615 16.9821 8.11165 16.8066C8.46355 16.4547 8.46355 15.8859 8.11165 15.534C6.99835 14.4207 6.38545 12.9375 6.38545 11.3589C6.38545 9.78032 6.99745 8.29802 8.11165 7.18472C8.46265 6.83372 8.46265 6.26402 8.11165 5.91212Z" fill="black"/>
<path fill-rule="evenodd" clip-rule="evenodd" d="M41 34C43.7614 34 46 31.7614 46 29C46 26.2386 43.7614 24 41 24C38.2386 24 36 26.2386 36 29C36 31.7614 38.2386 34 41 34Z" fill="#FDCF26"/>
</svg>
