<svg width="55" height="58" viewBox="0 0 55 58" fill="none" xmlns="http://www.w3.org/2000/svg">
<path fill-rule="evenodd" clip-rule="evenodd" d="M53.1667 3.86667H46.4V0.966667C46.4 0.4321 45.9679 0 45.4333 0H38.6667C38.1321 0 37.7 0.4321 37.7 0.966667V3.86667H16.4333V0.966667C16.4333 0.4321 16.0012 0 15.4667 0H8.7C8.16543 0 7.73333 0.4321 7.73333 0.966667V3.86667H0.966667C0.4321 3.86667 0 4.29877 0 4.83333V15.4667V57.0333C0 57.5679 0.4321 58 0.966667 58H53.1667C53.7012 58 54.1333 57.5679 54.1333 57.0333V15.4667V4.83333C54.1333 4.29877 53.7012 3.86667 53.1667 3.86667ZM39.6333 1.93333H44.4667V4.83333V7.73333H39.6333V4.83333V1.93333ZM14.5 1.93333H9.66667V4.83333V7.73333H14.5V4.83333V1.93333ZM1.93333 5.8H7.73333V8.7C7.73333 9.23457 8.16543 9.66667 8.7 9.66667H15.4667C16.0012 9.66667 16.4333 9.23457 16.4333 8.7V5.8H37.7V8.7C37.7 9.23457 38.1321 9.66667 38.6667 9.66667H45.4333C45.9679 9.66667 46.4 9.23457 46.4 8.7V5.8H52.2V14.5H1.93333V5.8ZM1.93333 16.4333V56.0667H52.2V16.4333H1.93333Z" fill="black"/>
<path fill-rule="evenodd" clip-rule="evenodd" d="M34.8 22.2333H28.0333H26.1H19.3333H17.4H8.69995V30.9333V32.8666V39.6333V41.5666V50.2666H17.4H19.3333H26.1H28.0333H34.8H36.7333H45.4333V41.5666V39.6333V32.8666V30.9333V22.2333H36.7333H34.8ZM28.0333 24.1666H34.8V30.9333H28.0333V24.1666ZM28.0333 39.6333H34.8V32.8666H28.0333V39.6333ZM19.3333 32.8666H26.1V39.6333H19.3333V32.8666ZM26.1 24.1666H19.3333V30.9333H26.1V24.1666ZM10.6333 24.1666H17.4V30.9333H10.6333V24.1666ZM17.4 32.8666H10.6333V39.6333H17.4V32.8666ZM17.4 48.3333H10.6333V41.5666H17.4V48.3333ZM19.3333 48.3333H26.1V41.5666H19.3333V48.3333ZM34.8 48.3333H28.0333V41.5666H34.8V48.3333ZM36.7333 48.3333H43.5V41.5666H36.7333V48.3333ZM43.5 39.6333H36.7333V32.8666H43.5V39.6333ZM43.5 30.9333V24.1666H36.7333V30.9333H43.5Z" fill="black"/>
<path fill-rule="evenodd" clip-rule="evenodd" d="M36 46C38.7614 46 41 43.7614 41 41C41 38.2386 38.7614 36 36 36C33.2386 36 31 38.2386 31 41C31 43.7614 33.2386 46 36 46Z" fill="#FDCF26"/>
</svg>
