<svg width="898" height="442" viewBox="0 0 898 442" fill="none" xmlns="http://www.w3.org/2000/svg">
<g filter="url(#filter0_d_424_39)">
<path d="M36.48 131.28C36.48 131.493 35.7333 131.333 34.24 130.8C32.8533 130.267 31.2 129.573 29.28 128.72C27.4667 127.76 25.8133 126.747 24.32 125.68C22.9333 124.613 22.24 123.6 22.24 122.64C22.0267 119.227 22.1867 115.28 22.72 110.8C23.2533 106.213 24 101.733 24.96 97.36C26.0267 92.88 27.04 89.1467 28 86.16C28.64 84.3467 29.8667 82.8 31.68 81.52C33.4933 80.24 35.4667 79.28 37.6 78.64C39.84 77.8933 41.8667 77.52 43.68 77.52C45.1733 77.52 46.4 77.7867 47.36 78.32C48.32 78.7467 48.8 79.44 48.8 80.4C48.8 81.1467 48.4267 82.0533 47.68 83.12C46.72 84.5067 45.4933 86.7467 44 89.84C42.6133 92.9333 41.2267 96.3467 39.84 100.08C38.56 103.707 37.44 107.12 36.48 110.32C35.6267 113.413 35.2 115.76 35.2 117.36C35.2 118.747 35.5733 119.28 36.32 118.96C36.5333 118.96 37.0667 118.373 37.92 117.2C38.7733 116.027 39.2533 115.28 39.36 114.96C44.3733 109.2 48.96 104.24 53.12 100.08C57.3867 95.8133 61.7067 92.2933 66.08 89.52C70.56 86.64 75.68 84.4 81.44 82.8C82.9333 82.3733 83.9467 83.0133 84.48 84.72C85.12 86.32 85.4933 88.56 85.6 91.44C85.7067 94.2133 85.76 97.3067 85.76 100.72C85.8667 104.027 86.1333 107.28 86.56 110.48C87.0933 113.573 88 116.187 89.28 118.32C90.56 120.347 92.48 121.52 95.04 121.84C96.8533 122.053 98.9867 121.627 101.44 120.56C103.893 119.493 106.347 117.893 108.8 115.76C111.253 113.627 113.28 111.12 114.88 108.24C116.48 105.36 117.28 102.267 117.28 98.96C117.28 97.2533 117.067 95.5467 116.64 93.84C116.213 92.1333 115.467 90.4267 114.4 88.72C113.867 87.5467 113.28 86.9067 112.64 86.8C112.107 86.5867 111.52 86.5333 110.88 86.64C110.347 86.64 109.76 86.3733 109.12 85.84C107.84 84.88 108.16 84.08 110.08 83.44C112 82.8 114.293 82.48 116.96 82.48C118.987 82.48 120.96 82.6933 122.88 83.12C124.8 83.5467 126.187 84.2933 127.04 85.36C128 86.4267 128.853 88.1333 129.6 90.48C130.347 92.8267 130.72 95.44 130.72 98.32C130.72 101.2 130.187 104.24 129.12 107.44C128.16 110.533 126.4 113.413 123.84 116.08C121.387 118.747 117.973 121.04 113.6 122.96C109.333 124.773 103.84 125.84 97.12 126.16C93.3867 126.373 90.2933 125.68 87.84 124.08C85.3867 122.373 83.4133 120.133 81.92 117.36C80.4267 114.587 79.2533 111.653 78.4 108.56C77.5467 105.36 76.8533 102.373 76.32 99.6C75.7867 96.8267 75.3067 94.5867 74.88 92.88C74.4533 91.0667 73.8667 90.2667 73.12 90.48C70.4533 91.12 67.52 92.8267 64.32 95.6C61.12 98.2667 57.8667 101.627 54.56 105.68C51.36 109.627 48.16 113.84 44.96 118.32C41.8667 122.8 39.04 127.12 36.48 131.28ZM166.958 133.68C162.691 133.68 158.691 132.88 154.958 131.28C151.224 129.787 148.184 127.387 145.838 124.08C143.918 121.307 142.584 118.64 141.838 116.08C141.091 113.413 140.718 110.907 140.718 108.56C140.718 106.32 140.984 104.293 141.518 102.48C142.051 100.56 142.691 99.0133 143.438 97.84C145.678 94 148.024 90.8 150.478 88.24C153.038 85.68 155.811 83.3867 158.798 81.36C162.744 78.8 167.598 77.52 173.358 77.52C175.491 77.52 177.731 78.3733 180.078 80.08C182.424 81.7867 185.838 83.5467 190.318 85.36C193.304 86.5333 196.078 87.92 198.638 89.52C201.304 91.0133 203.438 92.56 205.038 94.16C206.744 95.6533 207.598 97.0933 207.598 98.48C207.598 99.9733 206.371 101.2 203.918 102.16C200.398 103.333 196.238 104.4 191.438 105.36C186.638 106.213 181.838 106.907 177.038 107.44C172.344 107.973 168.184 108.24 164.558 108.24C161.784 108.24 159.651 108.08 158.158 107.76C157.518 110.107 157.198 112.56 157.198 115.12C157.198 117.253 157.518 119.387 158.158 121.52C158.798 123.653 159.864 125.627 161.358 127.44C162.424 128.613 163.598 129.467 164.878 130C166.264 130.427 167.651 130.64 169.038 130.64C171.384 130.64 173.678 130.267 175.918 129.52C178.264 128.667 180.291 127.813 181.998 126.96C183.704 126 184.771 125.36 185.198 125.04C187.331 123.76 188.931 122.8 189.998 122.16C191.171 121.52 192.291 121.2 193.358 121.2C195.278 121.2 196.238 121.627 196.238 122.48C196.238 123.013 195.704 123.813 194.638 124.88C193.571 125.84 191.704 126.96 189.038 128.24C185.624 129.947 181.998 131.28 178.158 132.24C174.424 133.2 170.691 133.68 166.958 133.68ZM168.238 102.96C171.651 102.96 175.651 102.8 180.238 102.48C184.824 102.053 189.784 101.36 195.118 100.4C198.104 99.76 199.598 98.8533 199.598 97.68C199.598 96.72 198.904 95.7067 197.518 94.64C196.238 93.4667 194.584 92.4 192.558 91.44C190.638 90.48 188.718 89.68 186.798 89.04C184.984 88.2933 183.598 87.92 182.638 87.92C178.051 87.92 174.104 88.88 170.798 90.8C167.598 92.72 164.824 95.2267 162.478 98.32C161.731 99.28 160.931 100.667 160.078 102.48C161.891 102.8 164.611 102.96 168.238 102.96ZM216.411 132.08C215.131 132.08 214.011 131.227 213.051 129.52C212.198 127.707 211.505 125.68 210.971 123.44C210.438 121.093 210.171 119.12 210.171 117.52C210.171 114 210.651 109.893 211.611 105.2C212.678 100.507 214.065 95.6 215.771 90.48C217.478 85.2533 219.345 80.1333 221.371 75.12C223.398 70.1067 225.478 65.4667 227.611 61.2C229.745 56.8267 231.665 53.2533 233.371 50.48C234.865 48.0267 236.998 46.3733 239.771 45.52C242.651 44.56 245.371 44.08 247.931 44.08C250.491 44.08 252.518 44.4 254.011 45.04C255.505 45.68 255.931 46.4267 255.291 47.28C251.985 51.5467 248.518 56.56 244.891 62.32C241.265 68.08 237.745 74.16 234.331 80.56C231.025 86.96 228.038 93.3067 225.371 99.6C222.811 105.893 220.838 111.76 219.451 117.2C218.065 122.64 217.585 127.173 218.011 130.8C218.011 131.653 217.478 132.08 216.411 132.08ZM278.431 129.84C275.978 129.84 273.365 129.467 270.591 128.72C267.818 127.973 265.311 127.067 263.071 126C260.938 124.933 259.445 123.973 258.591 123.12C255.071 119.067 253.311 114.107 253.311 108.24C253.311 100.88 255.978 93.2 261.311 85.2C267.711 75.92 276.511 71.28 287.711 71.28C292.618 71.28 296.671 71.8667 299.871 73.04C303.178 74.2133 305.791 75.6533 307.711 77.36C309.631 79.0667 310.965 80.72 311.711 82.32C312.565 83.92 312.991 85.0933 312.991 85.84C312.991 88.1867 311.978 89.36 309.951 89.36C307.711 89.36 306.591 88.9867 306.591 88.24C306.591 88.0267 306.645 87.76 306.751 87.44C306.965 87.0133 307.071 86.64 307.071 86.32C307.071 85.7867 306.645 85.0933 305.791 84.24C305.045 83.28 304.351 82.5867 303.711 82.16C301.365 80.3467 298.431 79.44 294.911 79.44C291.925 79.44 288.778 80.2933 285.471 82C282.271 83.7067 279.125 86.5867 276.031 90.64C272.511 95.2267 269.898 99.6 268.191 103.76C266.485 107.92 265.631 111.6 265.631 114.8C265.631 118.64 266.805 121.467 269.151 123.28C271.605 125.093 276.138 126 282.751 126C285.951 126 289.525 125.627 293.471 124.88C297.525 124.027 301.631 122.747 305.791 121.04C311.658 118.587 317.258 115.173 322.591 110.8C324.085 109.627 325.151 109.04 325.791 109.04C326.431 109.04 326.751 109.413 326.751 110.16C326.751 111.333 326.111 112.507 324.831 113.68C320.565 117.947 314.485 121.733 306.591 125.04C298.698 128.24 289.311 129.84 278.431 129.84ZM341.96 130.32C336.947 130.32 332.787 129.36 329.48 127.44C326.173 125.413 323.667 122.853 321.96 119.76C320.36 116.667 319.56 113.573 319.56 110.48C319.56 106.96 320.52 103.6 322.44 100.4C324.36 97.0933 326.867 94.1067 329.96 91.44C333.16 88.7733 336.467 86.6933 339.88 85.2C341.587 84.4533 343.08 83.92 344.36 83.6C345.747 83.1733 347.24 82.96 348.84 82.96C350.76 82.96 353.053 83.2267 355.72 83.76C358.493 84.1867 361.16 84.9333 363.72 86C366.28 86.96 368.147 88.3467 369.32 90.16C369.64 90.6933 370.707 91.28 372.52 91.92C374.333 92.56 376.36 93.36 378.6 94.32C380.84 95.28 382.76 96.56 384.36 98.16C386.067 99.6533 386.92 101.627 386.92 104.08C386.92 107.067 385.427 110.107 382.44 113.2C379.453 116.293 375.613 119.173 370.92 121.84C366.227 124.4 361.32 126.48 356.2 128.08C351.08 129.573 346.333 130.32 341.96 130.32ZM340.84 125.2C343.933 125.2 347.347 124.667 351.08 123.6C354.813 122.533 358.387 121.093 361.8 119.28C365.213 117.467 367.987 115.44 370.12 113.2C372.36 110.853 373.48 108.453 373.48 106C373.48 104.08 372.733 102.587 371.24 101.52C369.853 100.347 368.093 99.3867 365.96 98.64C365.213 98.4267 364.2 98.5333 362.92 98.96C361.64 99.28 360.147 99.44 358.44 99.44C356.413 99.44 354.28 98.7467 352.04 97.36C349.8 95.9733 348.68 94.2667 348.68 92.24C348.68 91.6 348.733 91.0133 348.84 90.48C348.947 89.9467 349.053 89.52 349.16 89.2C345.32 90.0533 341.64 91.6533 338.12 94C334.707 96.3467 331.88 99.1733 329.64 102.48C327.4 105.787 326.28 109.413 326.28 113.36C326.28 117.307 327.72 120.293 330.6 122.32C333.587 124.24 337 125.2 340.84 125.2ZM404.109 130.96C403.789 130.96 403.095 130.64 402.029 130C400.962 129.467 399.949 128.72 398.989 127.76C398.029 126.693 397.602 125.627 397.709 124.56C397.815 123.707 397.602 123.12 397.069 122.8C396.535 122.373 395.949 121.787 395.309 121.04C394.775 120.293 394.509 119.12 394.509 117.52C394.509 114.427 395.149 110.853 396.429 106.8C397.709 102.64 399.309 98.2667 401.229 93.68C403.149 89.0933 405.015 84.6133 406.829 80.24C407.362 78.8533 408.162 77.8933 409.229 77.36C410.295 76.8267 411.522 76.56 412.909 76.56C414.935 76.56 417.015 77.0933 419.149 78.16C421.282 79.2267 423.095 80.6133 424.589 82.32C426.082 84.0267 426.829 85.7867 426.829 87.6C426.829 88.7733 426.509 89.84 425.869 90.8C425.335 91.6533 424.589 92.9867 423.629 94.8C422.669 96.5067 421.869 98.1067 421.229 99.6C421.015 100.133 420.749 100.72 420.429 101.36C420.215 101.893 420.162 102.16 420.269 102.16C420.482 102.16 420.962 101.787 421.709 101.04C422.455 100.187 423.042 99.5467 423.469 99.12C425.815 96.88 428.482 94.6933 431.469 92.56C434.455 90.4267 437.442 88.6667 440.429 87.28C443.522 85.7867 446.295 85.04 448.749 85.04C451.309 85.04 453.335 85.7867 454.829 87.28C456.429 88.7733 457.229 90.96 457.229 93.84C457.229 95.8667 457.122 97.8933 456.909 99.92C456.802 101.84 456.749 103.707 456.749 105.52C456.749 109.68 457.815 111.76 459.949 111.76C461.015 111.76 462.402 110.96 464.109 109.36C465.815 107.76 467.735 105.787 469.869 103.44C472.109 100.987 474.509 98.5867 477.069 96.24C479.629 93.8933 482.242 91.92 484.909 90.32C487.682 88.72 490.402 87.92 493.069 87.92C495.735 87.92 497.602 88.8267 498.669 90.64C499.735 92.4533 500.429 94.7467 500.749 97.52C501.175 100.293 501.655 103.12 502.189 106C502.509 107.707 502.882 109.36 503.309 110.96C503.842 112.453 504.535 113.84 505.389 115.12C506.455 116.613 506.989 117.84 506.989 118.8C506.989 119.44 506.722 119.76 506.189 119.76C505.335 119.76 504.055 118.907 502.349 117.2C500.749 115.707 499.469 114.107 498.509 112.4C497.655 110.587 496.962 108.827 496.429 107.12C495.362 104.027 494.615 101.307 494.189 98.96C493.762 96.5067 492.802 95.28 491.309 95.28C489.602 95.28 487.575 96.08 485.229 97.68C482.882 99.1733 480.375 101.093 477.709 103.44C475.149 105.68 472.482 107.973 469.709 110.32C466.935 112.667 464.269 114.64 461.709 116.24C459.149 117.84 456.749 118.693 454.509 118.8C451.522 118.907 449.122 118.587 447.309 117.84C445.602 117.093 444.375 115.493 443.629 113.04C442.882 110.587 442.509 106.853 442.509 101.84C442.509 98.4267 442.829 95.8133 443.469 94C444.109 92.08 444.002 91.12 443.149 91.12C442.615 91.12 441.229 91.76 438.989 93.04C436.855 94.32 434.242 96.1867 431.149 98.64C428.162 101.093 425.122 104.027 422.029 107.44C418.935 110.853 416.162 114.747 413.709 119.12C412.002 122.213 410.242 124.987 408.429 127.44C406.722 129.787 405.282 130.96 404.109 130.96ZM545.395 133.68C541.128 133.68 537.128 132.88 533.395 131.28C529.662 129.787 526.622 127.387 524.275 124.08C522.355 121.307 521.022 118.64 520.275 116.08C519.528 113.413 519.155 110.907 519.155 108.56C519.155 106.32 519.422 104.293 519.955 102.48C520.488 100.56 521.128 99.0133 521.875 97.84C524.115 94 526.462 90.8 528.915 88.24C531.475 85.68 534.248 83.3867 537.235 81.36C541.182 78.8 546.035 77.52 551.795 77.52C553.928 77.52 556.168 78.3733 558.515 80.08C560.862 81.7867 564.275 83.5467 568.755 85.36C571.742 86.5333 574.515 87.92 577.075 89.52C579.742 91.0133 581.875 92.56 583.475 94.16C585.182 95.6533 586.035 97.0933 586.035 98.48C586.035 99.9733 584.808 101.2 582.355 102.16C578.835 103.333 574.675 104.4 569.875 105.36C565.075 106.213 560.275 106.907 555.475 107.44C550.782 107.973 546.622 108.24 542.995 108.24C540.222 108.24 538.088 108.08 536.595 107.76C535.955 110.107 535.635 112.56 535.635 115.12C535.635 117.253 535.955 119.387 536.595 121.52C537.235 123.653 538.302 125.627 539.795 127.44C540.862 128.613 542.035 129.467 543.315 130C544.702 130.427 546.088 130.64 547.475 130.64C549.822 130.64 552.115 130.267 554.355 129.52C556.702 128.667 558.728 127.813 560.435 126.96C562.142 126 563.208 125.36 563.635 125.04C565.768 123.76 567.368 122.8 568.435 122.16C569.608 121.52 570.728 121.2 571.795 121.2C573.715 121.2 574.675 121.627 574.675 122.48C574.675 123.013 574.142 123.813 573.075 124.88C572.008 125.84 570.142 126.96 567.475 128.24C564.062 129.947 560.435 131.28 556.595 132.24C552.862 133.2 549.128 133.68 545.395 133.68ZM546.675 102.96C550.088 102.96 554.088 102.8 558.675 102.48C563.262 102.053 568.222 101.36 573.555 100.4C576.542 99.76 578.035 98.8533 578.035 97.68C578.035 96.72 577.342 95.7067 575.955 94.64C574.675 93.4667 573.022 92.4 570.995 91.44C569.075 90.48 567.155 89.68 565.235 89.04C563.422 88.2933 562.035 87.92 561.075 87.92C556.488 87.92 552.542 88.88 549.235 90.8C546.035 92.72 543.262 95.2267 540.915 98.32C540.168 99.28 539.368 100.667 538.515 102.48C540.328 102.8 543.048 102.96 546.675 102.96ZM654.579 134.16C653.725 134.16 652.659 133.787 651.379 133.04C650.099 132.4 648.605 130.907 646.899 128.56C645.512 126.64 644.445 123.973 643.699 120.56C643.059 117.147 642.739 113.733 642.739 110.32C642.739 105.84 643.005 102.107 643.539 99.12C644.072 96.1333 644.445 94.2133 644.659 93.36C643.059 91.8667 641.725 90.8 640.659 90.16C639.592 89.52 639.059 88.7733 639.059 87.92C639.059 86.4267 640.072 85.2533 642.099 84.4C644.232 83.44 646.579 82.8533 649.139 82.64C650.099 80.4 650.952 78 651.699 75.44C652.445 72.7733 653.192 70.2667 653.939 67.92C654.685 65.4667 655.485 63.5467 656.339 62.16C657.832 59.7067 660.125 58.0533 663.219 57.2C666.419 56.3467 669.459 55.92 672.339 55.92C675.219 55.92 677.512 56.24 679.219 56.88C681.032 57.4133 681.459 58.0533 680.499 58.8C678.792 59.9733 676.925 62 674.899 64.88C672.872 67.6533 670.899 70.6933 668.979 74C667.059 77.3067 665.299 80.3467 663.699 83.12H684.819C688.659 83.12 690.579 83.44 690.579 84.08C690.579 85.1467 688.232 85.7867 683.539 86C677.459 86.1067 672.979 86.2667 670.099 86.48C667.325 86.6933 665.352 86.9067 664.179 87.12C662.685 87.44 661.565 87.92 660.819 88.56C660.072 89.2 659.432 90.2667 658.899 91.76C657.085 96.3467 655.592 101.147 654.419 106.16C653.352 111.067 652.819 115.547 652.819 119.6C652.819 122.693 653.139 125.36 653.779 127.6C654.525 129.733 655.592 131.173 656.979 131.92C657.299 132.027 657.459 132.24 657.459 132.56C657.459 132.88 657.192 133.2 656.659 133.52C656.125 133.947 655.432 134.16 654.579 134.16ZM699.148 130.32C694.134 130.32 689.974 129.36 686.668 127.44C683.361 125.413 680.854 122.853 679.148 119.76C677.547 116.667 676.747 113.573 676.747 110.48C676.747 106.96 677.707 103.6 679.628 100.4C681.548 97.0933 684.054 94.1067 687.148 91.44C690.348 88.7733 693.654 86.6933 697.068 85.2C698.774 84.4533 700.268 83.92 701.548 83.6C702.934 83.1733 704.428 82.96 706.028 82.96C707.948 82.96 710.241 83.2267 712.908 83.76C715.681 84.1867 718.348 84.9333 720.908 86C723.468 86.96 725.334 88.3467 726.508 90.16C726.828 90.6933 727.894 91.28 729.708 91.92C731.521 92.56 733.548 93.36 735.788 94.32C738.028 95.28 739.948 96.56 741.548 98.16C743.254 99.6533 744.108 101.627 744.108 104.08C744.108 107.067 742.614 110.107 739.628 113.2C736.641 116.293 732.801 119.173 728.108 121.84C723.414 124.4 718.508 126.48 713.388 128.08C708.268 129.573 703.521 130.32 699.148 130.32ZM698.028 125.2C701.121 125.2 704.534 124.667 708.268 123.6C712.001 122.533 715.574 121.093 718.988 119.28C722.401 117.467 725.174 115.44 727.308 113.2C729.548 110.853 730.668 108.453 730.668 106C730.668 104.08 729.921 102.587 728.428 101.52C727.041 100.347 725.281 99.3867 723.148 98.64C722.401 98.4267 721.388 98.5333 720.108 98.96C718.828 99.28 717.334 99.44 715.628 99.44C713.601 99.44 711.468 98.7467 709.228 97.36C706.988 95.9733 705.868 94.2667 705.868 92.24C705.868 91.6 705.921 91.0133 706.028 90.48C706.134 89.9467 706.241 89.52 706.348 89.2C702.508 90.0533 698.828 91.6533 695.308 94C691.894 96.3467 689.068 99.1733 686.828 102.48C684.588 105.787 683.467 109.413 683.467 113.36C683.467 117.307 684.908 120.293 687.788 122.32C690.774 124.24 694.188 125.2 698.028 125.2Z" fill="#FFC700"/>
<path d="M57.8 266.6H16.8V230H146V266.6H105V370H57.8V266.6ZM274.506 260.6V370H231.506V359.6C227.506 363.733 222.84 366.867 217.506 369C212.173 371 206.506 372 200.506 372C186.64 372 175.506 367.8 167.106 359.4C158.706 350.867 154.506 338.067 154.506 321V260.6H199.706V313.2C199.706 320.667 200.906 326 203.306 329.2C205.706 332.4 209.24 334 213.906 334C218.306 334 221.973 332.267 224.906 328.8C227.84 325.2 229.306 319.6 229.306 312V260.6H274.506ZM337.555 272.4C345.555 263.2 357.355 258.6 372.955 258.6V298.6C369.355 298.067 366.021 297.8 362.955 297.8C347.488 297.8 339.755 305.667 339.755 321.4V370H294.555V260.6H337.555V272.4ZM438.166 336.4L430.966 344.2V370H385.766V221.6H430.966V292.4L462.366 260.6H515.766L470.566 308L519.366 370H464.766L438.166 336.4ZM639.666 315.2C639.666 315.867 639.466 319.4 639.066 325.8H563.066C564.666 329.933 567.332 333.133 571.066 335.4C574.799 337.533 579.466 338.6 585.066 338.6C589.866 338.6 593.866 338 597.066 336.8C600.399 335.6 603.999 333.533 607.866 330.6L631.466 354.4C620.799 366.133 604.866 372 583.666 372C570.466 372 558.866 369.6 548.866 364.8C538.866 359.867 531.132 353.067 525.666 344.4C520.199 335.733 517.466 326 517.466 315.2C517.466 304.267 520.132 294.533 525.466 286C530.932 277.333 538.332 270.6 547.666 265.8C557.132 261 567.732 258.6 579.466 258.6C590.532 258.6 600.599 260.8 609.666 265.2C618.866 269.6 626.132 276.067 631.466 284.6C636.932 293.133 639.666 303.333 639.666 315.2ZM579.866 289.4C575.199 289.4 571.332 290.667 568.266 293.2C565.199 295.733 563.199 299.333 562.266 304H597.466C596.532 299.467 594.532 295.933 591.466 293.4C588.399 290.733 584.532 289.4 579.866 289.4ZM773.777 260.6L728.777 372.2C723.043 386.467 715.91 396.467 707.377 402.2C698.843 407.933 688.377 410.8 675.977 410.8C669.843 410.8 663.643 409.867 657.377 408C651.243 406.267 646.377 403.933 642.777 401L657.777 370C660.043 371.733 662.577 373.133 665.377 374.2C668.31 375.267 671.11 375.8 673.777 375.8C678.71 375.8 682.443 374.333 684.977 371.4L638.977 260.6H685.377L707.977 319.2L730.977 260.6H773.777ZM795.033 372C787.433 372 781.099 369.6 776.033 364.8C771.099 359.867 768.633 353.6 768.633 346C768.633 338.4 771.099 332.267 776.033 327.6C781.099 322.8 787.433 320.4 795.033 320.4C802.633 320.4 808.899 322.8 813.833 327.6C818.899 332.267 821.433 338.4 821.433 346C821.433 353.6 818.899 359.867 813.833 364.8C808.899 369.6 802.633 372 795.033 372Z" fill="white"/>
</g>
<defs>
<filter id="filter0_d_424_39" x="0.702345" y="42.9824" width="836.828" height="398.915" filterUnits="userSpaceOnUse" color-interpolation-filters="sRGB">
<feFlood flood-opacity="0" result="BackgroundImageFix"/>
<feColorMatrix in="SourceAlpha" type="matrix" values="0 0 0 0 0 0 0 0 0 0 0 0 0 0 0 0 0 0 127 0" result="hardAlpha"/>
<feOffset dy="15"/>
<feGaussianBlur stdDeviation="8.04882"/>
<feColorMatrix type="matrix" values="0 0 0 0 0 0 0 0 0 0 0 0 0 0 0 0 0 0 0.4 0"/>
<feBlend mode="normal" in2="BackgroundImageFix" result="effect1_dropShadow_424_39"/>
<feBlend mode="normal" in="SourceGraphic" in2="effect1_dropShadow_424_39" result="shape"/>
</filter>
</defs>
</svg>
