<svg width="44" height="54" viewBox="0 0 44 54" fill="none" xmlns="http://www.w3.org/2000/svg">
<path fill-rule="evenodd" clip-rule="evenodd" d="M38 20.113V14.5C38 6.505 30.822 0 22 0C13.178 0 6 6.505 6 14.5V20.113C2.599 20.699 0 23.663 0 27.23V46.772C0 50.757 3.243 54 7.229 54H36.771C40.757 54 44 50.757 44 46.771V27.229C44 23.663 41.401 20.699 38 20.113ZM8 14.5C8 7.607 14.28 2 22 2C29.72 2 36 7.607 36 14.5V20H8V14.5ZM36.771 52C39.654 52 42 49.654 42 46.771V27.229C42 24.346 39.654 22 36.771 22H7.229C4.346 22 2 24.346 2 27.229V46.771C2 49.654 4.346 52 7.229 52H36.771Z" fill="black"/>
<path fill-rule="evenodd" clip-rule="evenodd" d="M18 32C18 29.794 19.794 28 22 28C24.206 28 26 29.794 26 32V38C26 40.206 24.206 42 22 42C19.794 42 18 40.206 18 38V32ZM22 40C23.103 40 24 39.103 24 38V32C24 30.897 23.103 30 22 30C20.897 30 20 30.897 20 32V38C20 39.103 20.897 40 22 40Z" fill="black"/>
<path fill-rule="evenodd" clip-rule="evenodd" d="M12 10C14.7614 10 17 7.76142 17 5C17 2.23858 14.7614 0 12 0C9.23858 0 7 2.23858 7 5C7 7.76142 9.23858 10 12 10Z" fill="#FDCF26"/>
</svg>
