<svg width="19" height="19" fill="none" xmlns="http://www.w3.org/2000/svg"><g clip-path="url(#a)"><path d="M10.94 4.055a3.294 3.294 0 0 1 1.534 2.447c.342.16.721.252 1.123.252a2.659 2.659 0 1 0-2.656-2.699ZM9.2 9.499a2.659 2.659 0 1 0 0-5.318 2.659 2.659 0 0 0 0 5.318Zm1.128.181H8.07a3.409 3.409 0 0 0-3.404 3.405v2.76l.007.043.19.06c1.791.559 3.348.745 4.629.745 2.502 0 3.952-.713 4.042-.758l.177-.09h.02v-2.76a3.407 3.407 0 0 0-3.404-3.405Zm4.399-2.745h-2.24a3.277 3.277 0 0 1-1.01 2.283 4.045 4.045 0 0 1 2.89 3.871v.85c2.21-.08 3.483-.707 3.567-.75l.178-.09h.019v-2.76a3.408 3.408 0 0 0-3.404-3.404Zm-10.193-.18c.52 0 1.004-.152 1.414-.411a3.29 3.29 0 0 1 1.237-2.099c.003-.05.008-.099.008-.15a2.659 2.659 0 1 0-2.659 2.66Zm2.388 2.463a3.279 3.279 0 0 1-1.01-2.27c-.084-.006-.166-.013-.25-.013H3.404A3.408 3.408 0 0 0 0 10.34v2.76l.007.042.19.06c1.437.449 2.72.655 3.834.72v-.833a4.046 4.046 0 0 1 2.89-3.871Z" fill="#00A77F"/></g><defs><clipPath id="a"><path fill="#fff" d="M0 0h18.13v18.13H0z"/></clipPath></defs></svg>