<svg width="81" height="121" fill="none" xmlns="http://www.w3.org/2000/svg"><circle cx="17.637" cy="2.5" r="2.5" fill="#fff" fill-opacity=".3"/><rect opacity=".3" y="16.558" width="5" height="5" rx="2.5" fill="#fff"/><circle opacity=".3" cx="17.637" cy="19.058" r="2.5" fill="#fff"/><circle cx="2.5" cy="2.5" r="2.5" fill="#fff" fill-opacity=".3"/><circle cx="17.637" cy="35.615" r="2.5" fill="#fff" fill-opacity=".3"/><rect y="49.672" width="5" height="5" rx="2.5" fill="#fff" fill-opacity=".3"/><circle cx="17.637" cy="52.172" r="2.5" fill="#fff" fill-opacity=".3"/><circle cx="2.5" cy="35.615" r="2.5" fill="#fff" fill-opacity=".3"/><circle cx="47.91" cy="2.5" r="2.5" fill="#fff" fill-opacity=".3"/><rect x="30.273" y="16.558" width="5" height="5" rx="2.5" fill="#fff" fill-opacity=".3"/><circle cx="47.91" cy="19.058" r="2.5" fill="#fff" fill-opacity=".3"/><circle cx="32.773" cy="2.5" r="2.5" fill="#fff" fill-opacity=".3"/><circle cx="47.91" cy="35.615" r="2.5" fill="#fff" fill-opacity=".3"/><rect x="30.273" y="49.672" width="5" height="5" rx="2.5" fill="#fff" fill-opacity=".3"/><circle cx="47.91" cy="52.172" r="2.5" fill="#fff" fill-opacity=".3"/><circle cx="32.773" cy="35.615" r="2.5" fill="#fff" fill-opacity=".3"/><circle opacity=".3" cx="78.183" cy="2.5" r="2.5" fill="#fff"/><rect x="60.547" y="16.558" width="5" height="5" rx="2.5" fill="#fff" fill-opacity=".2"/><circle opacity=".3" cx="78.183" cy="19.058" r="2.5" fill="#fff"/><circle cx="63.047" cy="2.5" r="2.5" fill="#fff" fill-opacity=".3"/><circle cx="78.183" cy="35.615" r="2.5" fill="#fff" fill-opacity=".3"/><rect x="60.547" y="49.672" width="5" height="5" rx="2.5" fill="#fff" fill-opacity=".3"/><circle cx="78.183" cy="52.172" r="2.5" fill="#fff" fill-opacity=".3"/><circle cx="63.047" cy="35.615" r="2.5" fill="#fff" fill-opacity=".3"/><circle cx="17.637" cy="68.5" r="2.5" fill="#fff" fill-opacity=".3"/><rect opacity=".3" y="82.558" width="5" height="5" rx="2.5" fill="#fff"/><circle opacity=".3" cx="17.637" cy="85.058" r="2.5" fill="#fff"/><circle cx="2.5" cy="68.5" r="2.5" fill="#fff" fill-opacity=".3"/><circle cx="17.637" cy="101.615" r="2.5" fill="#fff" fill-opacity=".3"/><rect y="115.672" width="5" height="5" rx="2.5" fill="#fff" fill-opacity=".3"/><circle cx="17.637" cy="118.172" r="2.5" fill="#fff" fill-opacity=".3"/><circle cx="2.5" cy="101.615" r="2.5" fill="#fff" fill-opacity=".3"/><circle cx="47.91" cy="68.5" r="2.5" fill="#fff" fill-opacity=".3"/><rect x="30.273" y="82.558" width="5" height="5" rx="2.5" fill="#fff" fill-opacity=".3"/><circle cx="47.91" cy="85.058" r="2.5" fill="#fff" fill-opacity=".3"/><circle cx="32.773" cy="68.5" r="2.5" fill="#fff" fill-opacity=".3"/><circle cx="47.91" cy="101.615" r="2.5" fill="#fff" fill-opacity=".3"/><rect x="30.273" y="115.672" width="5" height="5" rx="2.5" fill="#fff" fill-opacity=".3"/><circle cx="47.91" cy="118.172" r="2.5" fill="#fff" fill-opacity=".3"/><circle cx="32.773" cy="101.615" r="2.5" fill="#fff" fill-opacity=".3"/><circle opacity=".3" cx="78.183" cy="68.5" r="2.5" fill="#fff"/><rect x="60.547" y="82.558" width="5" height="5" rx="2.5" fill="#fff" fill-opacity=".2"/><circle opacity=".3" cx="78.183" cy="85.058" r="2.5" fill="#fff"/><circle cx="63.047" cy="68.5" r="2.5" fill="#fff" fill-opacity=".3"/><circle cx="78.183" cy="101.615" r="2.5" fill="#fff" fill-opacity=".3"/><rect x="60.547" y="115.672" width="5" height="5" rx="2.5" fill="#fff" fill-opacity=".3"/><circle cx="78.183" cy="118.172" r="2.5" fill="#fff" fill-opacity=".3"/><circle cx="63.047" cy="101.615" r="2.5" fill="#fff" fill-opacity=".3"/></svg>