<svg width="54" height="52" fill="none" xmlns="http://www.w3.org/2000/svg"><path fill-rule="evenodd" clip-rule="evenodd" d="M45.444 43.233C49.518 38.644 52 32.608 52 26c0-6.874-2.686-13.128-7.058-17.782v-.001l-.006-.006a.038.038 0 0 1-.003-.003l-.002-.003C40.377 3.365 33.997.266 26.9.023l-.507-.014C26.263.004 26.132 0 26 0s-.263.004-.394.009l-.504.013-.001.001C18.005.266 11.625 3.365 7.07 8.205l-.005.005a.02.02 0 0 0-.007.007v.002C2.686 12.872 0 19.126 0 26c0 6.607 2.482 12.642 6.556 17.233l.002.005.003.007c.001.005.003.01.006.014.009.012.02.02.03.03.01.006.019.014.027.023C11.2 48.43 17.77 51.727 25.1 51.978l.505.014.068.002c.109.003.218.006.327.006.132 0 .263-.005.394-.009l.504-.013.001-.001c7.338-.252 13.914-3.555 18.492-8.683l.003-.004a.098.098 0 0 1 .005-.005l.011-.008c.008-.006.016-.01.022-.02a.034.034 0 0 0 .008-.013c0-.004.002-.007.004-.01ZM1.816 26.898h10.76c.102 3.8.845 7.493 2.166 10.953a33.06 33.06 0 0 0-7.272 3.703 24.095 24.095 0 0 1-5.654-14.656Zm13.226-13.534a32.981 32.981 0 0 1-7.082-3.48 24.101 24.101 0 0 0-6.144 15.22h10.76c.11-4.088.95-8.058 2.466-11.74Zm35.142 11.74h-10.76a33.109 33.109 0 0 0-2.466-11.74 32.981 32.981 0 0 0 7.082-3.48 24.101 24.101 0 0 1 6.145 15.22ZM17.51 12.265a31.338 31.338 0 0 0 7.594 1.15V2.37a31.369 31.369 0 0 0-7.594 9.895Zm7.594 2.943v9.895H14.37c.11-3.898.928-7.679 2.39-11.184a33.126 33.126 0 0 0 8.343 1.29Zm10.138-1.289a33.099 33.099 0 0 1-8.344 1.29v9.894H37.63a31.314 31.314 0 0 0-2.39-11.184Zm-8.344-.504V2.37a31.369 31.369 0 0 1 7.594 9.895 31.338 31.338 0 0 1-7.594 1.15Zm2.26-11.41a33.11 33.11 0 0 1 7.072 9.715 31.181 31.181 0 0 0 6.54-3.153 24.137 24.137 0 0 0-13.612-6.561ZM15.77 11.72a31.154 31.154 0 0 1-6.54-3.153 24.134 24.134 0 0 1 13.613-6.561 33.097 33.097 0 0 0-7.073 9.714Zm9.332 15.177H14.37a31.31 31.31 0 0 0 2.072 10.38 33.07 33.07 0 0 1 8.661-1.38v-9Zm0 10.792v11.94a31.352 31.352 0 0 1-7.965-10.684 31.259 31.259 0 0 1 7.965-1.256Zm1.794 0v11.94a31.347 31.347 0 0 0 7.965-10.685 31.258 31.258 0 0 0-7.965-1.255Zm0-1.793v-9H37.63a31.298 31.298 0 0 1-2.073 10.383 33.021 33.021 0 0 0-8.66-1.383Zm23.288-9H39.422a33.11 33.11 0 0 1-2.165 10.954c2.55.922 4.987 2.16 7.272 3.703a24.09 24.09 0 0 0 5.654-14.656Zm-41.497 16a31.245 31.245 0 0 1 6.74-3.39 33.083 33.083 0 0 0 7.415 10.488 24.155 24.155 0 0 1-14.155-7.098Zm27.884-3.39a33.063 33.063 0 0 1-7.415 10.488 24.155 24.155 0 0 0 14.155-7.098 31.265 31.265 0 0 0-6.74-3.39Z" fill="#000"/><path fill-rule="evenodd" clip-rule="evenodd" d="M49 40a5 5 0 1 0 0-10 5 5 0 0 0 0 10Z" fill="#FDCF26"/></svg>