<svg width="54" height="54" fill="none" xmlns="http://www.w3.org/2000/svg"><path fill-rule="evenodd" clip-rule="evenodd" d="m50.06 22.916 3.128.602A1 1 0 0 1 54 24.5v6c0 .493-.36.913-.849.987l-3.282.505a5.409 5.409 0 0 0-4.158 3.201 5.41 5.41 0 0 0 .482 5.225l1.786 2.638a1 1 0 0 1-.121 1.268l-4.242 4.242a1 1 0 0 1-1.298.1l-1.884-1.381a5.404 5.404 0 0 0-5.297-.64 5.397 5.397 0 0 0-3.294 4.198l-.355 2.309A.998.998 0 0 1 30.5 54h-6a1 1 0 0 1-.982-.811l-.602-3.128a5.41 5.41 0 0 0-3.354-4.035 5.402 5.402 0 0 0-5.202.677l-2.679 1.964a1 1 0 0 1-1.298-.1l-4.242-4.242a1 1 0 0 1-.121-1.268l1.786-2.638a5.413 5.413 0 0 0 .482-5.226 5.408 5.408 0 0 0-4.157-3.2l-3.283-.505A1 1 0 0 1 0 30.5v-6c0-.479.34-.892.81-.981l3.128-.602a5.413 5.413 0 0 0 4.036-3.353 5.411 5.411 0 0 0-.677-5.203l-1.964-2.679a1.002 1.002 0 0 1 .1-1.299l4.243-4.242a1.001 1.001 0 0 1 1.268-.121l3.406 2.308a5.42 5.42 0 0 0 5.131.521 5.423 5.423 0 0 0 3.26-3.997l.777-4.04A1 1 0 0 1 24.5 0h6a1 1 0 0 1 .988.847l.505 3.282a5.413 5.413 0 0 0 3.201 4.158 5.411 5.411 0 0 0 5.224-.482l2.638-1.786a1 1 0 0 1 1.268.121l4.242 4.242a1 1 0 0 1 .1 1.298l-1.964 2.679a5.407 5.407 0 0 0-.677 5.203 5.406 5.406 0 0 0 4.035 3.354Zm-.495 7.101L52 29.642v-4.316l-2.315-.444a7.399 7.399 0 0 1-5.52-4.587 7.4 7.4 0 0 1 .925-7.117l1.457-1.986-3.052-3.052-1.954 1.323a7.404 7.404 0 0 1-7.146.659 7.403 7.403 0 0 1-4.378-5.687L29.642 2h-4.316l-.621 3.228a7.42 7.42 0 0 1-4.458 5.468 7.412 7.412 0 0 1-7.018-.713l-2.723-1.845-3.052 3.052 1.457 1.988a7.402 7.402 0 0 1 .926 7.117 7.402 7.402 0 0 1-5.52 4.587L2 25.327v4.315l2.434.375a7.402 7.402 0 0 1 5.687 4.377 7.401 7.401 0 0 1-.659 7.146l-1.324 1.954 3.052 3.052 1.987-1.457a7.404 7.404 0 0 1 7.115-.926 7.403 7.403 0 0 1 4.588 5.521L25.326 52h4.316l.224-1.46a7.383 7.383 0 0 1 4.505-5.741 7.39 7.39 0 0 1 7.246.874l1.192.874 3.052-3.052-1.323-1.954a7.402 7.402 0 0 1-.66-7.146 7.4 7.4 0 0 1 5.687-4.378Z" fill="#000"/><path fill-rule="evenodd" clip-rule="evenodd" d="M17 27.5C17 21.71 21.71 17 27.5 17S38 21.71 38 27.5 33.29 38 27.5 38 17 33.29 17 27.5Zm2 0c0 4.687 3.813 8.5 8.5 8.5 4.687 0 8.5-3.813 8.5-8.5 0-4.687-3.813-8.5-8.5-8.5-4.687 0-8.5 3.813-8.5 8.5Z" fill="#000"/><path fill-rule="evenodd" clip-rule="evenodd" d="M22 27.5c0-3.032 2.467-5.5 5.5-5.5s5.5 2.468 5.5 5.5-2.467 5.5-5.5 5.5a5.506 5.506 0 0 1-5.5-5.5Zm2 0c0 1.93 1.57 3.5 3.5 3.5s3.5-1.57 3.5-3.5-1.57-3.5-3.5-3.5-3.5 1.57-3.5 3.5Z" fill="#000"/><path fill-rule="evenodd" clip-rule="evenodd" d="M33 27a5 5 0 1 0 0-10 5 5 0 0 0 0 10Z" fill="#FDCF26"/></svg>