<svg width="512" height="512" fill="none" xmlns="http://www.w3.org/2000/svg"><path opacity=".98" fill-rule="evenodd" clip-rule="evenodd" d="M255.5 31.5C163.613 42.875 101.113 91.875 68 178.5c-21.19 66.946-15.19 131.279 18 193 37.825 63.01 93.325 99.01 166.5 108-84.634-3.381-148.8-41.047-192.5-113-32.058-60.007-37.391-122.34-16-187C78.645 93.241 142.145 44.074 234.5 32a220.94 220.94 0 0 1 21-.5Z" fill="#FFDF80"/><path opacity=".993" fill-rule="evenodd" clip-rule="evenodd" d="M255.5 31.5c88.344-.395 154.178 37.605 197.5 114 28.332 55.99 34.332 114.323 18 175-23.456 77.789-73.956 128.622-151.5 152.5-22.002 5.467-44.335 7.634-67 6.5-73.175-8.99-128.675-44.99-166.5-108-33.19-61.721-39.19-126.054-18-193 33.113-86.625 95.613-135.625 187.5-147Z" fill="#FECB29"/><path fill-rule="evenodd" clip-rule="evenodd" d="M447.5 263.5c-9.454-75.69-49.787-127.523-121-155.5-73.27-24.549-140.27-13.216-201 34-37.353 32.873-58.02 74.039-62 123.5-.753-77.017 31.247-135.851 96-176.5 63.963-33.9 127.963-33.9 192 0 64.154 40.117 96.154 98.284 96 174.5Z" fill="#F9A01B"/><path fill-rule="evenodd" clip-rule="evenodd" d="M447.5 263.5c-1.334 68.523-31 120.689-89 156.5-53.836 30.104-110.169 35.77-169 17-50.993-17.659-88.16-50.826-111.5-99.5-9.32-23.059-14.153-47.059-14.5-72 3.98-49.461 24.647-90.627 62-123.5 60.73-47.216 127.73-58.549 201-34 71.213 27.977 111.546 79.81 121 155.5Z" fill="#FCB316"/><path fill-rule="evenodd" clip-rule="evenodd" d="M220.5 139.5c4.652-.516 8.152 1.151 10.5 5 .167 12.68.667 25.346 1.5 38a1874.121 1874.121 0 0 1 38.5-15c8.888 2.074 10.721 6.907 5.5 14.5a740.526 740.526 0 0 1-45 17.5 241.046 241.046 0 0 0 1 31 1874.121 1874.121 0 0 1 38.5-15c8.888 2.074 10.721 6.907 5.5 14.5a740.526 740.526 0 0 1-45 17.5v107c41.97-5.464 68.137-28.797 78.5-70a154.014 154.014 0 0 1 3-22c3.419-3.348 7.252-3.848 11.5-1.5 2.478 3.001 3.478 6.501 3 10.5-4.768 49.387-30.768 81.554-78 96.5-9.487 2.86-19.153 3.86-29 3a6.978 6.978 0 0 1-3.5-2.5 6844.198 6844.198 0 0 1-2.5-114 143.198 143.198 0 0 1-23.5 9c-4.953-.622-7.453-3.455-7.5-8.5.203-2.406 1.203-4.406 3-6a1446.468 1446.468 0 0 0 28-11.5 120.655 120.655 0 0 0 0-31 143.198 143.198 0 0 1-23.5 9c-4.953-.622-7.453-3.455-7.5-8.5.203-2.406 1.203-4.406 3-6a1446.468 1446.468 0 0 0 28-11.5 1014.212 1014.212 0 0 0 1.5-45c1.025-2.187 2.525-3.854 4.5-5Z" fill="#FEDF80"/></svg>