<svg width="827" height="836" fill="none" xmlns="http://www.w3.org/2000/svg"><g clip-path="url(#a)" fill="#000"><path d="M0 420.667V836h827V5.333H0v415.334Zm428.973-288.4c14.406-.4 17.607.8 16.14 6.4-.801 3.333 2.401 5.333 8.937 5.333 3.735 0 4.802-.533 4.802-2.4 0-6.533 6.002-7.2 16.806-1.6 4.402 2.267 11.738 4.667 16.54 5.467 4.669.666 10.004 2.133 11.605 3.2 3.201 2.133 4.002 5.866 1.734 8.133-1.867 1.867 2.268 5.6 7.603 7.067 3.602 1.066 4.269.8 5.602-2 2.268-5.2 6.937-4.134 15.473 3.733 4.135 3.733 10.671 8.267 14.406 10 7.203 3.333 12.939 7.867 12.939 10.133 0 .8-.934 2.4-2.134 3.734-2.535 2.8-1.068 6.4 4.135 9.733 3.201 2.133 3.734 2.133 5.869.267 5.335-4.8 10.404-1.2 17.206 11.866 1.601 2.934 5.203 7.067 8.137 9.2 2.801 2.134 6.269 5.867 7.737 8.4 2.401 4.534 2.401 4.667-.801 7.2-3.601 2.934-3.201 6.534 1.201 11.734 2.134 2.4 3.201 2.8 4.268 1.733.934-.933 2.935-1.6 4.669-1.6 3.601 0 6.402 4.8 8.536 14.933.801 3.734 3.602 10 6.003 13.734 2.401 3.6 4.802 8.666 5.335 11.066.801 4 .534 4.534-3.334 6-4.669 1.734-5.069 4-2.135 11.067 1.734 4.267 2.135 4.533 4.936 3.067 2.401-1.334 3.201-1.067 5.335 1.466 1.868 2.267 2.401 5.334 2.401 13.2 0 5.6.934 13.067 2.001 16.667 2.801 9.2 2.534 15.067-.534 16.8-1.467.667-3.468.933-4.668.533-1.467-.533-2.268.534-2.801 3.867-1.334 6.667.133 10.267 4.135 10.267 5.735 0 6.536 4.8 2.801 16.133-2.401 6.933-3.201 11.733-2.668 15.333 1.467 11.067-4.268 20.934-9.604 16.534-1.467-1.2-2.267-.667-3.868 2.533-2.934 5.6-2.801 10.267.534 11.2 5.735 1.467 5.068 8.267-1.734 17.2-2.535 3.2-5.869 10.133-7.47 15.467-3.335 11.2-7.737 15.6-11.872 11.866-3.067-2.8-6.535-.8-9.07 5.2-2.401 5.6-2.401 5.467.8 6.267 5.336 1.333 3.202 6.667-6.269 15.733-5.068 4.8-11.204 11.6-13.739 15.2-5.202 7.334-9.337 8.934-13.338 5.334-2.801-2.534-5.469-1.6-10.404 3.733-2.668 2.8-2.802 3.333-.934 4.933 4.935 4.134.4 9.867-11.071 14.134-3.468 1.333-9.204 4.933-12.805 8.133-9.071 8.133-16.14 9.333-17.741 3.067-.534-2.134-1.467-2.4-4.268-1.734-3.869.934-9.471 4.267-9.471 5.6 0 .4.534 1.734 1.201 2.667 3.068 4.8-4.536 9.467-15.34 9.467-3.468 0-8.803 1.466-14.139 4-11.738 5.6-18.407 5.066-18.407-1.467 0-2.8-5.736-4-10.538-2.4-2.668.933-3.601 2.133-3.468 4.8 0 5.733-4.802 7.333-15.339 5.2-6.536-1.333-10.671-1.467-17.608-.4-11.471 1.733-15.739.267-15.739-5.733 0-3.2-.801-4.4-3.468-5.334-5.469-2.133-9.871-1.6-9.871.934-.133 7.2-6.803 7.866-18.274 2-4.268-2.267-10.938-4.4-14.939-4.934-9.738-1.066-14.806-3.866-14.806-8 0-1.733.667-3.6 1.334-4 2-1.2-4.269-5.866-9.204-6.8-3.201-.666-4.135-.4-4.135 1.2 0 1.067-.934 2.667-2.001 3.6-2.801 2.267-7.07.267-15.073-7.2-3.468-3.2-9.203-7.066-12.938-8.666-11.338-5.067-14.94-10-10.671-14.8 1.867-2 1.734-2.667-.667-5.734-3.602-4.533-7.47-5.733-10.138-3.066-1.067 1.2-2.934 2.133-4.001 2.133-2.668 0-8.137-6-11.472-12.533-1.467-2.934-5.869-8.267-9.87-11.867-8.67-7.867-10.271-12.267-5.869-15.6 2.801-2.133 2.934-2.667 1.467-6.4-.934-2.267-2.801-5.067-4.002-6.267-2.134-1.866-2.534-1.866-4.135 0-4.001 4.934-9.603-.666-12.138-12.4-.933-4.266-4.001-11.2-6.803-15.6-6.002-9.2-6.535-15.733-1.333-16.4 2.401-.4 2.934-1.333 2.934-5.066 0-7.2-2.001-10-6.402-9.067-6.003 1.2-7.47-2-7.737-16-.133-6.667-1.2-15.067-2.267-18.8-2.535-8.933-1.334-13.2 4.001-13.733 4.535-.4 5.736-3.334 4.669-10.8-.4-3.334-1.067-4-2.935-3.467-3.068.933-6.669-2.667-6.669-6.8 0-1.733 1.2-6.267 2.668-10.133 1.734-4.534 2.667-10.267 2.667-16 0-4.934.667-10.534 1.601-12.534 1.467-2.933 2.268-3.333 6.136-2.666 4.135.666 4.668.266 6.402-3.867 2.668-6.533 2.401-10-.8-10-6.536 0-5.069-9.867 2.935-19.333 1.867-2.267 4.135-7.067 4.935-10.8 2.001-8.267 6.002-15.2 8.937-15.2 1.067 0 3.201.666 4.668 1.466 3.335 1.734 6.003-.133 8.404-6 1.467-3.733 1.334-4.4-1.334-6.4-1.868-1.6-2.668-3.333-2.268-5.066.667-2.4 9.337-11.334 13.873-14.134 1.067-.666 4.135-4.666 6.936-8.933 2.801-4.267 6.536-8.4 8.536-9.333 2.935-1.334 3.735-1.067 5.736 1.466 2.134 2.534 2.935 2.8 5.602 1.467 1.734-.667 4.135-2.933 5.469-4.667 2.268-3.066 2.401-3.6.4-5.733-1.2-1.333-2.134-2.933-2.134-3.733 0-2.4 6.003-6.8 13.205-9.6 3.869-1.6 9.871-5.2 13.339-8 10.538-8.8 16.273-10.134 17.874-4.134.934 3.334 4.402 3.334 9.871 0 4.001-2.4 4.268-2.933 2.801-5.866-1.067-2.534-1.067-3.867.133-5.334 1.734-2.133 12.405-4.8 18.941-4.8 2.134 0 6.936-1.466 10.538-3.333 8.27-4.133 16.807-4.533 18.007-.667.4 1.467.4 3.2 0 4-.934 1.467 6.136 1.734 11.071.534 2.134-.667 2.935-1.867 2.935-4.4 0-6 2.267-7.2 11.338-6 4.401.666 14.005.933 21.475.8ZM391.758 622.4l18.407-.4-.533 6.667-.534 6.666-1.867-4.4c-2.001-4.8-7.203-7.466-12.005-6.266-3.068.666-3.068.933-3.068 21.2V666.4l3.735 1.333c2.934 1.2 1.601 1.334-7.07 1.334-5.869 0-9.47-.4-8.003-.667 5.736-1.467 6.003-2.667 6.003-22.533 0-17.867-.134-19.2-2.668-20.534-4.535-2.4-11.471.534-13.205 5.6-2.135 6-3.068 3.867-2.001-4.133.667-5.467 1.2-6.533 2.667-5.333 1.068.933 8.137 1.2 20.142.933Zm-167.134 1.733c6.402 2.934 6.803 11.6.8 17.867-2.534 2.667-2.401 2.8 4.802 12.267 4.135 5.6 9.337 10.8 12.272 12.266l4.935 2.667-6.269.133c-5.736 0-6.536-.4-10.804-5.733-2.535-3.067-6.403-8.533-8.804-12-3.335-4.8-5.069-6.267-7.203-6-2.668.4-2.934 1.2-2.934 10.4 0 9.2.266 10 3.334 11.6 2.935 1.467 2.268 1.733-6.669 1.6-8.27 0-9.337-.267-6.269-1.467l3.601-1.333v-40.533l-3.601-1.467c-3.202-1.2-1.868-1.467 7.87-1.6 6.402-.133 13.071.533 14.939 1.333ZM315.994 640l-.133 6-1.734-4.133c-2.001-4.667-5.069-6.4-8.937-5.067-2.268.667-2.401 2-2.135 15.6.401 14.533.401 14.8 3.735 15.733 2.135.534-.4.934-6.669 1.067-8.937.133-9.604-.133-6.669-1.6 3.201-1.6 3.334-2.267 3.734-15.067.267-10.4-.133-13.866-1.6-15.066-3.201-2.667-8.404-.4-10.138 4.266-1.867 5.067-3.334 2.667-2.134-3.466l.801-4.267h32.012l-.133 6Zm-46.152-3.733c-2.934 1.333-3.068 2.266-3.068 16 0 13.733.134 14.533 3.068 15.733 2.134.8.534 1.2-6.402 1.2-6.937 0-8.537-.4-6.27-1.2 2.801-1.2 2.935-2 2.935-15.467 0-12-.4-14.533-2.268-16-2.134-1.6-1.2-1.733 6.269-1.733 7.203 0 8.137.267 5.736 1.467Zm84.301-.134c.533.667.533 2.934 0 4.934-.934 3.6-.934 3.6-2.134.533-1.468-4-7.47-6.267-11.472-4.4-2.534 1.2-3.068 2.4-3.068 7.467v6h6.67c3.868 0 6.669.666 6.669 1.466 0 .934-2.401 1.2-6.269.934l-6.403-.4-.4 5.733c-.533 6.667 1.334 9.6 6.003 9.6 4.535 0 8.003-2.133 10.27-6.4l2.001-3.6.134 5.6v5.733l-14.94-.133c-10.404 0-14.139-.4-12.005-1.2 2.802-1.2 2.935-2 2.935-15.733 0-13.734-.133-14.667-2.935-16-2.401-1.067-.266-1.467 10.538-1.467 8.137-.133 13.872.4 14.406 1.333Zm91.37 3.467-.133 5.067-1.868-3.467c-2.134-3.867-6.402-5.6-11.071-4.267-2.534.667-2.935 1.6-2.935 7.2v6.534h6.67c4.001 0 6.669.533 6.669 1.466 0 1.067-2.134 1.334-6.669.667l-6.67-.933v7.333c0 6.933.267 7.467 3.469 8.267 5.202 1.333 10.27-.934 12.538-5.467l2.001-4 .4 3.733c.934 7.334.267 7.6-15.34 7.467-10.004 0-13.472-.4-11.338-1.2 2.802-1.2 2.935-2 2.935-15.733 0-13.734-.133-14.667-2.935-16-2.4-1.067-.266-1.467 10.671-1.467l13.606-.133v4.933Zm33.347 7.733 10.004 12.534.8-7.6c.934-9.067.267-13.734-2.668-15.867-1.734-1.333-.933-1.6 4.535-1.6 6.27 0 6.536.133 4.002 2-2.401 1.733-2.801 4-3.335 18.267l-.667 16.133-10.537-12.533c-5.869-6.934-11.338-13.6-12.405-14.667-1.467-1.6-1.734 0-1.734 10.133 0 11.2.267 12.267 3.068 13.6 2.534 1.2 1.867 1.467-4.402 1.467-6.936.133-7.07 0-4.268-2 2.667-1.867 2.934-3.067 2.934-15.067 0-12.133-.267-13.333-2.934-15.2-3.068-2.133-2.935-2.133 2.267-2.133s5.736.4 15.34 12.533Zm56.556-10.8c6.803 2.8 10.137 8 10.137 15.6 0 5.6-.667 7.334-4.535 11.6l-4.535 4.934-14.539.4c-12.539.266-14.006.133-11.071-1.334 3.201-1.733 3.334-2.533 3.734-14.666.267-11.867.134-13.067-2.667-15.6l-2.935-2.8h10.938c6.403 0 12.938.8 15.473 1.866Zm48.82 3.067-.134 5.067-1.867-3.467c-2.134-3.867-6.403-5.6-11.071-4.267-2.535.667-2.935 1.6-2.935 7.2v6.534h6.669c4.002 0 6.67.533 6.67 1.466 0 1.067-2.134 1.334-6.67.667l-6.669-.933v7.333c0 6.933.267 7.467 3.468 8.267 5.202 1.333 10.271-.934 12.539-5.467l2-4 .4 3.733c.934 7.334.267 7.6-15.339 7.467-10.004 0-13.472-.4-11.338-1.2 2.801-1.2 2.935-2 2.935-15.733 0-13.734-.134-14.667-2.935-16-2.401-1.067-.267-1.467 10.671-1.467l13.606-.133v4.933Zm38.415-2.8c3.601 2.533 3.735 5.867.267 10.267-1.467 1.866-2.668 3.866-2.668 4.666 0 2.4 8.137 12.4 12.405 15.067l4.268 2.667-6.002-.4c-5.736-.4-6.269-.667-11.338-8.667-7.069-10.933-10.004-11.2-10.004-1.067 0 6.4.4 7.6 3.068 8.667 2.268.933.8 1.2-5.736 1.2-8.136.133-8.403 0-5.602-2 2.668-1.867 2.935-3.067 2.935-15.067 0-12.133-.267-13.333-2.935-15.2-2.934-2-2.534-2.133 7.603-2.133 7.603-.133 11.605.4 13.739 2Zm-74.03 78.8c-73.63.267-193.945.267-267.441 0-73.63-.133-13.472-.267 133.654-.267s207.283.134 133.787.267Z"/><path d="M399.094 136.267c.934 2.533 4.269 2.8 9.204.533l4.535-1.867-7.069-.133c-5.202-.133-7.07.267-6.67 1.467ZM430.84 135.733c0 .534 2.135 1.867 4.802 2.8 4.002 1.467 5.069 1.467 6.003 0 .533-.933.667-2.266.4-2.8-.934-1.333-11.205-1.333-11.205 0ZM368.815 139.333l-4.001 1.734 5.735.133c3.068.133 6.003.267 6.536.4.534.267 1.201-.667 1.468-2 .533-2.8-3.869-2.933-9.738-.267ZM410.566 139.6c-13.873 3.6-8.671 6.267 12.138 6.133 17.207-.133 19.608-1.866 7.469-5.6-10.27-3.2-9.47-3.2-19.607-.533ZM463.654 139.6c-2.535 2.667-.401 4.4 5.468 4.4 3.335 0 5.87-.267 5.603-.667-1.601-1.466-10.271-4.533-11.071-3.733ZM340.537 146.667c-3.068 1.2-4.268 5.333-1.6 5.333.666 0 3.601-1.467 6.269-3.333 4.535-3.067 4.668-3.334 1.6-3.2-1.867 0-4.668.533-6.269 1.2ZM349.741 149.6c-3.735 2.4-6.936 4.8-6.936 5.467 0 3.066 29.879-4.4 33.88-8.4.934-.934-2.534-1.334-9.337-1.334-9.604 0-11.204.4-17.607 4.267ZM382.821 148.667c-4.402 1.866-4.135 1.866 5.335 1.066 5.469-.4 10.538-1.2 11.338-1.866 2.001-1.867-11.471-1.2-16.673.8ZM438.977 148.533c.667.8 22.542 4.534 22.542 4 0-.266-2.134-1.466-4.802-2.533-4.268-1.733-19.341-2.933-17.74-1.467ZM464.187 148.667c0 1.333 16.54 8.266 22.009 9.2 2.934.533 6.669 1.333 8.403 1.733 5.069 1.2 3.335-1.733-4.135-6.8-6.402-4.4-7.736-4.8-16.673-4.8-5.202 0-9.604.267-9.604.667ZM490.865 148.8c0 .267 2.4 2.133 5.468 4.133 4.402 2.934 5.603 3.2 6.536 1.6.667-.933.801-2.266.267-2.8-1.067-1.066-12.271-3.733-12.271-2.933ZM414.434 150.4l-3.735.933 4.668 4.534 4.669 4.533 4.668-3.867c5.469-4.533 5.869-5.866 1.868-5.866-1.734 0-4.269-.267-5.736-.534-1.467-.266-4.402-.133-6.402.267ZM396.16 152.267c-19.875 2.133-19.742 2.133-24.01 8.4-2.134 3.2-4.002 6.266-4.002 6.933 0 .533 5.736 3.333 12.806 6.133l12.805 4.934 10.804-7.467c6.003-4.133 11.338-8 12.005-8.533.533-.4-1.867-3.2-5.336-6.134l-6.402-5.333-8.67 1.067ZM428.306 157.2l-5.736 5.067 11.338 8.8L445.113 180l11.871-4c6.536-2.267 12.672-4.267 13.606-4.667 1.334-.533.8-2.4-2.268-7.733l-4.002-6.933-13.071-2.267c-7.203-1.2-14.006-2.267-15.073-2.267-1.067 0-4.669 2.267-7.87 5.067ZM358.411 158c-7.336 2.533-7.336 2.933-.8 5.867 6.402 2.666 7.336 2.4 10.937-3.734l2.401-4.133h-3.734c-2.001.133-6.003.933-8.804 2ZM310.125 160.667 306.123 164l4.002-.8c7.47-1.467 8.67-2 8.67-4 0-2.933-4.268-2.267-8.67 1.467ZM469.522 158.267c0 .533 2.935 5.733 6.003 10.666.4.8 11.338-4.133 11.338-4.933 0-.533-1.734-1.733-3.868-2.667-4.936-2-13.473-4-13.473-3.066ZM335.469 160.933c-3.335.534-16.274 8.4-13.739 8.4.933 0 20.141-8.133 20.942-8.8.666-.533-.934-.533-7.203.4ZM521.544 163.733c0 1.734 1.6 3.067 5.469 4.134 7.336 2.133 7.869 1.066 1.6-3.067-6.002-4.133-7.069-4.267-7.069-1.067ZM333.201 168.133l-12.939 5.467-2.134 7.333c-1.2 4-1.867 7.734-1.467 8 .4.4 6.536 1.334 13.739 2.134l12.938 1.333 5.069-5.867c2.801-3.2 6.936-8.4 9.07-11.466l4.135-5.6-6.669-3.467c-3.735-1.867-7.203-3.333-7.736-3.333-.534.133-6.936 2.533-14.006 5.466ZM409.498 171.6c-5.469 4-10.137 7.6-10.27 8.133-.267.534 4.268 2.534 10.004 4.534l10.27 3.733 11.071-3.467 10.938-3.333-9.604-7.6c-5.335-4.267-10.27-8-11.071-8.533-.667-.4-5.869 2.533-11.338 6.533ZM506.204 168.533c11.605 5.734 13.472 6 6.536.934-2.801-2.134-7.603-4.267-10.537-4.667-4.936-.8-4.669-.4 4.001 3.733ZM307.457 167.333c-5.068 1.467-8.27 3.6-13.338 8.8-3.602 3.867-6.003 7.2-5.203 7.467 2.401.8 13.873-4.667 22.009-10.667 11.071-8 10.138-9.333-3.468-5.6ZM485.796 168.533c-3.869 1.734-7.07 3.6-6.937 4.267.134 1.733 12.806 19.733 15.207 21.733 1.333 1.2 5.602 1.334 15.339.667 7.47-.533 13.472-1.333 13.472-1.733 0-.4-.8-3.867-1.734-7.467l-1.734-6.667-13.205-6.933-13.339-6.8-7.069 2.933ZM521.544 171.067c.266 3.6 26.811 21.333 28.811 19.2 1.067-1.067-8.003-12.4-12.005-14.934-4.801-3.066-16.806-6.133-16.806-4.266ZM357.077 180.8c-4.268 5.467-7.336 10.533-6.936 11.2.4.8 5.336 1.333 10.938 1.333 9.604 0 10.671-.266 19.208-5.6 5.068-3.2 9.203-6 9.203-6.533 0-.667-16.406-7.6-23.343-9.867-.666-.266-4.801 4-9.07 9.467ZM286.516 174.8c-4.936 2.533-6.937 6.533-3.335 6.533 1.867 0 9.737-7.6 8.803-8.533-.266-.267-2.801.667-5.468 2ZM461.252 177.867c-6.535 2.266-11.738 4.4-11.738 4.8 0 .4 4.002 3.466 8.937 6.933l8.804 6.4h11.204c6.003 0 11.072-.4 11.072-.8 0-1.333-15.073-21.867-15.874-21.733-.4.133-6.002 2.133-12.405 4.4ZM311.059 178.133c-2.535 1.067-6.27 3.334-8.404 5.2l-4.001 3.2 3.468.8c10.404 2.134 9.604 2.4 11.871-4.266 1.201-3.334 2.001-6.267 1.734-6.534-.133-.133-2.267.534-4.668 1.6ZM550.355 183.333c3.602 4.8 7.203 6.134 7.203 2.667 0-1.867-7.203-7.333-9.737-7.333-.534 0 .533 2.133 2.534 4.666ZM524.611 187.333l1.334 6h6.536c3.468 0 6.403-.533 6.403-1.066 0-2.267-12.005-10.934-15.073-10.934-.267 0 0 2.667.8 6ZM385.489 188.4l-8.67 5.6 8.67.4c8.403.4 26.677-3.067 26.677-4.933 0-.8-10.537-4.8-16.673-6.4-.667-.267-5.202 2.133-10.004 5.333ZM433.508 186.933l-8.67 2.8 9.204 3.067c6.269 2.133 12.405 3.2 18.674 3.2h9.337l-8.537-6c-4.668-3.333-9.204-6-9.871-5.867-.8 0-5.335 1.334-10.137 2.8ZM284.515 191.067c-4.536 2.4-12.405 10.4-12.405 12.666 0 .4 4.935-3.6 18.007-14.666 2.001-1.734.4-1.2-5.602 2ZM283.714 198.667l-11.604 9.466v8c0 4.267.4 7.867 1.067 7.867 4.135 0 25.21-4.667 26.544-5.867 1.067-1.066 11.071-24 11.071-25.6 0-.133-2.268-.666-4.935-1.2-2.802-.4-6.27-1.2-7.87-1.466-2.001-.534-5.869 1.866-14.273 8.8ZM260.238 196.667c-2.267 2.666-4.135 5.066-4.135 5.466 0 .4 2.401-.666 5.336-2.266 5.068-2.934 6.669-5.6 4.135-7.067-.667-.4-3.068 1.333-5.336 3.867ZM312.793 196.533c-8.27 20-8.537 20.8-6.269 20.667 1.2 0 6.269-1.067 11.204-2.267 8.537-2.133 9.471-2.8 16.407-10.933l7.203-8.667-4.269-.4c-2.267-.266-8.403-.8-13.472-1.466l-9.07-1.067-1.734 4.133ZM412.166 193.2c-2.934.8-3.068 1.067-.934 1.867 1.334.533 6.536.933 11.338.8l8.937-.134-4.668-1.733c-5.202-2-9.604-2.267-14.673-.8ZM556.491 202.533c4.669 4.4 8.67 7.734 8.937 7.467 1.734-1.733-13.072-15.333-16.673-15.333-.267 0 3.201 3.6 7.736 7.866ZM339.203 202.933c-3.068 3.867-5.469 7.2-5.202 7.467 1.334 1.333 17.874-4.533 24.143-8.533 4.002-2.534 7.337-4.934 7.337-5.2 0-.4-4.669-.667-10.271-.667h-10.404l-5.603 6.933ZM531.281 196.933c-3.869.8-3.869 1.334 1.334 15.6l4.401 12 11.872 3.067c17.207 4.4 16.673 4.533 16.673-4.8v-7.867l-10.537-9.466c-10.938-9.867-12.939-10.667-23.743-8.534ZM367.215 200.133c-2.401 1.6-4.402 2.934-4.402 3.2 0 .4 17.474-4 20.675-5.333.8-.267-1.601-.533-5.335-.533-4.536 0-8.004.8-10.938 2.666ZM507.938 198.267c-5.736.266-10.404.8-10.404 1.2 0 .266 3.068 4.4 6.669 9.2 5.869 7.333 7.736 8.8 13.739 10.533 11.605 3.333 14.272 3.867 14.272 2.667 0-.667-1.867-6.4-4.135-12.8-3.601-10-4.668-11.734-7.069-11.467-1.467.133-7.47.533-13.072.667ZM371.483 204.533c-18.808 5.334-21.075 6.267-39.483 17.6-18.407 11.2-20.408 12.8-34.814 28.534-14.539 16-15.606 17.466-25.343 37.733-10.004 20.4-10.271 21.467-13.872 42-4.135 24.267-4.135 22.533-.667 50.267 2.534 20.933 2.801 21.733 11.338 41.333 8.136 18.667 9.603 21.2 23.076 37.6 13.738 16.667 15.339 18.267 33.747 30.8 18.94 12.933 19.874 13.333 40.949 20.133l21.742 6.8 22.943.8 23.076.8 22.409-6.133c20.808-5.6 23.476-6.667 37.348-15.2 8.27-5.067 16.941-10.4 19.342-11.733 2.401-1.334 11.471-10.4 20.141-19.867 14.939-16.533 16.006-18.267 25.61-38 9.871-20.533 10.004-20.8 13.739-43.333L576.632 362l-2.667-22.8-2.801-22.8-8.937-21.2c-8.804-20.133-9.738-21.733-23.61-38.533-13.739-16.534-15.473-18.267-33.88-30.667-18.941-12.8-19.742-13.2-41.617-20.133l-22.276-7.067h-24.676l-24.677.133-20.008 5.6Zm48.42 160.8c-.267 64-.801 81.867-2.001 82.4-1.334.4-1.734-16.666-1.734-82.133 0-45.333.4-82.933.933-83.467.534-.4 1.334-.4 2.001.267.534.533.934 37.867.801 82.933Zm80.299-39.2c5.869 2.4 9.337 7.334 9.337 13.2 0 4.534-4.535 13.334-8.27 15.867l-2.935 2.133 6.67 9.6c8.67 12.8 20.008 24.134 25.877 26 4.401 1.334 4.268 1.467-4.269 1.6l-8.803.134-5.469-6.267c-3.068-3.333-8.937-11.2-13.072-17.333C492.065 360.4 491.531 360 486.596 360h-5.069v32l3.735.8c6.936 1.467 6.269 1.6-7.736 1.6-10.004 0-12.939-.267-10.138-1.067 2.135-.666 4.402-2 4.936-2.933 1.467-2.133 1.467-58.533.133-60.667-.533-.8-2.801-2-4.935-2.666-3.868-1.067-.534-1.467 22.942-2.8 2.401-.134 6.803.666 9.738 1.866Zm-164.467 4c2.801.8 2.801.8-.8 4.267-2.001 2-2.401 2.533-.8 1.333 3.868-3.2 15.206-7.066 12.271-4.266-.533.533.934 2.933 3.068 5.466 3.868 4.267 4.802 8 4.269 16.267-.134 1.733 1.067 4.933 2.667 7.067 2.001 2.933 2.401 4.266 1.201 5.466-.801.8-1.467 4.534-1.467 8.4 0 7.334-1.068 8.534-7.337 8.534-4.668 0-5.202 2.266-.933 3.733 2.134.667 6.002 3.2 8.67 5.6 4.668 4 5.335 4.133 14.272 3.733 5.069-.266 9.337 0 9.337.534 0 .666-12.938 1.066-28.678 1.066s-28.678-.533-28.678-1.2c0-1.6 8.27-7.866 12.538-9.466 4.535-1.734 4.402-4-.133-3.867l-3.735.133 3.335 1.067c2.134.667 2.534 1.067 1.067 1.2-1.334.133-5.603 2.8-9.604 6.133-6.936 5.6-7.87 6-15.473 6-4.402 0-8.003-.533-8.003-1.333 0-.667 1.867-3.333 4.001-5.733 2.268-2.534 4.002-5.6 4.002-6.8 0-1.2.667-2.134 1.334-2.134 2.401 0 1.467-11.733-1.601-17.466-4.535-8.8-4.802-17.2-.533-24.4 2-3.334 5.202-6.934 7.203-8 3.734-2 13.338-2.667 18.54-1.334Zm24.143.134c-2.134.266-5.335.266-7.336 0-2.134-.267-.4-.534 3.602-.534 4.001 0 5.735.267 3.734.534Zm10.671 5.866c2.401 3.334 2.535 3.734.401 1.2-1.601-1.866-4.002-4.133-5.203-5.2-1.467-1.2-1.6-1.6-.4-1.2 1.067.267 3.335 2.667 5.202 5.2Zm5.202 16.134c-.266 1.733-.533.666-.533-2.267-.133-2.933.133-4.267.533-3.067.267 1.334.267 3.734 0 5.334Zm-3.601 31.466c0 1.2 1.601 4 3.735 6.134l3.601 4.133-3.735-3.333c-4.535-3.867-8.403-10.934-5.468-9.734 1.067.4 1.867 1.6 1.867 2.8Z"/><path d="M483.928 328c-2 1.2-2.401 3.6-2.401 15.6v14.133l6.67-.666c7.736-.8 11.471-3.6 12.538-9.467.934-5.6-1.067-14-4.135-17.067-3.068-3.066-9.604-4.4-12.672-2.533ZM328.399 347.333c0 2.134.267 2.934.667 1.6.266-1.2.266-3.066 0-4-.4-.8-.667.134-.667 2.4ZM325.998 360.267l-2.534 3.066 3.068-2.533c2.801-2.4 3.601-3.467 2.534-3.467-.267 0-1.601 1.334-3.068 2.934ZM325.598 377.467c-.134 2.533 3.468 6 4.802 4.666.4-.4.133-.8-.801-.8-.8 0-2.134-1.333-2.801-3.066-.8-2-1.2-2.267-1.2-.8ZM454.85 199.2c0 .667 16.007 6.133 17.874 6.133.8 0-.267-1.466-2.534-3.333-2.802-2.267-5.736-3.2-9.604-3.333-3.202 0-5.736.266-5.736.533ZM472.991 199.733c5.602 5.067 15.873 10.8 22.275 12.8 4.269 1.334 8.137 2.134 8.404 1.867.267-.4-2.001-4-5.202-8.133l-5.602-7.467-10.538-.133c-5.869 0-10.137.533-9.337 1.066ZM260.105 204.4c-6.003 3.6-8.137 6-11.738 12.8-2.535 4.533-4.135 8.667-3.735 9.067 2.134 2.266 24.41-21.6 23.209-24.934-.266-.666-3.735.667-7.736 3.067ZM571.831 200.933c-1.734 1.6-.934 2.667 4.401 6.267 6.136 4 6.803 2.8 1.868-3.067-3.468-4.266-4.669-4.8-6.269-3.2ZM569.563 208.8c0 .4 2.401 4.133 5.202 8.267 5.869 8.666 15.606 18.533 16.94 17.2.934-.934-2.534-10.667-5.602-15.334-2.935-4.533-16.54-12.933-16.54-10.133ZM260.905 218.8c-3.468 3.867-6.002 7.2-5.602 7.467.267.4 3.334.133 6.669-.267l6.136-.933v-6.534c0-3.6-.267-6.533-.534-6.533-.266 0-3.334 3.067-6.669 6.8ZM332.667 214.267C330 214.8 319.862 224 321.863 224c.534 0 4.802-2.4 9.337-5.333 7.87-4.934 8.003-5.734 1.467-4.4ZM239.963 218.533c-4.268 4.267-4.802 6.134-2.134 7.2 1.201.4 2.935-1.466 4.669-5.2 3.334-6.933 2.801-7.333-2.535-2ZM311.059 219.6l-8.537 2-3.868 8.667c-2.134 4.8-3.868 8.933-3.868 9.333 0 .4 2.801-.933 6.402-2.933 6.136-3.6 20.275-16.267 20.275-18.267 0-1.2.267-1.333-10.404 1.2ZM498.868 217.867c0 .4 3.735 3.066 14.005 9.6l4.002 2.533-3.735-4.933c-2.134-2.667-5.602-5.467-7.87-6.267-4.268-1.467-6.402-1.867-6.402-.933ZM568.229 224.933v6.8l6.269 1.334c3.468.8 6.536 1.2 6.803.933.8-.8-4.268-7.467-8.937-11.867l-4.135-4v6.8ZM515.808 223.2c3.201 5.467 12.538 14.8 18.141 18.267 3.601 2.133 6.669 3.866 6.936 3.6.133-.267-1.201-4.267-2.935-9.067l-3.201-8.667-9.871-2.8c-5.735-1.6-9.604-2.133-9.07-1.333ZM284.381 225.2c-6.536 1.333-11.604 3.067-12.271 4.133-.534 1.067-1.468 7.334-2.001 13.867l-.934 11.733 8.537-4.8c4.535-2.666 9.07-5.333 10.004-5.866 2.534-1.467 11.204-21.6 9.337-21.467-.8.133-6.669 1.2-12.672 2.4ZM592.772 224.667c.667 1.466 1.734 4.266 2.401 6.266.667 2.134 2.134 3.734 3.202 3.734 3.334 0 2-4.667-2.401-8.8-3.202-3.067-3.869-3.334-3.202-1.2ZM259.038 229.2c-3.868.533-7.47 1.467-8.003 2.267-.534.8-4.135 6.4-8.137 12.4l-7.203 10.8 1.734 6.4c.934 3.466 2.134 6.8 2.668 7.333.533.667 6.402-1.6 13.072-4.933 13.472-6.8 12.938-5.734 14.272-24.534.534-6 .4-10.8-.267-10.8-.533.134-4.268.667-8.136 1.067ZM538.884 229.2c0 .4 1.734 5.333 4.001 10.8 3.602 8.8 4.802 10.533 10.405 13.867 3.468 2.266 7.603 4.8 9.337 5.866l2.934 1.867v-26.667l-13.339-3.333c-7.336-1.733-13.338-2.933-13.338-2.4ZM241.697 235.067c-2.667 2.8-7.603 12.8-6.669 13.6.267.266 2.935-3.467 6.136-8.134 5.602-8.533 5.869-11.2.533-5.466ZM568.629 244c.534 4.667.934 10.933.934 14.133 0 6.4 0 6.4 17.607 16.267l7.47 4.267 2.534-7.6 2.668-7.734-7.87-12.933c-6.136-10.133-8.537-13.067-10.804-13.067-1.601 0-5.336-.4-8.137-.933l-5.202-.8.8 8.4ZM589.705 239.6c1.2 2.8 11.071 18.933 11.471 18.533 1.2-1.2-3.335-10.133-7.336-14.666-2.535-2.8-4.402-4.667-4.135-3.867ZM221.422 245.6c-4.001 6.667-3.334 8.933 1.334 4.4 4.135-4 4.936-6.533 2.668-8-.667-.4-2.534 1.2-4.002 3.6ZM295.853 243.467c-3.335 1.733-8.671 9.333-7.47 10.666.4.267 3.201-2.133 6.402-5.466 6.403-6.534 6.67-8.134 1.068-5.2ZM539.151 252.133c2.401 3.067 5.469 6.8 6.669 8.4 2.935 3.467 2.935 2.534.4-3.6-1.734-4.133-8.136-10.266-10.671-10.266-.533 0 1.067 2.4 3.602 5.466ZM222.356 254.933c-4.001 4.8-6.269 8.8-6.936 12.4-.4 2.934-1.2 6.934-1.467 8.934-.4 2.133-.133 3.733.533 3.733 3.469 0 17.741-29.6 15.073-31.333-.667-.4-4.001 2.533-7.203 6.266ZM277.445 254c-4.002 2.533-7.736 4.667-8.137 4.933-.533.267-1.333 4.934-1.867 10.4l-.934 10 5.469-6c5.336-5.733 15.873-24.133 13.872-23.866-.666 0-4.401 2.133-8.403 4.533ZM608.912 252c-.533.8.934 3.467 3.202 6.133 4.535 5.067 5.602 3.2 2.134-3.466-2.134-4.134-3.869-4.934-5.336-2.667ZM549.555 256.533c0 2.934 8.67 18.667 13.339 24.134l5.735 6.666-.933-6.533c-.401-3.6-.801-8.4-.801-10.667-.133-3.6-1.067-4.8-7.736-8.8-8.804-5.466-9.604-5.866-9.604-4.8ZM605.578 259.067c0 5.866 11.204 30.266 13.872 30.266 1.601 0-.267-17.2-2.268-20-2.667-3.733-10.137-12-10.937-12-.401 0-.667.8-.667 1.734ZM228.225 267.067c-2.401 5.066-4.135 9.333-3.868 9.6.133.133 2.934-.8 6.136-2.134 6.136-2.666 6.936-5.2 3.735-12.533l-1.734-4-4.269 9.067ZM252.502 267.467c-7.203 4-11.071 6.933-11.071 8.266.133 1.334 1.2 7.2 2.401 13.334l2.267 11.066 7.87-8 8.003-8 1.468-11.466c.933-6.267 1.2-11.334.8-11.2-.4 0-5.736 2.8-11.738 6ZM208.217 272.667c-3.468 5.866-3.601 9.066-.4 8.4 1.601-.267 2.534-2.134 3.068-6.4.533-3.334.667-6.134.533-6.4-.133-.267-1.6 1.733-3.201 4.4ZM601.176 269.333c-3.735 11.6-4.002 10.4 1.867 13.467 3.068 1.467 5.736 2.4 6.136 2 .934-.933-2.935-11.467-5.469-14.933-1.601-2.134-2.001-2.134-2.534-.534ZM570.897 274.4c0 13.333 1.334 17.2 9.07 25.733l7.337 8.134 3.067-12.534c1.735-6.8 3.068-12.8 3.202-13.333 0-.667-16.94-10.8-21.609-12.8-.667-.267-1.067 1.867-1.067 4.8ZM229.426 278.533 222.09 282l-4.269 13.733-4.135 13.734 4.002 6.666c2.267 3.6 4.535 6.534 4.935 6.534.534 0 5.202-4.4 10.671-9.867l9.737-9.733-2.267-12.534c-1.334-6.933-2.668-13.2-3.201-14-.534-1.066-3.068-.4-8.137 2ZM268.908 281.067c-2 2.266-3.868 6-4.401 9.066-.401 2.8-.401 4.934-.134 4.534 1.067-.934 9.204-17.334 8.67-17.334-.266 0-2.134 1.734-4.135 3.734ZM623.451 281.6c.4 1.733.801 4.4.801 6 0 1.867.8 3.067 2 3.067 2.535 0 2.535-3.067 0-8-2.401-4.667-4.001-5.2-2.801-1.067ZM215.153 287.733c-1.6 2.667-3.201 7.867-3.601 11.6-.8 6.267-.534 6 3.201-4.533 2.135-6.267 3.735-11.467 3.602-11.733-.267-.134-1.734 1.866-3.202 4.666ZM593.172 297.6l-3.201 13.733 9.471 10.134c5.202 5.6 9.737 10.266 10.137 10.266.4.134 2.668-2.666 5.069-6.266l4.402-6.534-3.735-14.133-3.735-14.267-7.203-3.2c-3.868-1.866-7.336-3.333-7.47-3.333-.266 0-1.867 6.133-3.735 13.6ZM562.76 288c.667 1.867 2.401 6 3.868 9.333l2.801 6V298.4c.134-3.867-.8-6.133-3.868-9.333-3.735-4-3.868-4.134-2.801-1.067ZM252.902 297.867l-6.136 7.333 1.467 9.6 1.601 9.6 4.002-7.867c3.868-7.466 8.27-25.866 6.269-25.866-.534 0-3.735 3.2-7.203 7.2ZM616.248 295.6c.134.667 1.201 4.933 2.668 9.733L621.45 314v-5.733c.134-3.2-.8-7.467-1.867-9.6-2.001-3.867-3.335-5.067-3.335-3.067ZM573.698 306.667c.667 5.866 2.534 12.666 4.935 17.733l3.735 8.267 2.001-10.134 2.001-10.133-6.803-7.733-6.803-7.734.934 9.734ZM198.347 300.933c-.534.4-.934 3.334-.934 6.267l.133 5.467 2.668-5.067c2.401-4.667 2.401-7.6 0-7.6-.534 0-1.467.4-1.867.933ZM201.681 313.2c-4.402 8.267-4.535 8.933-3.335 17.333.534 4.8 1.734 8.667 2.401 8.4 2.535-.8 6.003-16.666 5.736-25.6l-.4-8.666-4.402 8.533ZM233.561 316.933 223.69 326l6.403 11.733c3.468 6.4 6.536 11.6 6.803 11.6.266 0 2.667-4.266 5.335-9.466 4.402-8.934 4.669-10.134 3.868-17.467-1.867-16-1.334-15.733-12.538-5.467ZM630.521 311.6c-.4.667.8 3.733 2.534 7.067 2.935 5.866 3.068 5.866 3.068 2 .134-5.867-1.2-10-3.335-10-.933 0-2 .4-2.267.933ZM210.752 319.467c-.801 2.8-1.334 7.2-1.067 9.6l.4 4.4 4.535-3.867c4.935-4 4.935-6.133.267-12.133l-2.535-3.334-1.6 5.334ZM626.519 315.6c-2.801 2.667 1.334 35.067 4.402 35.067.533 0 1.601-4.267 2.534-9.334 1.468-8.933 1.334-9.733-2.001-17.733-4.001-9.467-3.868-9.2-4.935-8ZM588.904 317.6c-.267.933-1.334 6-2.401 11.067L584.769 338l4.802 10.667 4.802 10.533 6.402-11.467c3.602-6.4 6.403-12 6.136-12.666-.8-2.8-17.474-18.934-18.007-17.467ZM252.769 326.533c-1.734 4.134-2.001 6.4-1.067 10.4l1.2 5.067 1.601-9.867c.933-5.333 1.467-10 1.2-10.266-.267-.4-1.6 1.733-2.934 4.666ZM615.848 329.067l-3.468 5.2 5.469 5.2 5.335 5.2-.666-8.267c-.401-4.4-1.201-9.2-1.868-10.4-1.067-1.867-1.734-1.333-4.802 3.067ZM193.011 332c-1.601 5.867-1.067 10.667 1.067 10.667s2.534-4.667.8-10.667l-.933-3.333-.934 3.333ZM214.22 334.133l-5.336 4.534-.4 15.066-.534 14.934 6.003 5.066 6.002 5.067 2.001-3.067c1.067-1.733 4.268-7.2 7.203-12.266l5.335-9.2-6.135-12.534c-3.468-6.8-6.803-12.4-7.603-12.4-.667.134-3.735 2.134-6.536 4.8ZM576.766 334c.4 2.933.8 6.933.8 8.933 0 5.2 2.268 4.667 3.068-.666.4-2.8-.267-5.867-2.001-8.934l-2.534-4.666.667 5.333ZM242.764 345.333l-4.268 8.4 3.602 8.4c2 4.667 4.135 8.534 4.668 8.534 3.068 0 3.868-29.867.8-32.934-.266-.4-2.534 3.067-4.802 7.6ZM602.91 350.533l-6.803 12 5.602 11.067c7.737 15.467 7.203 15.2 13.872 9.733l5.603-4.666 1.067-14.934.934-14.933-5.87-5.067c-3.067-2.666-6.135-5.066-6.669-5.066-.4 0-4.001 5.333-7.736 11.866ZM203.282 347.067c-1.067 4.666-1.067 8 0 12.666l1.467 6.267.4-6.4c.267-3.467.267-9.067 0-12.667l-.4-6.266-1.467 6.4ZM636.256 343.2c0 .933-.4 3.733-.8 6-.667 3.2-.4 4.133 1.201 4.133 3.067 0 3.601-1.6 2.667-7.066-.667-4.667-3.068-6.934-3.068-3.067ZM581.834 353.067c-1.6 9.466-.933 23.733 1.201 25.066.667.267 2.934-3.066 5.202-7.6l4.135-8.133-4.535-9.467-4.402-9.6-1.601 9.734ZM625.852 362c0 10.8.134 11.467 1.334 6.4.933-3.733.933-7.6 0-12-1.2-6.133-1.334-5.867-1.334 5.6ZM229.025 370.267l-6.535 11.466 9.07 9.067c4.935 4.933 9.47 8.8 9.87 8.533.534-.266 1.735-5.066 2.668-10.666l1.734-10-4.402-10c-2.4-5.467-4.668-10-5.202-10-.4 0-3.734 5.2-7.203 11.6ZM191.41 364.133c-.533.667-.4 3.734 0 6.8 1.067 5.867 2.401 5.067 3.735-2.533.534-2.933.267-4.4-1.067-4.933-1.067-.4-2.268-.134-2.668.666ZM198.347 369.6c-2.668 11.333-2.535 15.467 1.067 23.6 2 4.4 4.268 7.733 5.068 7.2 2.535-1.6-1.6-33.733-4.401-33.733-.534 0-1.334 1.333-1.734 2.933ZM588.904 376.133c-4.802 9.2-4.935 9.867-4.002 18.8 1.468 15.734 1.334 15.734 12.272 4.8l9.604-9.733-6.403-11.733-6.402-11.734-5.069 9.6ZM250.234 373.067c-.667 4.266-.266 6.8 1.734 10.666l2.668 4.934-.8-8c-1.201-11.734-2.401-14.534-3.602-7.6ZM208.484 381.2c.934 11.067 2.267 12.133 6.669 5.733l3.468-5.333-2.934-2.533c-8.27-7.2-8.137-7.2-7.203 2.133ZM634.923 378.267c0 6.533 2 9.866 3.068 5.466 1.6-5.6 1.067-10.4-1.068-10.4-1.467 0-2 1.467-2 4.934ZM577.166 380c-.534 3.333-1.334 8.133-1.734 10.667l-.667 4.666 2.668-4.8c2.134-4 2.534-6 1.734-10.666L578.1 374l-.934 6ZM629.187 376.933c-2.935 4.8-7.203 32.934-5.202 34.267.667.4 3.068-3.2 5.469-7.867 4.001-8.266 4.135-9.066 2.934-17.466-1.334-8.934-2.001-10.934-3.201-8.934ZM615.982 387.067l-4.936 4.266 3.602 6 3.468 5.867 1.734-5.867c1.067-3.333 1.601-7.866 1.467-10.266l-.4-4.267-4.935 4.267ZM216.221 390.933l-4.402 6.8L215.42 412l3.735 14.267 7.07 3.466c3.868 2 7.336 3.067 7.603 2.534.4-.534 2.001-6.667 3.601-13.867l3.201-12.8-6.802-7.867c-3.735-4.266-8.27-9.066-9.871-10.666l-3.201-2.934-4.535 6.8ZM246.766 391.467c-.8 4.266-1.734 9.066-2.134 10.533-.267 1.867 1.734 4.933 6.402 10l6.803 7.333-.667-8.8c-.4-5.466-2.134-12-4.802-17.866l-4.001-9.067-1.601 7.867ZM194.745 397.333c0 7.2 1.734 10.8 4.135 8.4 1.201-1.2.934-3.066-1.2-8l-2.801-6.4-.134 6ZM576.499 400.933c-3.602 7.6-7.87 24-6.536 25.334.267.133 3.468-2.8 7.336-6.667l6.803-6.933-1.601-10.4-1.6-10.534-4.402 9.2ZM597.441 403.733l-9.737 9.2 2.267 13.2c1.334 7.2 2.801 13.6 3.335 14.134.667.666 4.135-.267 7.736-1.734l6.803-2.933 4.535-13.867 4.402-13.866-3.468-6.267c-1.867-3.467-4.135-6.4-4.935-6.667-.667-.266-5.603 3.734-10.938 8.8ZM630.254 409.333c-2.534 5.6-2.134 7.467 1.334 6.267 1.334-.533 2.001-2.667 2.001-6.267 0-2.933-.267-5.333-.4-5.333-.267 0-1.601 2.4-2.935 5.333ZM209.551 410c-.133 3.333.934 6.8 2.535 9.333l2.801 4-.934-4c-.534-2.266-1.734-6.4-2.668-9.333l-1.6-5.333-.134 5.333ZM240.363 420.267c-1.6 6.8-2.934 13.066-2.934 13.866 0 .8 2.001 2.4 4.402 3.6 2.267 1.067 7.469 4 11.471 6.267l7.203 4.267-.934-11.2c-1.067-11.734-1.6-12.8-10.537-22.8l-5.736-6.4-2.935 12.4ZM616.382 419.867c-1.601 5.2-3.201 10.4-3.602 11.733-.4 1.333.667.133 2.535-2.667 2.934-4.533 5.869-16.533 4.402-17.866-.267-.267-1.734 3.733-3.335 8.8ZM261.572 418.667c-.133 3.466.934 6 3.868 9.333 4.402 5.2 4.269 4-1.067-8l-2.801-6v4.667ZM575.965 424.933c-6.669 6.934-7.469 8.4-8.27 15.067-.533 4-1.2 9.333-1.6 11.6l-.801 4.4 11.738-6.267c6.536-3.333 12.139-6.266 12.272-6.533.8-.533-4.268-25.867-5.069-25.867-.4 0-4.135 3.467-8.27 7.6ZM561.693 430.4l-4.402 8.933 4.002-3.733c3.468-3.333 6.803-12.133 5.335-13.733-.266-.267-2.534 3.6-4.935 8.533ZM202.215 426.4c-.667 1.067 4.268 13.067 4.935 12.133.267-.266.267-3.333-.133-6.933-.4-4-1.201-6.267-2.268-6.267-1.067 0-2.134.534-2.534 1.067ZM211.018 436.267c1.067 8.266 1.868 10.266 6.536 16 5.069 6 7.87 7.866 7.87 5.333 0-5.2-12.138-30.933-14.539-30.933-.534 0-.534 4.266.133 9.6ZM221.423 433.067c0 1.333 1.6 5.6 3.601 9.6l3.602 7.2 1.6-4.667c2.668-7.467 2.268-8.933-3.468-11.867-5.069-2.533-5.335-2.533-5.335-.266ZM263.439 440c.4 5.467 1.067 10.267 1.468 10.8.8 1.333 16.54 10.533 16.54 9.733 0-2.8-10.138-20.933-14.139-25.2L262.506 430l.933 10ZM610.379 444c-5.202 8.267-10.671 22.533-9.337 23.867.4.4 3.735-2.267 7.203-6.134 5.469-5.866 6.536-8 7.336-14 .401-3.866 1.201-8.133 1.468-9.466 1.467-4.8-2.001-2-6.67 5.733ZM619.85 441.6c-.4 3.2-.534 5.867-.267 6.133.534.534 6.003-9.6 6.003-11.066 0-.4-1.068-.667-2.535-.667-1.867 0-2.668 1.333-3.201 5.6ZM235.428 440.267c-.267.933-1.467 4.266-2.534 7.466l-2.001 5.734L238.496 466c6.803 11.333 8.003 12.667 12.272 13.333 2.534.534 6.269 1.2 8.27 1.467 3.468.667 3.601.533 3.068-4.4a802.9 802.9 0 0 1-.534-14.4l-.133-9.333L249.834 446c-14.139-8.133-13.605-8-14.406-5.733ZM557.958 444.4c-4.402 4.533-13.739 20-13.739 22.8 0 .933 16.407-8.8 17.474-10.267.934-1.333 2.801-17.066 2.134-17.733-.267-.267-2.934 2-5.869 5.2ZM599.442 442.533l-5.603 2.534 1.468 6.133c.8 3.333 1.867 6.133 2.401 6.133 1.333 0 8.27-14.266 7.603-15.866-.267-.8-2.668-.267-5.869 1.066ZM577.966 453.067c-13.739 6.8-13.072 6-14.539 23.2L562.493 488h3.201c11.205 0 12.672-1.067 21.209-14l8.137-12.4-2.135-7.467c-1.2-4.133-2.267-7.466-2.401-7.333-.133 0-5.735 2.8-12.538 6.267ZM213.419 453.6c-.133 2.8 4.535 11.733 6.003 11.733 3.468 0 3.068-2.133-1.334-7.333-2.535-2.933-4.535-4.933-4.669-4.4ZM264.507 458.667c.533 2.4.933 8.666.933 13.866v9.6l12.939 2.934c7.069 1.6 13.072 2.8 13.205 2.533.134-.133-1.467-4.933-3.601-10.533-4.135-10.667-4.669-11.2-22.409-21.734-1.468-.933-1.734-.266-1.067 3.334ZM282.914 455.333c0 3.467 4.935 10.534 9.204 13.067l4.668 2.933-2.934-4c-4.802-6.666-10.938-13.466-10.938-12ZM230.226 461.6c2.001 6.8 3.068 8.533 7.336 12.4 4.002 3.733 4.269 3.733 2.401.667-1.2-1.867-3.735-6.134-5.735-9.734-4.002-6.8-5.469-8-4.002-3.333ZM537.417 466.4c-2.535 2.667-5.603 6.133-6.67 7.6-1.734 2.4-1.6 2.4 2.801-.267 4.402-2.666 10.405-10.533 9.071-11.733-.267-.4-2.668 1.6-5.202 4.4ZM550.622 467.733c-8.537 4.667-9.204 5.467-13.206 14.267-2.267 5.067-4.401 10-4.801 10.8-.267.8 4.535.4 12.805-1.2l13.205-2.533.934-8.267c.4-4.4 1.067-10.4 1.467-13.2.4-2.667.267-4.933-.4-4.933-.534 0-5.069 2.266-10.004 5.066ZM607.045 467.733c-3.869 5.067-4.135 6.934-.667 6.934 1.6 0 6.536-10.534 5.469-11.6-.401-.267-2.535 1.866-4.802 4.666ZM591.438 473.067c-2.267 3.466-5.202 8-6.535 10.266l-2.535 4 4.402-4c4.002-3.466 10.404-14.8 9.204-16-.267-.266-2.268 2.4-4.536 5.734ZM289.45 471.2c0 1.733 6.002 16.4 7.203 17.6 1.601 1.6 18.141 6.267 19.074 5.467.934-1.067-17.34-18.8-21.875-21.334-2.401-1.333-4.402-2.133-4.402-1.733ZM528.88 480.267c-7.337 4.4-14.139 10.533-18.008 15.866l-2.534 3.467 9.604-2.267 9.604-2.133 4.402-9.067c2.401-5.066 4.135-9.333 4.001-9.6-.267-.133-3.468 1.467-7.069 3.734ZM230.893 482.533c-1.467.934-1.334 1.867.934 5.067 2.934 4.133 6.936 8 6.936 6.667 0-1.067-5.202-12.934-5.602-12.934-.267 0-1.201.534-2.268 1.2ZM237.429 482c0 .4 1.734 4.533 3.868 9.2 3.201 7.2 5.069 9.467 11.338 13.6 4.135 2.667 7.87 4.533 8.403 4.133 1.201-1.333-5.869-11.333-14.139-20-6.669-6.8-9.47-8.933-9.47-6.933ZM251.301 486.133c3.735 5.734 9.071 11.2 10.405 10.4 1.467-.933 1.467-10.8 0-11.733-.667-.4-3.869-1.067-7.07-1.6l-5.736-.933 2.401 3.866ZM265.44 493.6v8.4l10.805 9.733 10.804 9.734 7.603-.934c4.135-.4 7.736-1.066 8.003-1.333 1.067-.933-8.537-26.133-10.404-27.067-1.2-.666-6.669-2.133-12.138-3.466-5.469-1.2-11.071-2.534-12.272-2.934-2.134-.533-2.401.4-2.401 7.867ZM318.262 492.267c2.001 2.533 5.869 5.066 8.67 5.866 2.934.934 5.202 1.334 5.202 1.067 0-.667-15.74-11.2-16.673-11.2-.534 0 .8 2 2.801 4.267ZM578.1 495.733C567.829 505.2 560.226 516 563.694 516c.4 0 4.001-1.867 7.87-4.133 5.735-3.6 7.736-5.734 11.204-12.8 6.003-12.267 5.469-12.667-4.668-3.334ZM563.961 492.133c-1.734.934-2.401 3.067-2.401 7.334v6l4.402-3.334c2.267-1.733 5.335-5.066 6.669-7.333l2.401-4.133h-4.402c-2.401 0-5.469.666-6.669 1.466ZM588.237 496.133c-1.601 3.067-2.534 5.734-2.267 6 1.067 1.067 9.07-8.933 8.27-10.266-1.601-2.4-3.335-1.2-6.003 4.266ZM501.135 496.8c-8.27 5.2-8.937 6.667-2.401 5.2 2.268-.533 5.469-2.8 7.47-5.467 1.868-2.533 3.335-4.533 3.068-4.533-.267 0-3.868 2.267-8.137 4.8ZM544.353 495.2l-14.006 2.8-5.069 12.533c-2.801 6.934-5.068 13.067-5.068 13.6 0 .534 3.601 1.334 8.003 1.867l8.003.933 9.471-7.733c5.202-4.4 10.27-8.533 11.338-9.333 1.467-1.2 1.867-3.734 1.6-9.467l-.4-8-13.872 2.8ZM301.855 506l4.268 12.667h13.739c7.47 0 13.606-.4 13.606-1.067 0-.533-3.201-4.8-7.07-9.467-7.069-8.8-8.937-9.866-25.343-14l-3.468-.8L301.855 506ZM514.207 501.6c-10.271 2.533-10.938 2.933-17.607 10.8-8.003 9.733-8.003 9.733 8.804 10.4l11.204.533 4.935-12.4c2.668-6.666 4.536-12.266 4.135-12.133-.4 0-5.602 1.333-11.471 2.8ZM331.6 509.333l6.27 8h9.737c5.469 0 9.87-.266 9.87-.4 0-1.866-16.006-10.933-22.942-13.066-4.669-1.334-8.537-2.534-8.804-2.534-.266 0 2.401 3.6 5.869 8ZM487.53 507.867c-4.402 1.333-11.205 4.533-15.206 6.933l-7.203 4.533 5.202.934c12.138 2.133 14.406 1.6 20.141-5.334 9.071-10.8 9.204-10.666-2.934-7.066ZM249.434 507.6c0 .667 1.734 3.2 3.735 5.6 3.201 3.867 3.868 4.133 5.335 2.4s1.067-2.4-2.001-4.533c-5.735-4-7.069-4.667-7.069-3.467ZM267.574 510.533c1.334 2.4 4.002 5.467 5.869 6.8 4.002 2.8 9.338 5.6 9.338 4.934 0-.267-4.002-4-8.937-8.4-7.87-6.934-8.671-7.334-6.27-3.334ZM359.478 513.867c3.068 2.533 5.469 3.333 10.004 3.333h6.003l-6.67-2.4c-3.601-1.333-8.136-2.8-10.004-3.333-3.201-.934-3.201-.934.667 2.4ZM456.451 515.867c-10.538 3.066-11.605 4.133-4.135 4.133 3.868-.133 7.736-1.2 11.204-3.333 6.269-3.867 4.535-4-7.069-.8ZM548.888 520.667c-9.604 7.866-10.004 8.8-2.268 4.8 4.002-2.134 13.873-12.134 11.872-12.134-.4 0-4.669 3.334-9.604 7.334ZM568.096 517.733c-2.668 1.6-4.535 3.734-4.269 4.534 1.067 3.066 4.002 1.866 7.603-2.934 4.135-5.466 3.335-5.866-3.334-1.6ZM310.525 522.267c-2.801.666-2.801.533-.667 9.066l1.734 6.667 13.206 6.4 13.205 6.4 7.069-2.933c8.404-3.334 8.404-3.067-1.333-16.8l-6.937-9.734-12.004.134c-6.536.133-13.072.4-14.273.8ZM341.471 522c0 .4 2.668 4.4 6.002 8.933 3.468 4.534 6.67 9.2 7.337 10.267 1.067 1.867 2.401 1.733 12.271-1.733 16.14-5.6 15.74-4.934 6.003-11.867l-8.804-6.267h-11.338c-6.269 0-11.471.267-11.471.667ZM370.816 521.867c0 .266 3.468 2.8 7.737 5.733l7.603 5.333 9.87-2.933 10.004-2.933-8.536-2.8c-7.203-2.534-26.678-4.267-26.678-2.4ZM406.03 523.467c4.002 1.466 6.403 1.6 10.271.533 2.935-.8 5.202-1.733 5.202-2 0-.4-4.668-.667-10.27-.533h-10.405l5.202 2ZM294.785 523.867l-4.668.8 4.668 3.466c6.003 4.534 10.671 6.934 11.605 6 .534-.4.134-3.2-.8-6.133-1.601-5.6-2.001-5.733-10.805-4.133ZM423.504 525.067l-6.669 2 4.401 1.866c2.268.934 6.937 2.4 10.138 3.334 5.736 1.466 6.136 1.466 14.406-4l8.403-5.6-12.005.133c-6.669.133-14.939 1.067-18.674 2.267ZM449.515 529.333l-9.604 6.267 12.805 5.067c7.603 3.066 13.339 4.666 13.872 3.866 4.802-5.6 15.206-19.466 14.806-19.733-.267-.267-5.335-.8-11.338-1.067l-10.804-.666-9.737 6.266ZM477.792 535.467c-4.535 5.866-8.27 10.933-8.27 11.333 0 .533 3.068 2.4 6.803 4.267l6.803 3.333 13.472-5.6 13.472-5.733 2.534-7.6c1.334-4.134 2.268-7.867 2.135-8.134-.267-.266-6.936-.933-14.673-1.333l-14.139-1.067-8.137 10.534ZM281.447 529.333c3.601 6.8 11.471 13.067 19.208 15.2 4.268 1.334 8.136 1.867 8.537 1.467 1.333-1.2-10.271-10.8-18.541-15.2-9.071-4.933-11.205-5.2-9.204-1.467ZM274.377 528.933c-2.134 2-.533 4.534 4.535 7.2l5.603 2.8-2.801-4c-3.602-4.933-6.27-7.2-7.337-6ZM517.809 530.8c-2.535 6.667-3.068 9.2-2.001 9.2.533 0 4.268-1.867 8.137-4 6.669-3.867 8.803-6.667 5.068-6.667-.933 0-3.601-.4-6.002-.8-3.468-.666-4.269-.4-5.202 2.267ZM398.294 532.533l-9.07 2.8 8.403 6.667c4.535 3.733 9.471 7.467 10.804 8.4 2.135 1.6 3.735.8 13.206-5.867 12.005-8.4 12.138-8.133-1.067-12.666-9.071-3.067-10.538-3.067-22.276.666ZM530.881 536.667c-9.337 5.066-19.875 13.2-18.541 14.533.4.4 4.668-.267 9.337-1.6 7.203-2 9.737-3.467 14.673-8.8 9.603-10.533 8.27-11.467-5.469-4.133ZM542.485 538.933c-1.867 2.4-3.201 4.534-2.934 4.8 1.067 1.067 9.337-4.533 9.337-6.4 0-3.466-3.068-2.8-6.403 1.6ZM370.949 541.467c-6.135 2.133-11.471 4.133-11.738 4.4-.533.4 4.269 9.866 7.07 13.866.133.134 6.669 1.467 14.672 2.8l14.54 2.4 5.735-4.666c3.068-2.534 5.603-5.067 5.603-5.734 0-1.733-20.409-17.2-22.676-17.066-1.067 0-7.07 1.866-13.206 4ZM425.238 546c-5.602 4-10.538 7.733-10.804 8.267-.4.666 2.001 3.333 5.335 6.266l5.869 5.2L440.177 564l14.54-1.733 4.001-6.534c2.268-3.6 4.135-6.8 4.135-7.066 0-.667-23.876-10-25.743-10-.801 0-6.27 3.333-11.872 7.333ZM317.195 546.533c3.734 3.2 14.672 7.6 15.873 6.4.133-.266-4.269-2.666-10.004-5.333-10.138-4.933-10.271-4.933-5.869-1.067ZM301.188 550.667c4.669 4.266 8.27 5.2 8.27 2.133 0-1.067-2.801-2.8-6.269-4l-6.403-2.133 4.402 4ZM499.001 551.067c-5.469 2.4-8.937 4.4-7.603 4.666 3.201.667 10.271-2 14.806-5.733 4.935-4.133 4.935-4.133-7.203 1.067ZM347.473 550.533l-5.335 2.4 5.069 2.134c2.801 1.2 7.203 2.533 9.87 3.066l4.802.934-3.068-5.6c-3.601-6.267-4.001-6.267-11.338-2.934ZM462.32 556c-3.202 4.8-3.202 5.333-1.067 5.333 3.734 0 16.273-4 16.273-5.2 0-.933-8.537-5.466-10.538-5.466-.667 0-2.668 2.4-4.668 5.333ZM517.942 553.733c-4.268.934-5.735 2-5.735 3.734 0 3.066.4 3.066 5.202.666 2.934-1.6 8.536-6.533 6.669-6-.267.134-3.068.8-6.136 1.6ZM332.134 557.867c0 .266 3.735 3.066 8.136 6 7.603 5.066 8.804 5.466 17.341 5.466 5.068 0 9.203-.533 9.203-1.066 0-1.6-15.072-7.867-22.675-9.467-6.27-1.467-12.005-1.867-12.005-.933ZM405.63 560.8c-2.267 1.867-3.868 4-3.335 4.667.401.666 4.669 1.2 9.604 1.2h8.804L416.168 562c-2.535-2.533-4.936-4.667-5.469-4.667-.534 0-2.801 1.6-5.069 3.467ZM477.526 562c-10.804 1.867-22.409 6-23.209 8.267-.534 1.333 1.6 1.733 8.803 1.733 8.003 0 10.404-.533 16.54-4.133 11.738-6.667 11.071-8.267-2.134-5.867ZM327.732 562.267c-1.734 1.733-.934 2.8 3.201 4.266 7.203 2.534 8.937 1.734 4.536-1.866-4.135-3.334-6.136-4-7.737-2.4ZM374.151 566.533c5.469 2.667 15.339 3.734 15.339 1.6 0-.666-3.201-1.6-6.936-2-3.868-.533-8.537-1.2-10.404-1.6-2.268-.4-1.601.267 2.001 2ZM485.396 568.133l-5.869 4 4.668-.8c7.87-1.466 9.337-2.133 9.337-4 0-3.466-2.134-3.2-8.136.8ZM434.175 567.867l-6.669.8 6.002 1.066c4.268.667 7.736.4 11.338-.933l5.335-2-4.668.133c-2.534.134-7.603.534-11.338.934ZM394.826 571.867c-3.735 1.2-3.602 1.333 8.003 5.2 4.002 1.466 8.003 2.4 8.67 2.133 14.673-4 16.94-4.8 15.74-6-1.734-1.733-28.012-2.8-32.413-1.333ZM354.81 572.533c0 .934 9.07 4.8 11.471 4.8 1.067 0 1.868-.933 1.868-2 0-1.066-1.068-2-2.535-2-1.334 0-4.402-.4-6.669-.8-2.268-.533-4.135-.533-4.135 0ZM452.182 577.333c0 3.067.134 3.2 6.803 1.2 6.269-2 5.469-3.866-1.601-3.866-4.268 0-5.202.4-5.202 2.666ZM388.957 578.267c-1.067 2.8-1.201 2.666 2.267 3.6 1.734.4 4.802.266 6.936-.4l4.002-.934-6.269-2.133c-5.469-1.867-6.269-2-6.936-.133ZM423.771 579.2c-6.003 1.867-5.202 3.467 1.734 3.467 5.469 0 6.803-.8 5.736-3.467-.801-2.133-.667-2.133-7.47 0ZM212.886 626.133c-1.467 1.334-2.134 4.534-2.134 10 0 7.734.133 7.867 3.735 7.867 6.002 0 9.603-3.467 9.603-9.067 0-5.733-.933-7.333-4.935-9.466-3.735-1.867-3.868-1.867-6.269.666ZM522.611 636.933c-2.135.534-2.401 2.4-2.401 15.067 0 13.467.133 14.533 2.801 15.333 6.803 2.267 15.206-3.333 16.673-11.066 2.268-11.734-6.803-21.867-17.073-19.334ZM611.313 636.933c-1.067.4-1.734 3.2-1.734 7.2 0 5.867.267 6.534 3.068 6.534 4.135 0 5.869-1.467 6.936-5.6.667-2.534.134-4.267-1.867-6.267-2.935-2.933-3.602-3.067-6.403-1.867Z"/></g><defs><clipPath id="a"><path fill="#fff" d="M0 0h826.667v836H0z"/></clipPath></defs></svg>