<svg width="60" height="56" fill="none" xmlns="http://www.w3.org/2000/svg"><path fill-rule="evenodd" clip-rule="evenodd" d="m55.014 43.389-9.553-4.776A2.63 2.63 0 0 1 44 36.248v-3.381c.229-.28.47-.599.719-.951a22.886 22.886 0 0 0 2.954-5.799A3.968 3.968 0 0 0 50 22.5v-4c0-.963-.36-1.896-1-2.625v-5.319c.056-.55.276-3.824-2.092-6.525C44.854 1.688 41.521.5 37 .5s-7.854 1.188-9.908 3.53c-1.435 1.637-1.918 3.481-2.064 4.805C23.314 7.949 21.294 7.5 19 7.5c-10.389 0-10.994 8.855-11 9v4.579c-.648.706-1 1.521-1 2.33v3.454c0 1.079.483 2.085 1.311 2.765.825 3.11 2.854 5.46 3.644 6.285v2.743c0 .787-.428 1.509-1.171 1.915l-6.653 4.173A7.924 7.924 0 0 0 0 51.703V55.5h60v-4.043a8.973 8.973 0 0 0-4.986-8.068ZM14 51.262V53.5H2v-1.797c0-2.17 1.184-4.164 3.141-5.233l6.652-4.173a4.143 4.143 0 0 0 2.161-3.641v-3.591l-.318-.297c-.026-.024-2.683-2.534-3.468-5.955l-.091-.396-.342-.22A1.59 1.59 0 0 1 9 26.863v-3.454c0-.36.245-.788.671-1.174l.329-.297-.002-5.38c.018-.287.539-7.058 9.002-7.058 2.393 0 4.408.553 6 1.644v4.731c-.64.729-1 1.662-1 2.625v4c0 .304.035.603.101.893.017.071.043.139.07.206.017.043.034.085.048.128l.04.127c.04.127.078.254.136.373l.001.002a.68.68 0 0 0 1.11 1.41l.007.024c.06.229.123.457.191.68l.081.261.028.086.007.021.011.032.024.073a16.78 16.78 0 0 0 .331.934l.043.104a20.431 20.431 0 0 0 .27.658l.009.024.031.076.056.126.042.09.037.077a20.177 20.177 0 0 0 .317.67l.024.05c.049.097.098.19.147.283l.042.08a21.809 21.809 0 0 0 .888 1.539l.04.065.045.07a18.693 18.693 0 0 0 .716 1.039l.035.047.052.07.019.027v3.309c0 .968-.528 1.856-1.377 2.32l-2.646 1.443-.461-.041-.188.395-5.626 3.069A9.021 9.021 0 0 0 14 51.262Zm2 0V53.5h42v-2.043a6.982 6.982 0 0 0-3.881-6.28l-9.553-4.776A4.618 4.618 0 0 1 42 36.248v-4.125l.249-.284c.251-.285.54-.658.837-1.079a20.934 20.934 0 0 0 2.834-5.713l.16-.495.498-.153A1.989 1.989 0 0 0 48 22.5v-4a1.97 1.97 0 0 0-.67-1.474l-.33-.298.009-6.359v-.003c.01-.103.296-2.869-1.623-5.038C43.727 3.451 40.905 2.5 37 2.5c-3.919 0-6.747.958-8.404 2.849-1.614 1.841-1.657 4.054-1.623 4.776l.027.021v6.582l-.33.297c-.432.391-.67.914-.67 1.475v4c0 .676.346 1.303.926 1.677l.341.22.091.396c.076.332.166.655.26.971l.01.035.009.026.055.178c.092.293.188.577.29.849.05.133.097.252.143.368l.018.046.02.05.04.1a20.128 20.128 0 0 0 .192.449l.026.058c.124.279.251.547.378.802l.001.002c.239.475.479.904.705 1.283l.024.04a19.487 19.487 0 0 0 .866 1.319l.003.005a9.504 9.504 0 0 0 .205.275l.155.198.01.012.038.045.194.232v4.019a4.644 4.644 0 0 1-2.42 4.077l-8.921 4.866A7.016 7.016 0 0 0 16 51.262Z" fill="#000"/><path fill-rule="evenodd" clip-rule="evenodd" d="M52 47a5 5 0 1 0 0-10 5 5 0 0 0 0 10Z" fill="#FDCF26"/></svg>