<svg width="58" height="54" fill="none" xmlns="http://www.w3.org/2000/svg"><path fill-rule="evenodd" clip-rule="evenodd" d="m33.264 6.3-4.5-6.3H9.4v3.6H6.7v3.6H4V54H58V6.3H33.264ZM5.8 52.2V9h16.636l4.5 6.3h.011l4.221 5.896a.902.902 0 0 0 .732.376v.028h24.3v30.6H5.8Zm26.583-32.4H56.2v-4.5H29.162l3.221 4.5ZM56.2 13.5H27.872l-4.24-5.924h-.001l-.268-.376H8.5V5.4h16.637l4.5 6.3H56.2v1.8ZM26.063 3.6l4.5 6.3H56.2V8.1H32.336l-4.5-6.3H11.2v1.8h14.864Z" fill="#000"/><path fill-rule="evenodd" clip-rule="evenodd" d="M53.5 49.5H28.3v-18h25.2v18Zm-1.8-16.2H30.1v14.4h21.6V33.3Z" fill="#000"/><path fill="#000" d="M33.7 36h9v1.8h-9zM33.7 39.6h14.4v1.8H33.7zM33.7 43.2h14.4V45H33.7z"/></svg>