<svg width="58" height="54" fill="none" xmlns="http://www.w3.org/2000/svg"><path fill-rule="evenodd" clip-rule="evenodd" d="M53.1 14.4H28.8v-.9a2.7 2.7 0 0 0-1.8-2.534V7.2h1.8V4.5A4.505 4.505 0 0 0 24.3 0h-18a4.505 4.505 0 0 0-4.5 4.5v6.466A2.7 2.7 0 0 0 0 13.5v37.8A2.7 2.7 0 0 0 2.7 54h23.4a2.7 2.7 0 0 0 2.7-2.7V37.8h24.3a.9.9 0 0 0 .9-.9V15.3a.9.9 0 0 0-.9-.9Zm-.9 1.8V18H28.8v-1.8h23.4Zm-23.4 5.4h23.4v-1.8H28.8v1.8ZM27 4.5v.9H10.8v-.9a4.455 4.455 0 0 0-.923-2.7H24.3A2.7 2.7 0 0 1 27 4.5ZM6.3 1.8a2.7 2.7 0 0 0-2.7 2.7v6.3h21.6V7.2H9.9a.9.9 0 0 1-.9-.9V4.5a2.7 2.7 0 0 0-2.7-2.7ZM27 51.3a.9.9 0 0 1-.9.9H2.7a.9.9 0 0 1-.9-.9V13.5a.9.9 0 0 1 .9-.9h23.4a.9.9 0 0 1 .9.9v37.8Zm1.8-27.9V36h23.4V23.4H28.8Z" fill="#000"/><path fill-rule="evenodd" clip-rule="evenodd" d="M17.1 36h-5.4v-5.4h5.4V36Zm-1.8-3.6h-1.8v1.8h1.8v-1.8ZM9.9 36H4.5v-5.4h5.4V36Zm-1.8-3.6H6.3v1.8h1.8v-1.8ZM24.3 36h-5.4v-5.4h5.4V36Zm-1.8-3.6h-1.8v1.8h1.8v-1.8ZM17.1 43.2h-5.4v-5.4h5.4v5.4Zm-1.8-3.6h-1.8v1.8h1.8v-1.8ZM9.9 43.2H4.5v-5.4h5.4v5.4Zm-1.8-3.6H6.3v1.8h1.8v-1.8ZM24.3 43.2h-5.4v-5.4h5.4v5.4Zm-1.8-3.6h-1.8v1.8h1.8v-1.8ZM17.1 50.4h-5.4V45h5.4v5.4Zm-1.8-3.6h-1.8v1.8h1.8v-1.8ZM9.9 50.4H4.5V45h5.4v5.4Zm-1.8-3.6H6.3v1.8h1.8v-1.8ZM24.3 50.4h-5.4V45h5.4v5.4Zm-1.8-3.6h-1.8v1.8h1.8v-1.8ZM25.2 28.8H3.6V14.4h21.6v14.4Zm-1.8-12.6h-18V27h18V16.2Z" fill="#000"/><path fill-rule="evenodd" clip-rule="evenodd" d="M53 42a5 5 0 1 0 0-10 5 5 0 0 0 0 10Z" fill="#FDCF26"/></svg>