<svg width="14" height="14" fill="none" xmlns="http://www.w3.org/2000/svg"><path d="M12.296 4.273a1.908 1.908 0 0 0-2.787-2.36 4.185 4.185 0 0 0-7.701 2.272l.001.04A2.964 2.964 0 0 0 2.963 9.92h8.074a2.963 2.963 0 0 0 1.26-5.646Z" fill="#D8ECFE"/><path d="M2.963 3.992a2.95 2.95 0 0 0-1.84.64 2.96 2.96 0 0 1 3.605 1.05c.104.15.295.21.466.143l.007-.003a.389.389 0 0 0 .174-.588 2.96 2.96 0 0 0-2.412-1.242Z" fill="url(#a)"/><path d="M12.296 4.273a1.908 1.908 0 0 0-2.302-2.584 1.909 1.909 0 0 1 1.204 2.584 2.964 2.964 0 0 1-1.26 5.646h1.099a2.963 2.963 0 0 0 1.26-5.646Z" fill="url(#b)"/><path d="M5.994 0c-.186 0-.37.012-.549.036a4.187 4.187 0 0 1 3.096 2.092.385.385 0 0 0 .615.08c.105-.112.224-.211.354-.295A4.182 4.182 0 0 0 5.994 0Z" fill="url(#c)"/><path d="M.682 12.067a.682.682 0 1 0 0-1.364.682.682 0 0 0 0 1.364ZM3.5 12.067a.682.682 0 1 0 0-1.364.682.682 0 0 0 0 1.364ZM6.318 12.067a.682.682 0 1 0 0-1.364.682.682 0 0 0 0 1.364ZM9.136 12.067a.682.682 0 1 0 0-1.364.682.682 0 0 0 0 1.364ZM11.954 12.067a.682.682 0 1 0 0-1.364.682.682 0 0 0 0 1.364ZM2.046 14a.682.682 0 1 0 0-1.364.682.682 0 0 0 0 1.364ZM4.864 14a.682.682 0 1 0 0-1.364.682.682 0 0 0 0 1.364ZM7.682 14a.682.682 0 1 0 0-1.364.682.682 0 0 0 0 1.364ZM10.5 14a.682.682 0 1 0 0-1.364.682.682 0 0 0 0 1.364ZM13.318 14a.682.682 0 1 0 0-1.364.682.682 0 0 0 0 1.364Z" fill="#579EDC"/><defs><linearGradient id="a" x1="-.22" y1="4.922" x2="13.954" y2="4.922" gradientUnits="userSpaceOnUse"><stop stop-color="#D8ECFE"/><stop offset=".567" stop-color="#B3DAFE"/><stop offset=".996" stop-color="#8AC9FE"/></linearGradient><linearGradient id="b" x1="-.22" y1="5.764" x2="13.954" y2="5.764" gradientUnits="userSpaceOnUse"><stop stop-color="#D8ECFE"/><stop offset=".567" stop-color="#B3DAFE"/><stop offset=".996" stop-color="#8AC9FE"/></linearGradient><linearGradient id="c" x1="-.22" y1="1.163" x2="13.954" y2="1.163" gradientUnits="userSpaceOnUse"><stop stop-color="#D8ECFE"/><stop offset=".567" stop-color="#B3DAFE"/><stop offset=".996" stop-color="#8AC9FE"/></linearGradient></defs></svg>