<svg width="18" height="18" fill="none" xmlns="http://www.w3.org/2000/svg"><g clip-path="url(#a)"><path d="m17.574 6.618-5.83-.54L9.43.7a.467.467 0 0 0-.859 0L6.255 6.077l-5.83.541a.467.467 0 0 0-.266.816l4.4 3.865L3.27 17.01c-.09.4.342.714.694.505L9 14.525l5.035 2.99a.467.467 0 0 0 .694-.505l-1.287-5.712 4.399-3.864a.467.467 0 0 0-.266-.816Z" fill="#FFDC64"/><path d="M9.429.7a.467.467 0 0 0-.859 0L6.255 6.077l-5.83.541a.467.467 0 0 0-.266.816l4.4 3.865L3.27 17.01c-.09.4.342.714.694.505l1.124-.668c.155-6.401 3.13-10.91 5.485-13.488L9.429.699Z" fill="#FFC850"/></g><defs><clipPath id="a"><path fill="#fff" d="M0 0h17.999v17.999H0z"/></clipPath></defs></svg>