<svg width="54" height="54" fill="none" xmlns="http://www.w3.org/2000/svg"><path fill-rule="evenodd" clip-rule="evenodd" d="M15.665 0h22.67A3.97 3.97 0 0 1 42.3 3.965v46.07A3.97 3.97 0 0 1 38.335 54h-22.67a3.97 3.97 0 0 1-3.965-3.965V3.965A3.97 3.97 0 0 1 15.665 0ZM40.5 7.2h-27v34.2h27V7.2ZM15.665 1.8h22.67c1.194 0 2.165.971 2.165 2.165V5.4h-27V3.964c0-1.193.971-2.164 2.165-2.164Zm0 50.4h22.67a2.167 2.167 0 0 0 2.165-2.165V43.2h-27v6.835c0 1.194.971 2.165 2.165 2.165Z" fill="#000"/><path fill-rule="evenodd" clip-rule="evenodd" d="M23.4 47.7c0-1.985 1.615-3.6 3.6-3.6s3.6 1.615 3.6 3.6-1.615 3.6-3.6 3.6a3.604 3.604 0 0 1-3.6-3.6Zm1.8 0c0 .993.807 1.8 1.8 1.8s1.8-.807 1.8-1.8-.807-1.8-1.8-1.8-1.8.807-1.8 1.8Z" fill="#000"/><path d="M23.4 4.5H27a.9.9 0 1 0 0-1.8h-3.6a.9.9 0 1 0 0 1.8ZM29.7 4.5h.9a.9.9 0 1 0 0-1.8h-.9a.9.9 0 1 0 0 1.8ZM50.95 4.112a.899.899 0 1 0-1.272 1.273c3.362 3.362 3.362 8.833 0 12.196a.899.899 0 1 0 1.273 1.273c4.064-4.063 4.064-10.678 0-14.742Z" fill="#000"/><path d="M47.161 6.16a.899.899 0 1 0-1.273 1.273 5.865 5.865 0 0 1 1.727 4.175c0 1.579-.613 3.061-1.727 4.174a.899.899 0 1 0 1.273 1.273 7.65 7.65 0 0 0 2.254-5.447c0-2.059-.8-3.995-2.254-5.448ZM4.322 5.385a.899.899 0 1 0-1.273-1.273c-4.064 4.064-4.064 10.678 0 14.742a.898.898 0 0 0 1.273 0 .899.899 0 0 0 0-1.273C.959 14.22.959 8.748 4.322 5.385Z" fill="#000"/><path d="M8.112 5.912a.899.899 0 0 0-1.273 0 7.65 7.65 0 0 0-2.254 5.447c0 2.06.8 3.994 2.254 5.448a.898.898 0 0 0 1.273 0 .899.899 0 0 0 0-1.273 5.865 5.865 0 0 1-1.727-4.175 5.86 5.86 0 0 1 1.727-4.174.9.9 0 0 0 0-1.273Z" fill="#000"/><path fill-rule="evenodd" clip-rule="evenodd" d="M41 34a5 5 0 1 0 0-10 5 5 0 0 0 0 10Z" fill="#FDCF26"/></svg>