<svg width="55" height="58" fill="none" xmlns="http://www.w3.org/2000/svg"><path fill-rule="evenodd" clip-rule="evenodd" d="M53.167 3.867H46.4v-2.9A.966.966 0 0 0 45.433 0h-6.766a.966.966 0 0 0-.967.967v2.9H16.433v-2.9A.966.966 0 0 0 15.467 0H8.7a.966.966 0 0 0-.967.967v2.9H.967A.966.966 0 0 0 0 4.833v52.2c0 .535.432.967.967.967h52.2a.966.966 0 0 0 .966-.967v-52.2a.966.966 0 0 0-.966-.966ZM39.633 1.933h4.834v5.8h-4.834v-5.8Zm-25.133 0H9.667v5.8H14.5v-5.8ZM1.933 5.8h5.8v2.9c0 .535.432.967.967.967h6.767a.966.966 0 0 0 .966-.967V5.8H37.7v2.9c0 .535.432.967.967.967h6.766A.966.966 0 0 0 46.4 8.7V5.8h5.8v8.7H1.933V5.8Zm0 10.633v39.634H52.2V16.433H1.933Z" fill="#000"/><path fill-rule="evenodd" clip-rule="evenodd" d="M34.8 22.233H8.7v28.034h36.733V22.233H34.8Zm-6.767 1.934H34.8v6.766h-6.767v-6.766Zm0 15.466H34.8v-6.766h-6.767v6.766Zm-8.7-6.766H26.1v6.766h-6.767v-6.766Zm6.767-8.7h-6.767v6.766H26.1v-6.766Zm-15.467 0H17.4v6.766h-6.767v-6.766Zm6.767 8.7h-6.767v6.766H17.4v-6.766Zm0 15.466h-6.767v-6.766H17.4v6.766Zm1.933 0H26.1v-6.766h-6.767v6.766Zm15.467 0h-6.767v-6.766H34.8v6.766Zm1.933 0H43.5v-6.766h-6.767v6.766Zm6.767-8.7h-6.767v-6.766H43.5v6.766Zm0-8.7v-6.766h-6.767v6.766H43.5Z" fill="#000"/><path fill-rule="evenodd" clip-rule="evenodd" d="M36 46a5 5 0 1 0 0-10 5 5 0 0 0 0 10Z" fill="#FDCF26"/></svg>