<svg width="898" height="442" fill="none" xmlns="http://www.w3.org/2000/svg"><g filter="url(#a)"><path d="M36.48 131.28c0 .213-.747.053-2.24-.48a107.732 107.732 0 0 1-4.96-2.08 43.664 43.664 0 0 1-4.96-3.04c-1.387-1.067-2.08-2.08-2.08-3.04-.213-3.413-.053-7.36.48-11.84.533-4.587 1.28-9.067 2.24-13.44 1.067-4.48 2.08-8.213 3.04-11.2.64-1.813 1.867-3.36 3.68-4.64a20.326 20.326 0 0 1 5.92-2.88c2.24-.747 4.267-1.12 6.08-1.12 1.493 0 2.72.267 3.68.8.96.427 1.44 1.12 1.44 2.08 0 .747-.373 1.653-1.12 2.72-.96 1.387-2.187 3.627-3.68 6.72-1.387 3.093-2.773 6.507-4.16 10.24a226.26 226.26 0 0 0-3.36 10.24c-.853 3.093-1.28 5.44-1.28 7.04 0 1.387.373 1.92 1.12 1.6.213 0 .747-.587 1.6-1.76.853-1.173 1.333-1.92 1.44-2.24 5.013-5.76 9.6-10.72 13.76-14.88 4.267-4.267 8.587-7.787 12.96-10.56 4.48-2.88 9.6-5.12 15.36-6.72 1.493-.427 2.507.213 3.04 1.92.64 1.6 1.013 3.84 1.12 6.72.107 2.773.16 5.867.16 9.28.107 3.307.373 6.56.8 9.76.533 3.093 1.44 5.707 2.72 7.84 1.28 2.027 3.2 3.2 5.76 3.52 1.813.213 3.947-.213 6.4-1.28 2.453-1.067 4.907-2.667 7.36-4.8a27.726 27.726 0 0 0 6.08-7.52c1.6-2.88 2.4-5.973 2.4-9.28 0-1.707-.213-3.413-.64-5.12-.427-1.707-1.173-3.413-2.24-5.12-.533-1.173-1.12-1.813-1.76-1.92-.533-.213-1.12-.267-1.76-.16-.533 0-1.12-.267-1.76-.8-1.28-.96-.96-1.76.96-2.4 1.92-.64 4.213-.96 6.88-.96 2.027 0 4 .213 5.92.64 1.92.427 3.307 1.173 4.16 2.24.96 1.067 1.813 2.773 2.56 5.12.747 2.347 1.12 4.96 1.12 7.84s-.533 5.92-1.6 9.12c-.96 3.093-2.72 5.973-5.28 8.64-2.453 2.667-5.867 4.96-10.24 6.88-4.267 1.813-9.76 2.88-16.48 3.2-3.733.213-6.827-.48-9.28-2.08-2.453-1.707-4.427-3.947-5.92-6.72a42.125 42.125 0 0 1-3.52-8.8c-.853-3.2-1.547-6.187-2.08-8.96-.533-2.773-1.013-5.013-1.44-6.72-.427-1.813-1.013-2.613-1.76-2.4-2.667.64-5.6 2.347-8.8 5.12-3.2 2.667-6.453 6.027-9.76 10.08-3.2 3.947-6.4 8.16-9.6 12.64-3.093 4.48-5.92 8.8-8.48 12.96Zm130.478 2.4c-4.267 0-8.267-.8-12-2.4-3.734-1.493-6.774-3.893-9.12-7.2-1.92-2.773-3.254-5.44-4-8-.747-2.667-1.12-5.173-1.12-7.52 0-2.24.266-4.267.8-6.08.533-1.92 1.173-3.467 1.92-4.64 2.24-3.84 4.586-7.04 7.04-9.6a57.005 57.005 0 0 1 8.32-6.88c3.946-2.56 8.8-3.84 14.56-3.84 2.133 0 4.373.853 6.72 2.56 2.346 1.707 5.76 3.467 10.24 5.28 2.986 1.173 5.76 2.56 8.32 4.16 2.666 1.493 4.8 3.04 6.4 4.64 1.706 1.493 2.56 2.933 2.56 4.32 0 1.493-1.227 2.72-3.68 3.68-3.52 1.173-7.68 2.24-12.48 3.2-4.8.853-9.6 1.547-14.4 2.08-4.694.533-8.854.8-12.48.8-2.774 0-4.907-.16-6.4-.48-.64 2.347-.96 4.8-.96 7.36 0 2.133.32 4.267.96 6.4.64 2.133 1.706 4.107 3.2 5.92 1.066 1.173 2.24 2.027 3.52 2.56 1.386.427 2.773.64 4.16.64 2.346 0 4.64-.373 6.88-1.12 2.346-.853 4.373-1.707 6.08-2.56 1.706-.96 2.773-1.6 3.2-1.92l4.8-2.88c1.173-.64 2.293-.96 3.36-.96 1.92 0 2.88.427 2.88 1.28 0 .533-.534 1.333-1.6 2.4-1.067.96-2.934 2.08-5.6 3.36a52.967 52.967 0 0 1-10.88 4 44.822 44.822 0 0 1-11.2 1.44Zm1.28-30.72c3.413 0 7.413-.16 12-.48 4.586-.427 9.546-1.12 14.88-2.08 2.986-.64 4.48-1.547 4.48-2.72 0-.96-.694-1.973-2.08-3.04-1.28-1.173-2.934-2.24-4.96-3.2-1.92-.96-3.84-1.76-5.76-2.4-1.814-.747-3.2-1.12-4.16-1.12-4.587 0-8.534.96-11.84 2.88-3.2 1.92-5.974 4.427-8.32 7.52-.747.96-1.547 2.347-2.4 4.16 1.813.32 4.533.48 8.16.48Zm48.173 29.12c-1.28 0-2.4-.853-3.36-2.56-.853-1.813-1.546-3.84-2.08-6.08-.533-2.347-.8-4.32-.8-5.92 0-3.52.48-7.627 1.44-12.32 1.067-4.693 2.454-9.6 4.16-14.72a239.06 239.06 0 0 1 5.6-15.36c2.027-5.013 4.107-9.653 6.24-13.92 2.134-4.373 4.054-7.947 5.76-10.72 1.494-2.453 3.627-4.107 6.4-4.96 2.88-.96 5.6-1.44 8.16-1.44 2.56 0 4.587.32 6.08.96 1.494.64 1.92 1.387 1.28 2.24-3.306 4.267-6.773 9.28-10.4 15.04a293.733 293.733 0 0 0-10.56 18.24 277.109 277.109 0 0 0-8.96 19.04c-2.56 6.293-4.533 12.16-5.92 17.6-1.386 5.44-1.866 9.973-1.44 13.6 0 .853-.533 1.28-1.6 1.28Zm62.02-2.24c-2.453 0-5.066-.373-7.84-1.12-2.773-.747-5.28-1.653-7.52-2.72-2.133-1.067-3.626-2.027-4.48-2.88-3.52-4.053-5.28-9.013-5.28-14.88 0-7.36 2.667-15.04 8-23.04 6.4-9.28 15.2-13.92 26.4-13.92 4.907 0 8.96.587 12.16 1.76 3.307 1.173 5.92 2.613 7.84 4.32 1.92 1.707 3.254 3.36 4 4.96.854 1.6 1.28 2.773 1.28 3.52 0 2.347-1.013 3.52-3.04 3.52-2.24 0-3.36-.373-3.36-1.12 0-.213.054-.48.16-.8.214-.427.32-.8.32-1.12 0-.533-.426-1.227-1.28-2.08-.746-.96-1.44-1.653-2.08-2.08-2.346-1.813-5.28-2.72-8.8-2.72-2.986 0-6.133.853-9.44 2.56-3.2 1.707-6.346 4.587-9.44 8.64-3.52 4.587-6.133 8.96-7.84 13.12-1.706 4.16-2.56 7.84-2.56 11.04 0 3.84 1.174 6.667 3.52 8.48 2.454 1.813 6.987 2.72 13.6 2.72 3.2 0 6.774-.373 10.72-1.12 4.054-.853 8.16-2.133 12.32-3.84 5.867-2.453 11.467-5.867 16.8-10.24 1.494-1.173 2.56-1.76 3.2-1.76.64 0 .96.373.96 1.12 0 1.173-.64 2.347-1.92 3.52-4.266 4.267-10.346 8.053-18.24 11.36-7.893 3.2-17.28 4.8-28.16 4.8Zm63.529.48c-5.013 0-9.173-.96-12.48-2.88-3.307-2.027-5.813-4.587-7.52-7.68-1.6-3.093-2.4-6.187-2.4-9.28 0-3.52.96-6.88 2.88-10.08 1.92-3.307 4.427-6.293 7.52-8.96 3.2-2.667 6.507-4.747 9.92-6.24 1.707-.747 3.2-1.28 4.48-1.6 1.387-.427 2.88-.64 4.48-.64 1.92 0 4.213.267 6.88.8a34.273 34.273 0 0 1 8 2.24c2.56.96 4.427 2.347 5.6 4.16.32.533 1.387 1.12 3.2 1.76 1.813.64 3.84 1.44 6.08 2.4s4.16 2.24 5.76 3.84c1.707 1.493 2.56 3.467 2.56 5.92 0 2.987-1.493 6.027-4.48 9.12-2.987 3.093-6.827 5.973-11.52 8.64a81.305 81.305 0 0 1-14.72 6.24c-5.12 1.493-9.867 2.24-14.24 2.24Zm-1.12-5.12c3.093 0 6.507-.533 10.24-1.6a55.02 55.02 0 0 0 10.72-4.32c3.413-1.813 6.187-3.84 8.32-6.08 2.24-2.347 3.36-4.747 3.36-7.2 0-1.92-.747-3.413-2.24-4.48-1.387-1.173-3.147-2.133-5.28-2.88-.747-.213-1.76-.107-3.04.32-1.28.32-2.773.48-4.48.48-2.027 0-4.16-.693-6.4-2.08s-3.36-3.093-3.36-5.12c0-.64.053-1.227.16-1.76.107-.533.213-.96.32-1.28-3.84.853-7.52 2.453-11.04 4.8-3.413 2.347-6.24 5.173-8.48 8.48-2.24 3.307-3.36 6.933-3.36 10.88 0 3.947 1.44 6.933 4.32 8.96 2.987 1.92 6.4 2.88 10.24 2.88Zm63.269 5.76c-.32 0-1.014-.32-2.08-.96-1.067-.533-2.08-1.28-3.04-2.24-.96-1.067-1.387-2.133-1.28-3.2.106-.853-.107-1.44-.64-1.76-.534-.427-1.12-1.013-1.76-1.76-.534-.747-.8-1.92-.8-3.52 0-3.093.64-6.667 1.92-10.72 1.28-4.16 2.88-8.533 4.8-13.12s3.786-9.067 5.6-13.44c.533-1.387 1.333-2.347 2.4-2.88 1.066-.533 2.293-.8 3.68-.8 2.026 0 4.106.533 6.24 1.6 2.133 1.067 3.946 2.453 5.44 4.16 1.493 1.707 2.24 3.467 2.24 5.28 0 1.173-.32 2.24-.96 3.2-.534.853-1.28 2.187-2.24 4-.96 1.707-1.76 3.307-2.4 4.8-.214.533-.48 1.12-.8 1.76-.214.533-.267.8-.16.8.213 0 .693-.373 1.44-1.12a41.756 41.756 0 0 1 1.76-1.92c2.346-2.24 5.013-4.427 8-6.56 2.986-2.133 5.973-3.893 8.96-5.28 3.093-1.493 5.866-2.24 8.32-2.24 2.56 0 4.586.747 6.08 2.24 1.6 1.493 2.4 3.68 2.4 6.56a58.13 58.13 0 0 1-.32 6.08c-.107 1.92-.16 3.787-.16 5.6 0 4.16 1.066 6.24 3.2 6.24 1.066 0 2.453-.8 4.16-2.4 1.706-1.6 3.626-3.573 5.76-5.92 2.24-2.453 4.64-4.853 7.2-7.2 2.56-2.347 5.173-4.32 7.84-5.92 2.773-1.6 5.493-2.4 8.16-2.4 2.666 0 4.533.907 5.6 2.72 1.066 1.813 1.76 4.107 2.08 6.88.426 2.773.906 5.6 1.44 8.48a67.38 67.38 0 0 0 1.12 4.96 18.929 18.929 0 0 0 2.08 4.16c1.066 1.493 1.6 2.72 1.6 3.68 0 .64-.267.96-.8.96-.854 0-2.134-.853-3.84-2.56-1.6-1.493-2.88-3.093-3.84-4.8a41.334 41.334 0 0 1-2.08-5.28c-1.067-3.093-1.814-5.813-2.24-8.16-.427-2.453-1.387-3.68-2.88-3.68-1.707 0-3.734.8-6.08 2.4-2.347 1.493-4.854 3.413-7.52 5.76a642.365 642.365 0 0 1-8 6.88c-2.774 2.347-5.44 4.32-8 5.92-2.56 1.6-4.96 2.453-7.2 2.56-2.987.107-5.387-.213-7.2-.96-1.707-.747-2.934-2.347-3.68-4.8-.747-2.453-1.12-6.187-1.12-11.2 0-3.413.32-6.027.96-7.84.64-1.92.533-2.88-.32-2.88-.534 0-1.92.64-4.16 1.92-2.134 1.28-4.747 3.147-7.84 5.6-2.987 2.453-6.027 5.387-9.12 8.8-3.094 3.413-5.867 7.307-8.32 11.68-1.707 3.093-3.467 5.867-5.28 8.32-1.707 2.347-3.147 3.52-4.32 3.52Zm141.286 2.72c-4.267 0-8.267-.8-12-2.4-3.733-1.493-6.773-3.893-9.12-7.2-1.92-2.773-3.253-5.44-4-8-.747-2.667-1.12-5.173-1.12-7.52 0-2.24.267-4.267.8-6.08.533-1.92 1.173-3.467 1.92-4.64 2.24-3.84 4.587-7.04 7.04-9.6a57.005 57.005 0 0 1 8.32-6.88c3.947-2.56 8.8-3.84 14.56-3.84 2.133 0 4.373.853 6.72 2.56 2.347 1.707 5.76 3.467 10.24 5.28 2.987 1.173 5.76 2.56 8.32 4.16 2.667 1.493 4.8 3.04 6.4 4.64 1.707 1.493 2.56 2.933 2.56 4.32 0 1.493-1.227 2.72-3.68 3.68-3.52 1.173-7.68 2.24-12.48 3.2-4.8.853-9.6 1.547-14.4 2.08-4.693.533-8.853.8-12.48.8-2.773 0-4.907-.16-6.4-.48-.64 2.347-.96 4.8-.96 7.36 0 2.133.32 4.267.96 6.4.64 2.133 1.707 4.107 3.2 5.92 1.067 1.173 2.24 2.027 3.52 2.56a14.07 14.07 0 0 0 4.16.64c2.347 0 4.64-.373 6.88-1.12 2.347-.853 4.373-1.707 6.08-2.56 1.707-.96 2.773-1.6 3.2-1.92l4.8-2.88c1.173-.64 2.293-.96 3.36-.96 1.92 0 2.88.427 2.88 1.28 0 .533-.533 1.333-1.6 2.4-1.067.96-2.933 2.08-5.6 3.36a52.946 52.946 0 0 1-10.88 4 44.816 44.816 0 0 1-11.2 1.44Zm1.28-30.72c3.413 0 7.413-.16 12-.48 4.587-.427 9.547-1.12 14.88-2.08 2.987-.64 4.48-1.547 4.48-2.72 0-.96-.693-1.973-2.08-3.04-1.28-1.173-2.933-2.24-4.96-3.2-1.92-.96-3.84-1.76-5.76-2.4-1.813-.747-3.2-1.12-4.16-1.12-4.587 0-8.533.96-11.84 2.88-3.2 1.92-5.973 4.427-8.32 7.52-.747.96-1.547 2.347-2.4 4.16 1.813.32 4.533.48 8.16.48Zm107.904 31.2c-.854 0-1.92-.373-3.2-1.12-1.28-.64-2.774-2.133-4.48-4.48-1.387-1.92-2.454-4.587-3.2-8a55.453 55.453 0 0 1-.96-10.24c0-4.48.266-8.213.8-11.2.533-2.987.906-4.907 1.12-5.76-1.6-1.493-2.934-2.56-4-3.2-1.067-.64-1.6-1.387-1.6-2.24 0-1.493 1.013-2.667 3.04-3.52 2.133-.96 4.48-1.547 7.04-1.76.96-2.24 1.813-4.64 2.56-7.2a222.148 222.148 0 0 1 2.24-7.52c.746-2.453 1.546-4.373 2.4-5.76 1.493-2.453 3.786-4.107 6.88-4.96 3.2-.853 6.24-1.28 9.12-1.28 2.88 0 5.173.32 6.88.96 1.813.533 2.24 1.173 1.28 1.92-1.707 1.173-3.574 3.2-5.6 6.08-2.027 2.773-4 5.813-5.92 9.12-1.92 3.307-3.68 6.347-5.28 9.12h21.12c3.84 0 5.76.32 5.76.96 0 1.067-2.347 1.707-7.04 1.92-6.08.107-10.56.267-13.44.48-2.774.213-4.747.427-5.92.64-1.494.32-2.614.8-3.36 1.44-.747.64-1.387 1.707-1.92 3.2a102.753 102.753 0 0 0-4.48 14.4c-1.067 4.907-1.6 9.387-1.6 13.44 0 3.093.32 5.76.96 8 .746 2.133 1.813 3.573 3.2 4.32.32.107.48.32.48.64s-.267.64-.8.96c-.534.427-1.227.64-2.08.64Zm44.569-3.84c-5.014 0-9.174-.96-12.48-2.88-3.307-2.027-5.814-4.587-7.52-7.68-1.601-3.093-2.401-6.187-2.401-9.28 0-3.52.96-6.88 2.881-10.08 1.92-3.307 4.426-6.293 7.52-8.96 3.2-2.667 6.506-4.747 9.92-6.24 1.706-.747 3.2-1.28 4.48-1.6 1.386-.427 2.88-.64 4.48-.64 1.92 0 4.213.267 6.88.8a34.273 34.273 0 0 1 8 2.24c2.56.96 4.426 2.347 5.6 4.16.32.533 1.386 1.12 3.2 1.76 1.813.64 3.84 1.44 6.08 2.4s4.16 2.24 5.76 3.84c1.706 1.493 2.56 3.467 2.56 5.92 0 2.987-1.494 6.027-4.48 9.12-2.987 3.093-6.827 5.973-11.52 8.64a81.335 81.335 0 0 1-14.72 6.24c-5.12 1.493-9.867 2.24-14.24 2.24Zm-1.12-5.12c3.093 0 6.506-.533 10.24-1.6a55.045 55.045 0 0 0 10.72-4.32c3.413-1.813 6.186-3.84 8.32-6.08 2.24-2.347 3.36-4.747 3.36-7.2 0-1.92-.747-3.413-2.24-4.48-1.387-1.173-3.147-2.133-5.28-2.88-.747-.213-1.76-.107-3.04.32-1.28.32-2.774.48-4.48.48-2.027 0-4.16-.693-6.4-2.08s-3.36-3.093-3.36-5.12c0-.64.053-1.227.16-1.76.106-.533.213-.96.32-1.28-3.84.853-7.52 2.453-11.04 4.8-3.414 2.347-6.24 5.173-8.48 8.48-2.24 3.307-3.361 6.933-3.361 10.88 0 3.947 1.441 6.933 4.321 8.96 2.986 1.92 6.4 2.88 10.24 2.88Z" fill="#FFC700"/><path d="M57.8 266.6h-41V230H146v36.6h-41V370H57.8V266.6Zm216.706-6V370h-43v-10.4a39.879 39.879 0 0 1-14 9.4c-5.333 2-11 3-17 3-13.866 0-25-4.2-33.4-12.6-8.4-8.533-12.6-21.333-12.6-38.4v-60.4h45.2v52.6c0 7.467 1.2 12.8 3.6 16 2.4 3.2 5.934 4.8 10.6 4.8 4.4 0 8.067-1.733 11-5.2 2.934-3.6 4.4-9.2 4.4-16.8v-51.4h45.2Zm63.049 11.8c8-9.2 19.8-13.8 35.4-13.8v40c-3.6-.533-6.934-.8-10-.8-15.467 0-23.2 7.867-23.2 23.6V370h-45.2V260.6h43v11.8Zm100.611 64-7.2 7.8V370h-45.2V221.6h45.2v70.8l31.4-31.8h53.4l-45.2 47.4 48.8 62h-54.6l-26.6-33.6Zm201.5-21.2c0 .667-.2 4.2-.6 10.6h-76c1.6 4.133 4.266 7.333 8 9.6 3.733 2.133 8.4 3.2 14 3.2 4.8 0 8.8-.6 12-1.8 3.333-1.2 6.933-3.267 10.8-6.2l23.6 23.8c-10.667 11.733-26.6 17.6-47.8 17.6-13.2 0-24.8-2.4-34.8-7.2-10-4.933-17.734-11.733-23.2-20.4-5.467-8.667-8.2-18.4-8.2-29.2 0-10.933 2.666-20.667 8-29.2 5.466-8.667 12.866-15.4 22.2-20.2 9.466-4.8 20.066-7.2 31.8-7.2 11.066 0 21.133 2.2 30.2 6.6 9.2 4.4 16.466 10.867 21.8 19.4 5.466 8.533 8.2 18.733 8.2 30.6Zm-59.8-25.8c-4.667 0-8.534 1.267-11.6 3.8-3.067 2.533-5.067 6.133-6 10.8h35.2c-.934-4.533-2.934-8.067-6-10.6-3.067-2.667-6.934-4-11.6-4Zm193.911-28.8-45 111.6c-5.734 14.267-12.867 24.267-21.4 30-8.534 5.733-19 8.6-31.4 8.6-6.134 0-12.334-.933-18.6-2.8-6.134-1.733-11-4.067-14.6-7l15-31c2.266 1.733 4.8 3.133 7.6 4.2 2.933 1.067 5.733 1.6 8.4 1.6 4.933 0 8.666-1.467 11.2-4.4l-46-110.8h46.4l22.6 58.6 23-58.6h42.8ZM795.033 372c-7.6 0-13.934-2.4-19-7.2-4.934-4.933-7.4-11.2-7.4-18.8 0-7.6 2.466-13.733 7.4-18.4 5.066-4.8 11.4-7.2 19-7.2s13.866 2.4 18.8 7.2c5.066 4.667 7.6 10.8 7.6 18.4 0 7.6-2.534 13.867-7.6 18.8-4.934 4.8-11.2 7.2-18.8 7.2Z" fill="#fff"/></g><defs><filter id="a" x=".702" y="42.982" width="836.828" height="398.915" filterUnits="userSpaceOnUse" color-interpolation-filters="sRGB"><feFlood flood-opacity="0" result="BackgroundImageFix"/><feColorMatrix in="SourceAlpha" values="0 0 0 0 0 0 0 0 0 0 0 0 0 0 0 0 0 0 127 0" result="hardAlpha"/><feOffset dy="15"/><feGaussianBlur stdDeviation="8.049"/><feColorMatrix values="0 0 0 0 0 0 0 0 0 0 0 0 0 0 0 0 0 0 0.4 0"/><feBlend in2="BackgroundImageFix" result="effect1_dropShadow_424_39"/><feBlend in="SourceGraphic" in2="effect1_dropShadow_424_39" result="shape"/></filter></defs></svg>